<svg width="430" height="430" viewBox="0 0 430 430" fill="none" xmlns="http://www.w3.org/2000/svg">
<path d="M369.08 354.43H60.92C58.78 354.43 56.8 353.29 55.72 351.43C54.65 349.57 54.65 347.29 55.72 345.43L209.8 78.57C210.87 76.71 212.85 75.57 215 75.57C217.15 75.57 219.12 76.71 220.2 78.57L374.28 345.44C375.35 347.3 375.35 349.58 374.28 351.44C373.2 353.29 371.22 354.43 369.08 354.43ZM71.32 342.43H358.69L215 93.57L71.32 342.43Z" fill="#121331" stroke="black" stroke-width="8"/>
<path d="M78.066 348.258C77.922 347.506 77.7141 346.738 77.4902 345.987C77.2662 345.235 76.9943 344.499 76.6904 343.779C76.4025 343.06 76.0666 342.34 75.6988 341.652C75.3309 340.964 74.931 340.277 74.4992 339.637C74.0513 338.981 73.5875 338.341 73.0916 337.733C72.5958 337.126 72.068 336.534 71.5082 335.99C70.9483 335.43 70.3565 334.902 69.7487 334.407C69.1569 333.911 68.5172 333.431 67.8614 332.999C67.2056 332.567 66.5338 332.167 65.846 331.799C65.1583 331.432 64.4385 331.096 63.7188 330.792C62.999 330.504 62.2472 330.232 61.5115 330.008C60.7597 329.768 59.992 329.576 59.2242 329.432C58.4565 329.272 57.6728 329.16 56.905 329.08C55.3376 328.92 53.7541 328.92 52.1866 329.08C51.4029 329.16 50.6191 329.272 49.8514 329.432C49.0836 329.576 48.3319 329.768 47.5801 330.008C46.8284 330.232 46.0926 330.504 45.3729 330.792C44.6371 331.096 43.9334 331.432 43.2456 331.799C42.5578 332.167 41.87 332.567 41.2302 332.999C40.5745 333.431 39.9347 333.911 39.3269 334.407C38.7191 334.902 38.1273 335.43 37.5835 335.99C37.0237 336.534 36.4958 337.126 36 337.733C35.5042 338.341 35.0243 338.981 34.5925 339.637C34.1606 340.277 33.7607 340.964 33.3929 341.652C33.025 342.34 32.6891 343.06 32.3852 343.779C32.0973 344.499 31.8254 345.235 31.6015 345.987C31.3775 346.738 31.1696 347.506 31.0257 348.258C30.8657 349.026 30.7537 349.809 30.6738 350.593C30.5938 351.377 30.5458 352.161 30.5458 352.944C30.5458 353.728 30.5938 354.528 30.6738 355.312C30.7537 356.079 30.8657 356.863 31.0257 357.631C31.1696 358.399 31.3775 359.166 31.6015 359.918C31.8254 360.654 32.0973 361.406 32.3852 362.125C32.6891 362.845 33.025 363.565 33.3929 364.253C33.7607 364.94 34.1606 365.612 34.5925 366.268C35.0243 366.924 35.5042 367.547 36 368.155C36.4958 368.763 37.0237 369.355 37.5835 369.915C38.1273 370.459 38.7191 371.002 39.3269 371.498C39.9347 371.994 40.5745 372.458 41.2302 372.89C41.87 373.322 42.5578 373.737 43.2456 374.105C43.9334 374.473 44.6371 374.809 45.3729 375.097C46.0926 375.401 46.8284 375.673 47.5801 375.897C48.3319 376.121 49.0836 376.313 49.8514 376.473C50.6191 376.632 51.4029 376.744 52.1866 376.824C52.9703 376.904 53.7541 376.936 54.5378 376.936C55.3215 376.936 56.1213 376.904 56.905 376.824C57.6728 376.744 58.4565 376.632 59.2242 376.473C59.992 376.313 60.7597 376.121 61.5115 375.897C62.2472 375.673 62.999 375.401 63.7188 375.097C64.4385 374.809 65.1583 374.473 65.846 374.105C66.5338 373.737 67.2056 373.322 67.8614 372.89C68.5172 372.458 69.1569 371.994 69.7487 371.498C70.3565 371.002 70.9483 370.459 71.5082 369.915C72.068 369.355 72.5958 368.763 73.0916 368.155C73.5875 367.547 74.0513 366.924 74.4992 366.268C74.931 365.612 75.3309 364.94 75.6988 364.253C76.0666 363.565 76.4025 362.845 76.6904 362.125C76.9943 361.406 77.2662 360.654 77.4902 359.918C77.7141 359.166 77.922 358.399 78.066 357.631C78.2259 356.863 78.3379 356.079 78.4179 355.312C78.4978 354.528 78.5458 353.728 78.5458 352.944C78.5458 352.161 78.4978 351.377 78.4179 350.593C78.3379 349.809 78.2259 349.026 78.066 348.258Z" fill="#FFD700"/>
<path d="M238.536 70.304C238.376 69.552 238.184 68.784 237.96 68.032C237.72 67.28 237.464 66.544 237.16 65.824C236.856 65.104 236.52 64.384 236.152 63.696C235.784 63.008 235.384 62.32 234.952 61.68C234.52 61.024 234.056 60.384 233.56 59.776C233.064 59.168 232.52 58.576 231.976 58.032C231.416 57.472 230.824 56.944 230.216 56.448C229.608 55.952 228.968 55.472 228.328 55.04C227.672 54.608 227 54.208 226.296 53.84C225.608 53.472 224.904 53.136 224.184 52.832C223.464 52.544 222.712 52.272 221.976 52.048C221.224 51.824 220.456 51.616 219.688 51.472C218.92 51.312 218.136 51.2 217.352 51.12C215.8 50.96 214.2 50.96 212.632 51.12C211.864 51.2 211.08 51.312 210.312 51.472C209.544 51.616 208.776 51.824 208.024 52.048C207.288 52.272 206.536 52.544 205.816 52.832C205.096 53.136 204.376 53.472 203.688 53.84C203 54.208 202.328 54.608 201.672 55.04C201.016 55.472 200.392 55.952 199.784 56.448C199.176 56.944 198.584 57.472 198.024 58.032C197.48 58.576 196.936 59.168 196.44 59.776C195.944 60.384 195.48 61.024 195.048 61.68C194.616 62.32 194.216 63.008 193.848 63.696C193.48 64.384 193.144 65.104 192.84 65.824C192.536 66.544 192.28 67.28 192.04 68.032C191.816 68.784 191.624 69.552 191.464 70.304C191.32 71.072 191.192 71.856 191.112 72.64C191.048 73.424 191 74.224 191 75.008C191 75.776 191.048 76.576 191.112 77.36C191.192 78.144 191.32 78.928 191.464 79.696C191.624 80.448 191.816 81.216 192.04 81.968C192.28 82.72 192.536 83.456 192.84 84.176C193.144 84.896 193.48 85.616 193.848 86.304C194.216 86.992 194.616 87.68 195.048 88.32C195.48 88.976 195.944 89.616 196.44 90.224C196.936 90.832 197.48 91.424 198.024 91.968C198.584 92.528 199.176 93.056 199.784 93.552C200.392 94.048 201.016 94.512 201.672 94.96C202.328 95.392 203 95.792 203.688 96.16C204.376 96.528 205.096 96.864 205.816 97.152C206.536 97.456 207.288 97.728 208.024 97.952C208.776 98.176 209.544 98.368 210.312 98.528C211.08 98.688 211.864 98.8 212.632 98.88C213.416 98.96 214.216 98.992 215 98.992C215.784 98.992 216.568 98.96 217.352 98.88C218.136 98.8 218.92 98.688 219.688 98.528C220.456 98.368 221.224 98.176 221.976 97.952C222.712 97.728 223.464 97.456 224.184 97.152C224.904 96.864 225.608 96.528 226.296 96.16C227 95.792 227.672 95.392 228.328 94.96C228.968 94.512 229.608 94.048 230.216 93.552C230.824 93.056 231.416 92.528 231.976 91.968C232.52 91.424 233.064 90.832 233.56 90.224C234.056 89.616 234.52 88.976 234.952 88.32C235.384 87.68 235.784 86.992 236.152 86.304C236.52 85.616 236.856 84.896 237.16 84.176C237.464 83.456 237.72 82.72 237.96 81.968C238.184 81.216 238.376 80.448 238.536 79.696C238.68 78.928 238.808 78.144 238.888 77.36C238.968 76.576 239 75.776 239 75.008C239 74.224 238.968 73.424 238.888 72.64C238.808 71.856 238.68 71.072 238.536 70.304Z" fill="#FFD700"/>
<path d="M401.872 347.633C401.792 346.849 401.68 346.065 401.52 345.298C401.376 344.53 401.168 343.778 400.944 343.026C400.72 342.275 400.449 341.539 400.161 340.819C399.857 340.099 399.521 339.38 399.153 338.692C398.785 338.004 398.385 337.316 397.953 336.676C397.505 336.021 397.042 335.381 396.546 334.773C396.05 334.165 395.522 333.573 394.962 333.03C394.403 332.47 393.827 331.942 393.203 331.446C392.611 330.95 391.971 330.47 391.316 330.039C390.66 329.607 389.988 329.207 389.3 328.839C388.612 328.471 387.893 328.135 387.173 327.831C386.453 327.543 385.717 327.272 384.966 327.048C384.214 326.808 383.446 326.616 382.694 326.472C381.927 326.312 381.143 326.2 380.359 326.12C378.792 325.96 377.208 325.96 375.641 326.12C374.857 326.2 374.073 326.312 373.306 326.472C372.554 326.616 371.786 326.808 371.034 327.048C370.283 327.272 369.547 327.543 368.827 327.831C368.107 328.135 367.388 328.471 366.7 328.839C366.012 329.207 365.324 329.607 364.684 330.039C364.029 330.47 363.389 330.95 362.781 331.446C362.173 331.942 361.581 332.47 361.038 333.03C360.478 333.573 359.95 334.165 359.454 334.773C358.958 335.381 358.479 336.021 358.047 336.676C357.615 337.316 357.215 338.004 356.847 338.692C356.479 339.38 356.143 340.099 355.839 340.819C355.551 341.539 355.28 342.275 355.056 343.026C354.832 343.778 354.624 344.53 354.48 345.298C354.32 346.065 354.208 346.849 354.128 347.633C354.048 348.417 354 349.2 354 349.984C354 350.768 354.048 351.567 354.128 352.351C354.208 353.119 354.32 353.903 354.48 354.67C354.624 355.438 354.832 356.206 355.056 356.958C355.28 357.693 355.551 358.445 355.839 359.165C356.143 359.885 356.479 360.604 356.847 361.292C357.215 361.98 357.615 362.652 358.047 363.308C358.479 363.963 358.958 364.603 359.454 365.195C359.95 365.819 360.478 366.395 361.038 366.954C361.581 367.514 362.173 368.042 362.781 368.538C363.389 369.034 364.029 369.498 364.684 369.929C365.324 370.361 366.012 370.777 366.7 371.145C367.388 371.513 368.107 371.849 368.827 372.137C369.547 372.441 370.283 372.712 371.034 372.936C371.786 373.16 372.554 373.352 373.306 373.512C374.073 373.672 374.857 373.784 375.641 373.864C376.425 373.944 377.224 373.976 378.008 373.976C378.776 373.976 379.575 373.944 380.359 373.864C381.143 373.784 381.927 373.672 382.694 373.512C383.446 373.352 384.214 373.16 384.966 372.936C385.717 372.712 386.453 372.441 387.173 372.137C387.893 371.849 388.612 371.513 389.3 371.145C389.988 370.777 390.66 370.361 391.316 369.929C391.971 369.498 392.611 369.034 393.203 368.538C393.827 368.042 394.403 367.514 394.962 366.954C395.522 366.395 396.05 365.819 396.546 365.195C397.042 364.603 397.505 363.963 397.953 363.308C398.385 362.652 398.785 361.98 399.153 361.292C399.521 360.604 399.857 359.885 400.161 359.165C400.449 358.445 400.72 357.693 400.944 356.958C401.168 356.206 401.376 355.438 401.52 354.67C401.68 353.903 401.792 353.119 401.872 352.351C401.952 351.567 402 350.768 402 349.984C402 349.2 401.952 348.417 401.872 347.633Z" fill="#FFD700"/>
</svg>
