<svg width="1392" height="1392" viewBox="0 0 1392 1392" fill="none" xmlns="http://www.w3.org/2000/svg">
<g clip-path="url(#clip0_309_2)">
<path d="M720 24C720 10.7452 709.255 0 696 0C682.745 0 672 10.7452 672 24C672 37.2548 682.745 48 696 48C709.255 48 720 37.2548 720 24Z" fill="black"/>
<path d="M768 24C768 10.7452 757.255 0 744 0C730.745 0 720 10.7452 720 24C720 37.2548 730.745 48 744 48C757.255 48 768 37.2548 768 24Z" fill="black"/>
<path d="M864 24C864 10.7452 853.255 0 840 0C826.745 0 816 10.7452 816 24C816 37.2548 826.745 48 840 48C853.255 48 864 37.2548 864 24Z" fill="black"/>
<path d="M960 24C960 10.7452 949.255 0 936 0C922.745 0 912 10.7452 912 24C912 37.2548 922.745 48 936 48C949.255 48 960 37.2548 960 24Z" fill="black"/>
<path d="M1008 24C1008 10.7452 997.255 0 984 0C970.745 0 960 10.7452 960 24C960 37.2548 970.745 48 984 48C997.255 48 1008 37.2548 1008 24Z" fill="black"/>
<path d="M528 72C528 58.7452 517.255 48 504 48C490.745 48 480 58.7452 480 72C480 85.2548 490.745 96 504 96C517.255 96 528 85.2548 528 72Z" fill="black"/>
<path d="M576 72C576 58.7452 565.255 48 552 48C538.745 48 528 58.7452 528 72C528 85.2548 538.745 96 552 96C565.255 96 576 85.2548 576 72Z" fill="black"/>
<path d="M624 72C624 58.7452 613.255 48 600 48C586.745 48 576 58.7452 576 72C576 85.2548 586.745 96 600 96C613.255 96 624 85.2548 624 72Z" fill="black"/>
<path d="M672 72C672 58.7452 661.255 48 648 48C634.745 48 624 58.7452 624 72C624 85.2548 634.745 96 648 96C661.255 96 672 85.2548 672 72Z" fill="black"/>
<path d="M864 72C864 58.7452 853.255 48 840 48C826.745 48 816 58.7452 816 72C816 85.2548 826.745 96 840 96C853.255 96 864 85.2548 864 72Z" fill="black"/>
<path d="M960 72C960 58.7452 949.255 48 936 48C922.745 48 912 58.7452 912 72C912 85.2548 922.745 96 936 96C949.255 96 960 85.2548 960 72Z" fill="black"/>
<path d="M432 120C432 106.745 421.255 96 408 96C394.745 96 384 106.745 384 120C384 133.255 394.745 144 408 144C421.255 144 432 133.255 432 120Z" fill="black"/>
<path d="M480 120C480 106.745 469.255 96 456 96C442.745 96 432 106.745 432 120C432 133.255 442.745 144 456 144C469.255 144 480 133.255 480 120Z" fill="black"/>
<path d="M528 120C528 106.745 517.255 96 504 96C490.745 96 480 106.745 480 120C480 133.255 490.745 144 504 144C517.255 144 528 133.255 528 120Z" fill="black"/>
<path d="M624 120C624 106.745 613.255 96 600 96C586.745 96 576 106.745 576 120C576 133.255 586.745 144 600 144C613.255 144 624 133.255 624 120Z" fill="black"/>
<path d="M672 120C672 106.745 661.255 96 648 96C634.745 96 624 106.745 624 120C624 133.255 634.745 144 648 144C661.255 144 672 133.255 672 120Z" fill="black"/>
<path d="M816 120C816 106.745 805.255 96 792 96C778.745 96 768 106.745 768 120C768 133.255 778.745 144 792 144C805.255 144 816 133.255 816 120Z" fill="black"/>
<path d="M960 120C960 106.745 949.255 96 936 96C922.745 96 912 106.745 912 120C912 133.255 922.745 144 936 144C949.255 144 960 133.255 960 120Z" fill="black"/>
<path d="M432 168C432 154.745 421.255 144 408 144C394.745 144 384 154.745 384 168C384 181.255 394.745 192 408 192C421.255 192 432 181.255 432 168Z" fill="black"/>
<path d="M528 168C528 154.745 517.255 144 504 144C490.745 144 480 154.745 480 168C480 181.255 490.745 192 504 192C517.255 192 528 181.255 528 168Z" fill="black"/>
<path d="M576 168C576 154.745 565.255 144 552 144C538.745 144 528 154.745 528 168C528 181.255 538.745 192 552 192C565.255 192 576 181.255 576 168Z" fill="black"/>
<path d="M624 168C624 154.745 613.255 144 600 144C586.745 144 576 154.745 576 168C576 181.255 586.745 192 600 192C613.255 192 624 181.255 624 168Z" fill="black"/>
<path d="M672 168C672 154.745 661.255 144 648 144C634.745 144 624 154.745 624 168C624 181.255 634.745 192 648 192C661.255 192 672 181.255 672 168Z" fill="black"/>
<path d="M720 168C720 154.745 709.255 144 696 144C682.745 144 672 154.745 672 168C672 181.255 682.745 192 696 192C709.255 192 720 181.255 720 168Z" fill="black"/>
<path d="M816 168C816 154.745 805.255 144 792 144C778.745 144 768 154.745 768 168C768 181.255 778.745 192 792 192C805.255 192 816 181.255 816 168Z" fill="black"/>
<path d="M864 168C864 154.745 853.255 144 840 144C826.745 144 816 154.745 816 168C816 181.255 826.745 192 840 192C853.255 192 864 181.255 864 168Z" fill="black"/>
<path d="M1008 168C1008 154.745 997.255 144 984 144C970.745 144 960 154.745 960 168C960 181.255 970.745 192 984 192C997.255 192 1008 181.255 1008 168Z" fill="black"/>
<path d="M480 216C480 202.745 469.255 192 456 192C442.745 192 432 202.745 432 216C432 229.255 442.745 240 456 240C469.255 240 480 229.255 480 216Z" fill="black"/>
<path d="M528 216C528 202.745 517.255 192 504 192C490.745 192 480 202.745 480 216C480 229.255 490.745 240 504 240C517.255 240 528 229.255 528 216Z" fill="black"/>
<path d="M576 216C576 202.745 565.255 192 552 192C538.745 192 528 202.745 528 216C528 229.255 538.745 240 552 240C565.255 240 576 229.255 576 216Z" fill="black"/>
<path d="M768 216C768 202.745 757.255 192 744 192C730.745 192 720 202.745 720 216C720 229.255 730.745 240 744 240C757.255 240 768 229.255 768 216Z" fill="black"/>
<path d="M816 216C816 202.745 805.255 192 792 192C778.745 192 768 202.745 768 216C768 229.255 778.745 240 792 240C805.255 240 816 229.255 816 216Z" fill="black"/>
<path d="M912 216C912 202.745 901.255 192 888 192C874.745 192 864 202.745 864 216C864 229.255 874.745 240 888 240C901.255 240 912 229.255 912 216Z" fill="black"/>
<path d="M960 216C960 202.745 949.255 192 936 192C922.745 192 912 202.745 912 216C912 229.255 922.745 240 936 240C949.255 240 960 229.255 960 216Z" fill="black"/>
<path d="M528 264C528 250.745 517.255 240 504 240C490.745 240 480 250.745 480 264C480 277.255 490.745 288 504 288C517.255 288 528 277.255 528 264Z" fill="black"/>
<path d="M576 264C576 250.745 565.255 240 552 240C538.745 240 528 250.745 528 264C528 277.255 538.745 288 552 288C565.255 288 576 277.255 576 264Z" fill="black"/>
<path d="M624 264C624 250.745 613.255 240 600 240C586.745 240 576 250.745 576 264C576 277.255 586.745 288 600 288C613.255 288 624 277.255 624 264Z" fill="black"/>
<path d="M672 264C672 250.745 661.255 240 648 240C634.745 240 624 250.745 624 264C624 277.255 634.745 288 648 288C661.255 288 672 277.255 672 264Z" fill="black"/>
<path d="M720 264C720 250.745 709.255 240 696 240C682.745 240 672 250.745 672 264C672 277.255 682.745 288 696 288C709.255 288 720 277.255 720 264Z" fill="black"/>
<path d="M816 264C816 250.745 805.255 240 792 240C778.745 240 768 250.745 768 264C768 277.255 778.745 288 792 288C805.255 288 816 277.255 816 264Z" fill="black"/>
<path d="M1008 264C1008 250.745 997.255 240 984 240C970.745 240 960 250.745 960 264C960 277.255 970.745 288 984 288C997.255 288 1008 277.255 1008 264Z" fill="black"/>
<path d="M432 312C432 298.745 421.255 288 408 288C394.745 288 384 298.745 384 312C384 325.255 394.745 336 408 336C421.255 336 432 325.255 432 312Z" fill="black"/>
<path d="M528 312C528 298.745 517.255 288 504 288C490.745 288 480 298.745 480 312C480 325.255 490.745 336 504 336C517.255 336 528 325.255 528 312Z" fill="black"/>
<path d="M624 312C624 298.745 613.255 288 600 288C586.745 288 576 298.745 576 312C576 325.255 586.745 336 600 336C613.255 336 624 325.255 624 312Z" fill="black"/>
<path d="M720 312C720 298.745 709.255 288 696 288C682.745 288 672 298.745 672 312C672 325.255 682.745 336 696 336C709.255 336 720 325.255 720 312Z" fill="black"/>
<path d="M816 312C816 298.745 805.255 288 792 288C778.745 288 768 298.745 768 312C768 325.255 778.745 336 792 336C805.255 336 816 325.255 816 312Z" fill="black"/>
<path d="M912 312C912 298.745 901.255 288 888 288C874.745 288 864 298.745 864 312C864 325.255 874.745 336 888 336C901.255 336 912 325.255 912 312Z" fill="black"/>
<path d="M1008 312C1008 298.745 997.255 288 984 288C970.745 288 960 298.745 960 312C960 325.255 970.745 336 984 336C997.255 336 1008 325.255 1008 312Z" fill="black"/>
<path d="M480 360C480 346.745 469.255 336 456 336C442.745 336 432 346.745 432 360C432 373.255 442.745 384 456 384C469.255 384 480 373.255 480 360Z" fill="black"/>
<path d="M528 360C528 346.745 517.255 336 504 336C490.745 336 480 346.745 480 360C480 373.255 490.745 384 504 384C517.255 384 528 373.255 528 360Z" fill="black"/>
<path d="M720 360C720 346.745 709.255 336 696 336C682.745 336 672 346.745 672 360C672 373.255 682.745 384 696 384C709.255 384 720 373.255 720 360Z" fill="black"/>
<path d="M768 360C768 346.745 757.255 336 744 336C730.745 336 720 346.745 720 360C720 373.255 730.745 384 744 384C757.255 384 768 373.255 768 360Z" fill="black"/>
<path d="M816 360C816 346.745 805.255 336 792 336C778.745 336 768 346.745 768 360C768 373.255 778.745 384 792 384C805.255 384 816 373.255 816 360Z" fill="black"/>
<path d="M864 360C864 346.745 853.255 336 840 336C826.745 336 816 346.745 816 360C816 373.255 826.745 384 840 384C853.255 384 864 373.255 864 360Z" fill="black"/>
<path d="M912 360C912 346.745 901.255 336 888 336C874.745 336 864 346.745 864 360C864 373.255 874.745 384 888 384C901.255 384 912 373.255 912 360Z" fill="black"/>
<path d="M192 408C192 394.745 181.255 384 168 384C154.745 384 144 394.745 144 408C144 421.255 154.745 432 168 432C181.255 432 192 421.255 192 408Z" fill="black"/>
<path d="M240 408C240 394.745 229.255 384 216 384C202.745 384 192 394.745 192 408C192 421.255 202.745 432 216 432C229.255 432 240 421.255 240 408Z" fill="black"/>
<path d="M336 408C336 394.745 325.255 384 312 384C298.745 384 288 394.745 288 408C288 421.255 298.745 432 312 432C325.255 432 336 421.255 336 408Z" fill="black"/>
<path d="M384 408C384 394.745 373.255 384 360 384C346.745 384 336 394.745 336 408C336 421.255 346.745 432 360 432C373.255 432 384 421.255 384 408Z" fill="black"/>
<path d="M480 408C480 394.745 469.255 384 456 384C442.745 384 432 394.745 432 408C432 421.255 442.745 432 456 432C469.255 432 480 421.255 480 408Z" fill="black"/>
<path d="M624 408C624 394.745 613.255 384 600 384C586.745 384 576 394.745 576 408C576 421.255 586.745 432 600 432C613.255 432 624 421.255 624 408Z" fill="black"/>
<path d="M672 408C672 394.745 661.255 384 648 384C634.745 384 624 394.745 624 408C624 421.255 634.745 432 648 432C661.255 432 672 421.255 672 408Z" fill="black"/>
<path d="M720 408C720 394.745 709.255 384 696 384C682.745 384 672 394.745 672 408C672 421.255 682.745 432 696 432C709.255 432 720 421.255 720 408Z" fill="black"/>
<path d="M768 408C768 394.745 757.255 384 744 384C730.745 384 720 394.745 720 408C720 421.255 730.745 432 744 432C757.255 432 768 421.255 768 408Z" fill="black"/>
<path d="M816 408C816 394.745 805.255 384 792 384C778.745 384 768 394.745 768 408C768 421.255 778.745 432 792 432C805.255 432 816 421.255 816 408Z" fill="black"/>
<path d="M1248 408C1248 394.745 1237.25 384 1224 384C1210.75 384 1200 394.745 1200 408C1200 421.255 1210.75 432 1224 432C1237.25 432 1248 421.255 1248 408Z" fill="black"/>
<path d="M1296 408C1296 394.745 1285.25 384 1272 384C1258.75 384 1248 394.745 1248 408C1248 421.255 1258.75 432 1272 432C1285.25 432 1296 421.255 1296 408Z" fill="black"/>
<path d="M48 456C48 442.745 37.2548 432 24 432C10.7452 432 0 442.745 0 456C0 469.255 10.7452 480 24 480C37.2548 480 48 469.255 48 456Z" fill="black"/>
<path d="M96 456C96 442.745 85.2548 432 72 432C58.7452 432 48 442.745 48 456C48 469.255 58.7452 480 72 480C85.2548 480 96 469.255 96 456Z" fill="black"/>
<path d="M144 456C144 442.745 133.255 432 120 432C106.745 432 96 442.745 96 456C96 469.255 106.745 480 120 480C133.255 480 144 469.255 144 456Z" fill="black"/>
<path d="M192 456C192 442.745 181.255 432 168 432C154.745 432 144 442.745 144 456C144 469.255 154.745 480 168 480C181.255 480 192 469.255 192 456Z" fill="black"/>
<path d="M240 456C240 442.745 229.255 432 216 432C202.745 432 192 442.745 192 456C192 469.255 202.745 480 216 480C229.255 480 240 469.255 240 456Z" fill="black"/>
<path d="M528 456C528 442.745 517.255 432 504 432C490.745 432 480 442.745 480 456C480 469.255 490.745 480 504 480C517.255 480 528 469.255 528 456Z" fill="black"/>
<path d="M672 456C672 442.745 661.255 432 648 432C634.745 432 624 442.745 624 456C624 469.255 634.745 480 648 480C661.255 480 672 469.255 672 456Z" fill="black"/>
<path d="M768 456C768 442.745 757.255 432 744 432C730.745 432 720 442.745 720 456C720 469.255 730.745 480 744 480C757.255 480 768 469.255 768 456Z" fill="black"/>
<path d="M816 456C816 442.745 805.255 432 792 432C778.745 432 768 442.745 768 456C768 469.255 778.745 480 792 480C805.255 480 816 469.255 816 456Z" fill="black"/>
<path d="M912 456C912 442.745 901.255 432 888 432C874.745 432 864 442.745 864 456C864 469.255 874.745 480 888 480C901.255 480 912 469.255 912 456Z" fill="black"/>
<path d="M1056 456C1056 442.745 1045.25 432 1032 432C1018.75 432 1008 442.745 1008 456C1008 469.255 1018.75 480 1032 480C1045.25 480 1056 469.255 1056 456Z" fill="black"/>
<path d="M1152 456C1152 442.745 1141.25 432 1128 432C1114.75 432 1104 442.745 1104 456C1104 469.255 1114.75 480 1128 480C1141.25 480 1152 469.255 1152 456Z" fill="black"/>
<path d="M1200 456C1200 442.745 1189.25 432 1176 432C1162.75 432 1152 442.745 1152 456C1152 469.255 1162.75 480 1176 480C1189.25 480 1200 469.255 1200 456Z" fill="black"/>
<path d="M1248 456C1248 442.745 1237.25 432 1224 432C1210.75 432 1200 442.745 1200 456C1200 469.255 1210.75 480 1224 480C1237.25 480 1248 469.255 1248 456Z" fill="black"/>
<path d="M1344 456C1344 442.745 1333.25 432 1320 432C1306.75 432 1296 442.745 1296 456C1296 469.255 1306.75 480 1320 480C1333.25 480 1344 469.255 1344 456Z" fill="black"/>
<path d="M48 504C48 490.745 37.2548 480 24 480C10.7452 480 0 490.745 0 504C0 517.255 10.7452 528 24 528C37.2548 528 48 517.255 48 504Z" fill="black"/>
<path d="M96 504C96 490.745 85.2548 480 72 480C58.7452 480 48 490.745 48 504C48 517.255 58.7452 528 72 528C85.2548 528 96 517.255 96 504Z" fill="black"/>
<path d="M240 504C240 490.745 229.255 480 216 480C202.745 480 192 490.745 192 504C192 517.255 202.745 528 216 528C229.255 528 240 517.255 240 504Z" fill="black"/>
<path d="M336 504C336 490.745 325.255 480 312 480C298.745 480 288 490.745 288 504C288 517.255 298.745 528 312 528C325.255 528 336 517.255 336 504Z" fill="black"/>
<path d="M384 504C384 490.745 373.255 480 360 480C346.745 480 336 490.745 336 504C336 517.255 346.745 528 360 528C373.255 528 384 517.255 384 504Z" fill="black"/>
<path d="M960 504C960 490.745 949.255 480 936 480C922.745 480 912 490.745 912 504C912 517.255 922.745 528 936 528C949.255 528 960 517.255 960 504Z" fill="black"/>
<path d="M1008 504C1008 490.745 997.255 480 984 480C970.745 480 960 490.745 960 504C960 517.255 970.745 528 984 528C997.255 528 1008 517.255 1008 504Z" fill="black"/>
<path d="M1056 504C1056 490.745 1045.25 480 1032 480C1018.75 480 1008 490.745 1008 504C1008 517.255 1018.75 528 1032 528C1045.25 528 1056 517.255 1056 504Z" fill="black"/>
<path d="M1104 504C1104 490.745 1093.25 480 1080 480C1066.75 480 1056 490.745 1056 504C1056 517.255 1066.75 528 1080 528C1093.25 528 1104 517.255 1104 504Z" fill="black"/>
<path d="M96 552C96 538.745 85.2548 528 72 528C58.7452 528 48 538.745 48 552C48 565.255 58.7452 576 72 576C85.2548 576 96 565.255 96 552Z" fill="black"/>
<path d="M192 552C192 538.745 181.255 528 168 528C154.745 528 144 538.745 144 552C144 565.255 154.745 576 168 576C181.255 576 192 565.255 192 552Z" fill="black"/>
<path d="M384 552C384 538.745 373.255 528 360 528C346.745 528 336 538.745 336 552C336 565.255 346.745 576 360 576C373.255 576 384 565.255 384 552Z" fill="black"/>
<path d="M480 552C480 538.745 469.255 528 456 528C442.745 528 432 538.745 432 552C432 565.255 442.745 576 456 576C469.255 576 480 565.255 480 552Z" fill="black"/>
<path d="M960 552C960 538.745 949.255 528 936 528C922.745 528 912 538.745 912 552C912 565.255 922.745 576 936 576C949.255 576 960 565.255 960 552Z" fill="black"/>
<path d="M1008 552C1008 538.745 997.255 528 984 528C970.745 528 960 538.745 960 552C960 565.255 970.745 576 984 576C997.255 576 1008 565.255 1008 552Z" fill="black"/>
<path d="M1248 552C1248 538.745 1237.25 528 1224 528C1210.75 528 1200 538.745 1200 552C1200 565.255 1210.75 576 1224 576C1237.25 576 1248 565.255 1248 552Z" fill="black"/>
<path d="M1392 552C1392 538.745 1381.25 528 1368 528C1354.75 528 1344 538.745 1344 552C1344 565.255 1354.75 576 1368 576C1381.25 576 1392 565.255 1392 552Z" fill="black"/>
<path d="M96 600C96 586.745 85.2548 576 72 576C58.7452 576 48 586.745 48 600C48 613.255 58.7452 624 72 624C85.2548 624 96 613.255 96 600Z" fill="black"/>
<path d="M144 600C144 586.745 133.255 576 120 576C106.745 576 96 586.745 96 600C96 613.255 106.745 624 120 624C133.255 624 144 613.255 144 600Z" fill="black"/>
<path d="M192 600C192 586.745 181.255 576 168 576C154.745 576 144 586.745 144 600C144 613.255 154.745 624 168 624C181.255 624 192 613.255 192 600Z" fill="black"/>
<path d="M240 600C240 586.745 229.255 576 216 576C202.745 576 192 586.745 192 600C192 613.255 202.745 624 216 624C229.255 624 240 613.255 240 600Z" fill="black"/>
<path d="M288 600C288 586.745 277.255 576 264 576C250.745 576 240 586.745 240 600C240 613.255 250.745 624 264 624C277.255 624 288 613.255 288 600Z" fill="black"/>
<path d="M336 600C336 586.745 325.255 576 312 576C298.745 576 288 586.745 288 600C288 613.255 298.745 624 312 624C325.255 624 336 613.255 336 600Z" fill="black"/>
<path d="M384 600C384 586.745 373.255 576 360 576C346.745 576 336 586.745 336 600C336 613.255 346.745 624 360 624C373.255 624 384 613.255 384 600Z" fill="black"/>
<path d="M432 600C432 586.745 421.255 576 408 576C394.745 576 384 586.745 384 600C384 613.255 394.745 624 408 624C421.255 624 432 613.255 432 600Z" fill="black"/>
<path d="M1008 600C1008 586.745 997.255 576 984 576C970.745 576 960 586.745 960 600C960 613.255 970.745 624 984 624C997.255 624 1008 613.255 1008 600Z" fill="black"/>
<path d="M1056 600C1056 586.745 1045.25 576 1032 576C1018.75 576 1008 586.745 1008 600C1008 613.255 1018.75 624 1032 624C1045.25 624 1056 613.255 1056 600Z" fill="black"/>
<path d="M1104 600C1104 586.745 1093.25 576 1080 576C1066.75 576 1056 586.745 1056 600C1056 613.255 1066.75 624 1080 624C1093.25 624 1104 613.255 1104 600Z" fill="black"/>
<path d="M1248 600C1248 586.745 1237.25 576 1224 576C1210.75 576 1200 586.745 1200 600C1200 613.255 1210.75 624 1224 624C1237.25 624 1248 613.255 1248 600Z" fill="black"/>
<path d="M1344 600C1344 586.745 1333.25 576 1320 576C1306.75 576 1296 586.745 1296 600C1296 613.255 1306.75 624 1320 624C1333.25 624 1344 613.255 1344 600Z" fill="black"/>
<path d="M96 648C96 634.745 85.2548 624 72 624C58.7452 624 48 634.745 48 648C48 661.255 58.7452 672 72 672C85.2548 672 96 661.255 96 648Z" fill="black"/>
<path d="M192 648C192 634.745 181.255 624 168 624C154.745 624 144 634.745 144 648C144 661.255 154.745 672 168 672C181.255 672 192 661.255 192 648Z" fill="black"/>
<path d="M240 648C240 634.745 229.255 624 216 624C202.745 624 192 634.745 192 648C192 661.255 202.745 672 216 672C229.255 672 240 661.255 240 648Z" fill="black"/>
<path d="M288 648C288 634.745 277.255 624 264 624C250.745 624 240 634.745 240 648C240 661.255 250.745 672 264 672C277.255 672 288 661.255 288 648Z" fill="black"/>
<path d="M480 648C480 634.745 469.255 624 456 624C442.745 624 432 634.745 432 648C432 661.255 442.745 672 456 672C469.255 672 480 661.255 480 648Z" fill="black"/>
<path d="M1104 648C1104 634.745 1093.25 624 1080 624C1066.75 624 1056 634.745 1056 648C1056 661.255 1066.75 672 1080 672C1093.25 672 1104 661.255 1104 648Z" fill="black"/>
<path d="M1200 648C1200 634.745 1189.25 624 1176 624C1162.75 624 1152 634.745 1152 648C1152 661.255 1162.75 672 1176 672C1189.25 672 1200 661.255 1200 648Z" fill="black"/>
<path d="M1296 648C1296 634.745 1285.25 624 1272 624C1258.75 624 1248 634.745 1248 648C1248 661.255 1258.75 672 1272 672C1285.25 672 1296 661.255 1296 648Z" fill="black"/>
<path d="M1392 648C1392 634.745 1381.25 624 1368 624C1354.75 624 1344 634.745 1344 648C1344 661.255 1354.75 672 1368 672C1381.25 672 1392 661.255 1392 648Z" fill="black"/>
<path d="M48 696C48 682.745 37.2548 672 24 672C10.7452 672 0 682.745 0 696C0 709.255 10.7452 720 24 720C37.2548 720 48 709.255 48 696Z" fill="black"/>
<path d="M240 696C240 682.745 229.255 672 216 672C202.745 672 192 682.745 192 696C192 709.255 202.745 720 216 720C229.255 720 240 709.255 240 696Z" fill="black"/>
<path d="M288 696C288 682.745 277.255 672 264 672C250.745 672 240 682.745 240 696C240 709.255 250.745 720 264 720C277.255 720 288 709.255 288 696Z" fill="black"/>
<path d="M336 696C336 682.745 325.255 672 312 672C298.745 672 288 682.745 288 696C288 709.255 298.745 720 312 720C325.255 720 336 709.255 336 696Z" fill="black"/>
<path d="M432 696C432 682.745 421.255 672 408 672C394.745 672 384 682.745 384 696C384 709.255 394.745 720 408 720C421.255 720 432 709.255 432 696Z" fill="black"/>
<path d="M480 696C480 682.745 469.255 672 456 672C442.745 672 432 682.745 432 696C432 709.255 442.745 720 456 720C469.255 720 480 709.255 480 696Z" fill="black"/>
<path d="M960 696C960 682.745 949.255 672 936 672C922.745 672 912 682.745 912 696C912 709.255 922.745 720 936 720C949.255 720 960 709.255 960 696Z" fill="black"/>
<path d="M1104 696C1104 682.745 1093.25 672 1080 672C1066.75 672 1056 682.745 1056 696C1056 709.255 1066.75 720 1080 720C1093.25 720 1104 709.255 1104 696Z" fill="black"/>
<path d="M1152 696C1152 682.745 1141.25 672 1128 672C1114.75 672 1104 682.745 1104 696C1104 709.255 1114.75 720 1128 720C1141.25 720 1152 709.255 1152 696Z" fill="black"/>
<path d="M1248 696C1248 682.745 1237.25 672 1224 672C1210.75 672 1200 682.745 1200 696C1200 709.255 1210.75 720 1224 720C1237.25 720 1248 709.255 1248 696Z" fill="black"/>
<path d="M1344 696C1344 682.745 1333.25 672 1320 672C1306.75 672 1296 682.745 1296 696C1296 709.255 1306.75 720 1320 720C1333.25 720 1344 709.255 1344 696Z" fill="black"/>
<path d="M1392 696C1392 682.745 1381.25 672 1368 672C1354.75 672 1344 682.745 1344 696C1344 709.255 1354.75 720 1368 720C1381.25 720 1392 709.255 1392 696Z" fill="black"/>
<path d="M48 744C48 730.745 37.2548 720 24 720C10.7452 720 0 730.745 0 744C0 757.255 10.7452 768 24 768C37.2548 768 48 757.255 48 744Z" fill="black"/>
<path d="M240 744C240 730.745 229.255 720 216 720C202.745 720 192 730.745 192 744C192 757.255 202.745 768 216 768C229.255 768 240 757.255 240 744Z" fill="black"/>
<path d="M384 744C384 730.745 373.255 720 360 720C346.745 720 336 730.745 336 744C336 757.255 346.745 768 360 768C373.255 768 384 757.255 384 744Z" fill="black"/>
<path d="M432 744C432 730.745 421.255 720 408 720C394.745 720 384 730.745 384 744C384 757.255 394.745 768 408 768C421.255 768 432 757.255 432 744Z" fill="black"/>
<path d="M1200 744C1200 730.745 1189.25 720 1176 720C1162.75 720 1152 730.745 1152 744C1152 757.255 1162.75 768 1176 768C1189.25 768 1200 757.255 1200 744Z" fill="black"/>
<path d="M1248 744C1248 730.745 1237.25 720 1224 720C1210.75 720 1200 730.745 1200 744C1200 757.255 1210.75 768 1224 768C1237.25 768 1248 757.255 1248 744Z" fill="black"/>
<path d="M1296 744C1296 730.745 1285.25 720 1272 720C1258.75 720 1248 730.745 1248 744C1248 757.255 1258.75 768 1272 768C1285.25 768 1296 757.255 1296 744Z" fill="black"/>
<path d="M1344 744C1344 730.745 1333.25 720 1320 720C1306.75 720 1296 730.745 1296 744C1296 757.255 1306.75 768 1320 768C1333.25 768 1344 757.255 1344 744Z" fill="black"/>
<path d="M1392 744C1392 730.745 1381.25 720 1368 720C1354.75 720 1344 730.745 1344 744C1344 757.255 1354.75 768 1368 768C1381.25 768 1392 757.255 1392 744Z" fill="black"/>
<path d="M144 792C144 778.745 133.255 768 120 768C106.745 768 96 778.745 96 792C96 805.255 106.745 816 120 816C133.255 816 144 805.255 144 792Z" fill="black"/>
<path d="M240 792C240 778.745 229.255 768 216 768C202.745 768 192 778.745 192 792C192 805.255 202.745 816 216 816C229.255 816 240 805.255 240 792Z" fill="black"/>
<path d="M336 792C336 778.745 325.255 768 312 768C298.745 768 288 778.745 288 792C288 805.255 298.745 816 312 816C325.255 816 336 805.255 336 792Z" fill="black"/>
<path d="M384 792C384 778.745 373.255 768 360 768C346.745 768 336 778.745 336 792C336 805.255 346.745 816 360 816C373.255 816 384 805.255 384 792Z" fill="black"/>
<path d="M960 792C960 778.745 949.255 768 936 768C922.745 768 912 778.745 912 792C912 805.255 922.745 816 936 816C949.255 816 960 805.255 960 792Z" fill="black"/>
<path d="M1056 792C1056 778.745 1045.25 768 1032 768C1018.75 768 1008 778.745 1008 792C1008 805.255 1018.75 816 1032 816C1045.25 816 1056 805.255 1056 792Z" fill="black"/>
<path d="M1152 792C1152 778.745 1141.25 768 1128 768C1114.75 768 1104 778.745 1104 792C1104 805.255 1114.75 816 1128 816C1141.25 816 1152 805.255 1152 792Z" fill="black"/>
<path d="M1248 792C1248 778.745 1237.25 768 1224 768C1210.75 768 1200 778.745 1200 792C1200 805.255 1210.75 816 1224 816C1237.25 816 1248 805.255 1248 792Z" fill="black"/>
<path d="M1344 792C1344 778.745 1333.25 768 1320 768C1306.75 768 1296 778.745 1296 792C1296 805.255 1306.75 816 1320 816C1333.25 816 1344 805.255 1344 792Z" fill="black"/>
<path d="M1392 792C1392 778.745 1381.25 768 1368 768C1354.75 768 1344 778.745 1344 792C1344 805.255 1354.75 816 1368 816C1381.25 816 1392 805.255 1392 792Z" fill="black"/>
<path d="M48 840C48 826.745 37.2548 816 24 816C10.7452 816 0 826.745 0 840C0 853.255 10.7452 864 24 864C37.2548 864 48 853.255 48 840Z" fill="black"/>
<path d="M144 840C144 826.745 133.255 816 120 816C106.745 816 96 826.745 96 840C96 853.255 106.745 864 120 864C133.255 864 144 853.255 144 840Z" fill="black"/>
<path d="M288 840C288 826.745 277.255 816 264 816C250.745 816 240 826.745 240 840C240 853.255 250.745 864 264 864C277.255 864 288 853.255 288 840Z" fill="black"/>
<path d="M384 840C384 826.745 373.255 816 360 816C346.745 816 336 826.745 336 840C336 853.255 346.745 864 360 864C373.255 864 384 853.255 384 840Z" fill="black"/>
<path d="M432 840C432 826.745 421.255 816 408 816C394.745 816 384 826.745 384 840C384 853.255 394.745 864 408 864C421.255 864 432 853.255 432 840Z" fill="black"/>
<path d="M1104 840C1104 826.745 1093.25 816 1080 816C1066.75 816 1056 826.745 1056 840C1056 853.255 1066.75 864 1080 864C1093.25 864 1104 853.255 1104 840Z" fill="black"/>
<path d="M1152 840C1152 826.745 1141.25 816 1128 816C1114.75 816 1104 826.745 1104 840C1104 853.255 1114.75 864 1128 864C1141.25 864 1152 853.255 1152 840Z" fill="black"/>
<path d="M1200 840C1200 826.745 1189.25 816 1176 816C1162.75 816 1152 826.745 1152 840C1152 853.255 1162.75 864 1176 864C1189.25 864 1200 853.255 1200 840Z" fill="black"/>
<path d="M1248 840C1248 826.745 1237.25 816 1224 816C1210.75 816 1200 826.745 1200 840C1200 853.255 1210.75 864 1224 864C1237.25 864 1248 853.255 1248 840Z" fill="black"/>
<path d="M48 888C48 874.745 37.2548 864 24 864C10.7452 864 0 874.745 0 888C0 901.255 10.7452 912 24 912C37.2548 912 48 901.255 48 888Z" fill="black"/>
<path d="M96 888C96 874.745 85.2548 864 72 864C58.7452 864 48 874.745 48 888C48 901.255 58.7452 912 72 912C85.2548 912 96 901.255 96 888Z" fill="black"/>
<path d="M192 888C192 874.745 181.255 864 168 864C154.745 864 144 874.745 144 888C144 901.255 154.745 912 168 912C181.255 912 192 901.255 192 888Z" fill="black"/>
<path d="M336 888C336 874.745 325.255 864 312 864C298.745 864 288 874.745 288 888C288 901.255 298.745 912 312 912C325.255 912 336 901.255 336 888Z" fill="black"/>
<path d="M432 888C432 874.745 421.255 864 408 864C394.745 864 384 874.745 384 888C384 901.255 394.745 912 408 912C421.255 912 432 901.255 432 888Z" fill="black"/>
<path d="M480 888C480 874.745 469.255 864 456 864C442.745 864 432 874.745 432 888C432 901.255 442.745 912 456 912C469.255 912 480 901.255 480 888Z" fill="black"/>
<path d="M960 888C960 874.745 949.255 864 936 864C922.745 864 912 874.745 912 888C912 901.255 922.745 912 936 912C949.255 912 960 901.255 960 888Z" fill="black"/>
<path d="M1152 888C1152 874.745 1141.25 864 1128 864C1114.75 864 1104 874.745 1104 888C1104 901.255 1114.75 912 1128 912C1141.25 912 1152 901.255 1152 888Z" fill="black"/>
<path d="M1248 888C1248 874.745 1237.25 864 1224 864C1210.75 864 1200 874.745 1200 888C1200 901.255 1210.75 912 1224 912C1237.25 912 1248 901.255 1248 888Z" fill="black"/>
<path d="M1296 888C1296 874.745 1285.25 864 1272 864C1258.75 864 1248 874.745 1248 888C1248 901.255 1258.75 912 1272 912C1285.25 912 1296 901.255 1296 888Z" fill="black"/>
<path d="M1392 888C1392 874.745 1381.25 864 1368 864C1354.75 864 1344 874.745 1344 888C1344 901.255 1354.75 912 1368 912C1381.25 912 1392 901.255 1392 888Z" fill="black"/>
<path d="M48 936C48 922.745 37.2548 912 24 912C10.7452 912 0 922.745 0 936C0 949.255 10.7452 960 24 960C37.2548 960 48 949.255 48 936Z" fill="black"/>
<path d="M96 936C96 922.745 85.2548 912 72 912C58.7452 912 48 922.745 48 936C48 949.255 58.7452 960 72 960C85.2548 960 96 949.255 96 936Z" fill="black"/>
<path d="M144 936C144 922.745 133.255 912 120 912C106.745 912 96 922.745 96 936C96 949.255 106.745 960 120 960C133.255 960 144 949.255 144 936Z" fill="black"/>
<path d="M240 936C240 922.745 229.255 912 216 912C202.745 912 192 922.745 192 936C192 949.255 202.745 960 216 960C229.255 960 240 949.255 240 936Z" fill="black"/>
<path d="M384 936C384 922.745 373.255 912 360 912C346.745 912 336 922.745 336 936C336 949.255 346.745 960 360 960C373.255 960 384 949.255 384 936Z" fill="black"/>
<path d="M480 936C480 922.745 469.255 912 456 912C442.745 912 432 922.745 432 936C432 949.255 442.745 960 456 960C469.255 960 480 949.255 480 936Z" fill="black"/>
<path d="M672 936C672 922.745 661.255 912 648 912C634.745 912 624 922.745 624 936C624 949.255 634.745 960 648 960C661.255 960 672 949.255 672 936Z" fill="black"/>
<path d="M720 936C720 922.745 709.255 912 696 912C682.745 912 672 922.745 672 936C672 949.255 682.745 960 696 960C709.255 960 720 949.255 720 936Z" fill="black"/>
<path d="M816 936C816 922.745 805.255 912 792 912C778.745 912 768 922.745 768 936C768 949.255 778.745 960 792 960C805.255 960 816 949.255 816 936Z" fill="black"/>
<path d="M864 936C864 922.745 853.255 912 840 912C826.745 912 816 922.745 816 936C816 949.255 826.745 960 840 960C853.255 960 864 949.255 864 936Z" fill="black"/>
<path d="M912 936C912 922.745 901.255 912 888 912C874.745 912 864 922.745 864 936C864 949.255 874.745 960 888 960C901.255 960 912 949.255 912 936Z" fill="black"/>
<path d="M960 936C960 922.745 949.255 912 936 912C922.745 912 912 922.745 912 936C912 949.255 922.745 960 936 960C949.255 960 960 949.255 960 936Z" fill="black"/>
<path d="M1008 936C1008 922.745 997.255 912 984 912C970.745 912 960 922.745 960 936C960 949.255 970.745 960 984 960C997.255 960 1008 949.255 1008 936Z" fill="black"/>
<path d="M1056 936C1056 922.745 1045.25 912 1032 912C1018.75 912 1008 922.745 1008 936C1008 949.255 1018.75 960 1032 960C1045.25 960 1056 949.255 1056 936Z" fill="black"/>
<path d="M1104 936C1104 922.745 1093.25 912 1080 912C1066.75 912 1056 922.745 1056 936C1056 949.255 1066.75 960 1080 960C1093.25 960 1104 949.255 1104 936Z" fill="black"/>
<path d="M1152 936C1152 922.745 1141.25 912 1128 912C1114.75 912 1104 922.745 1104 936C1104 949.255 1114.75 960 1128 960C1141.25 960 1152 949.255 1152 936Z" fill="black"/>
<path d="M1200 936C1200 922.745 1189.25 912 1176 912C1162.75 912 1152 922.745 1152 936C1152 949.255 1162.75 960 1176 960C1189.25 960 1200 949.255 1200 936Z" fill="black"/>
<path d="M1296 936C1296 922.745 1285.25 912 1272 912C1258.75 912 1248 922.745 1248 936C1248 949.255 1258.75 960 1272 960C1285.25 960 1296 949.255 1296 936Z" fill="black"/>
<path d="M1344 936C1344 922.745 1333.25 912 1320 912C1306.75 912 1296 922.745 1296 936C1296 949.255 1306.75 960 1320 960C1333.25 960 1344 949.255 1344 936Z" fill="black"/>
<path d="M1392 936C1392 922.745 1381.25 912 1368 912C1354.75 912 1344 922.745 1344 936C1344 949.255 1354.75 960 1368 960C1381.25 960 1392 949.255 1392 936Z" fill="black"/>
<path d="M48 984C48 970.745 37.2548 960 24 960C10.7452 960 0 970.745 0 984C0 997.255 10.7452 1008 24 1008C37.2548 1008 48 997.255 48 984Z" fill="black"/>
<path d="M96 984C96 970.745 85.2548 960 72 960C58.7452 960 48 970.745 48 984C48 997.255 58.7452 1008 72 1008C85.2548 1008 96 997.255 96 984Z" fill="black"/>
<path d="M144 984C144 970.745 133.255 960 120 960C106.745 960 96 970.745 96 984C96 997.255 106.745 1008 120 1008C133.255 1008 144 997.255 144 984Z" fill="black"/>
<path d="M288 984C288 970.745 277.255 960 264 960C250.745 960 240 970.745 240 984C240 997.255 250.745 1008 264 1008C277.255 1008 288 997.255 288 984Z" fill="black"/>
<path d="M336 984C336 970.745 325.255 960 312 960C298.745 960 288 970.745 288 984C288 997.255 298.745 1008 312 1008C325.255 1008 336 997.255 336 984Z" fill="black"/>
<path d="M384 984C384 970.745 373.255 960 360 960C346.745 960 336 970.745 336 984C336 997.255 346.745 1008 360 1008C373.255 1008 384 997.255 384 984Z" fill="black"/>
<path d="M432 984C432 970.745 421.255 960 408 960C394.745 960 384 970.745 384 984C384 997.255 394.745 1008 408 1008C421.255 1008 432 997.255 432 984Z" fill="black"/>
<path d="M480 984C480 970.745 469.255 960 456 960C442.745 960 432 970.745 432 984C432 997.255 442.745 1008 456 1008C469.255 1008 480 997.255 480 984Z" fill="black"/>
<path d="M576 984C576 970.745 565.255 960 552 960C538.745 960 528 970.745 528 984C528 997.255 538.745 1008 552 1008C565.255 1008 576 997.255 576 984Z" fill="black"/>
<path d="M672 984C672 970.745 661.255 960 648 960C634.745 960 624 970.745 624 984C624 997.255 634.745 1008 648 1008C661.255 1008 672 997.255 672 984Z" fill="black"/>
<path d="M864 984C864 970.745 853.255 960 840 960C826.745 960 816 970.745 816 984C816 997.255 826.745 1008 840 1008C853.255 1008 864 997.255 864 984Z" fill="black"/>
<path d="M960 984C960 970.745 949.255 960 936 960C922.745 960 912 970.745 912 984C912 997.255 922.745 1008 936 1008C949.255 1008 960 997.255 960 984Z" fill="black"/>
<path d="M1008 984C1008 970.745 997.255 960 984 960C970.745 960 960 970.745 960 984C960 997.255 970.745 1008 984 1008C997.255 1008 1008 997.255 1008 984Z" fill="black"/>
<path d="M1056 984C1056 970.745 1045.25 960 1032 960C1018.75 960 1008 970.745 1008 984C1008 997.255 1018.75 1008 1032 1008C1045.25 1008 1056 997.255 1056 984Z" fill="black"/>
<path d="M1104 984C1104 970.745 1093.25 960 1080 960C1066.75 960 1056 970.745 1056 984C1056 997.255 1066.75 1008 1080 1008C1093.25 1008 1104 997.255 1104 984Z" fill="black"/>
<path d="M1152 984C1152 970.745 1141.25 960 1128 960C1114.75 960 1104 970.745 1104 984C1104 997.255 1114.75 1008 1128 1008C1141.25 1008 1152 997.255 1152 984Z" fill="black"/>
<path d="M1200 984C1200 970.745 1189.25 960 1176 960C1162.75 960 1152 970.745 1152 984C1152 997.255 1162.75 1008 1176 1008C1189.25 1008 1200 997.255 1200 984Z" fill="black"/>
<path d="M1248 984C1248 970.745 1237.25 960 1224 960C1210.75 960 1200 970.745 1200 984C1200 997.255 1210.75 1008 1224 1008C1237.25 1008 1248 997.255 1248 984Z" fill="black"/>
<path d="M1296 984C1296 970.745 1285.25 960 1272 960C1258.75 960 1248 970.745 1248 984C1248 997.255 1258.75 1008 1272 1008C1285.25 1008 1296 997.255 1296 984Z" fill="black"/>
<path d="M1344 984C1344 970.745 1333.25 960 1320 960C1306.75 960 1296 970.745 1296 984C1296 997.255 1306.75 1008 1320 1008C1333.25 1008 1344 997.255 1344 984Z" fill="black"/>
<path d="M1392 984C1392 970.745 1381.25 960 1368 960C1354.75 960 1344 970.745 1344 984C1344 997.255 1354.75 1008 1368 1008C1381.25 1008 1392 997.255 1392 984Z" fill="black"/>
<path d="M432 1032C432 1018.75 421.255 1008 408 1008C394.745 1008 384 1018.75 384 1032C384 1045.25 394.745 1056 408 1056C421.255 1056 432 1045.25 432 1032Z" fill="black"/>
<path d="M576 1032C576 1018.75 565.255 1008 552 1008C538.745 1008 528 1018.75 528 1032C528 1045.25 538.745 1056 552 1056C565.255 1056 576 1045.25 576 1032Z" fill="black"/>
<path d="M672 1032C672 1018.75 661.255 1008 648 1008C634.745 1008 624 1018.75 624 1032C624 1045.25 634.745 1056 648 1056C661.255 1056 672 1045.25 672 1032Z" fill="black"/>
<path d="M720 1032C720 1018.75 709.255 1008 696 1008C682.745 1008 672 1018.75 672 1032C672 1045.25 682.745 1056 696 1056C709.255 1056 720 1045.25 720 1032Z" fill="black"/>
<path d="M768 1032C768 1018.75 757.255 1008 744 1008C730.745 1008 720 1018.75 720 1032C720 1045.25 730.745 1056 744 1056C757.255 1056 768 1045.25 768 1032Z" fill="black"/>
<path d="M912 1032C912 1018.75 901.255 1008 888 1008C874.745 1008 864 1018.75 864 1032C864 1045.25 874.745 1056 888 1056C901.255 1056 912 1045.25 912 1032Z" fill="black"/>
<path d="M1008 1032C1008 1018.75 997.255 1008 984 1008C970.745 1008 960 1018.75 960 1032C960 1045.25 970.745 1056 984 1056C997.255 1056 1008 1045.25 1008 1032Z" fill="black"/>
<path d="M1200 1032C1200 1018.75 1189.25 1008 1176 1008C1162.75 1008 1152 1018.75 1152 1032C1152 1045.25 1162.75 1056 1176 1056C1189.25 1056 1200 1045.25 1200 1032Z" fill="black"/>
<path d="M1248 1032C1248 1018.75 1237.25 1008 1224 1008C1210.75 1008 1200 1018.75 1200 1032C1200 1045.25 1210.75 1056 1224 1056C1237.25 1056 1248 1045.25 1248 1032Z" fill="black"/>
<path d="M1296 1032C1296 1018.75 1285.25 1008 1272 1008C1258.75 1008 1248 1018.75 1248 1032C1248 1045.25 1258.75 1056 1272 1056C1285.25 1056 1296 1045.25 1296 1032Z" fill="black"/>
<path d="M432 1080C432 1066.75 421.255 1056 408 1056C394.745 1056 384 1066.75 384 1080C384 1093.25 394.745 1104 408 1104C421.255 1104 432 1093.25 432 1080Z" fill="black"/>
<path d="M480 1080C480 1066.75 469.255 1056 456 1056C442.745 1056 432 1066.75 432 1080C432 1093.25 442.745 1104 456 1104C469.255 1104 480 1093.25 480 1080Z" fill="black"/>
<path d="M528 1080C528 1066.75 517.255 1056 504 1056C490.745 1056 480 1066.75 480 1080C480 1093.25 490.745 1104 504 1104C517.255 1104 528 1093.25 528 1080Z" fill="black"/>
<path d="M576 1080C576 1066.75 565.255 1056 552 1056C538.745 1056 528 1066.75 528 1080C528 1093.25 538.745 1104 552 1104C565.255 1104 576 1093.25 576 1080Z" fill="black"/>
<path d="M624 1080C624 1066.75 613.255 1056 600 1056C586.745 1056 576 1066.75 576 1080C576 1093.25 586.745 1104 600 1104C613.255 1104 624 1093.25 624 1080Z" fill="black"/>
<path d="M672 1080C672 1066.75 661.255 1056 648 1056C634.745 1056 624 1066.75 624 1080C624 1093.25 634.745 1104 648 1104C661.255 1104 672 1093.25 672 1080Z" fill="black"/>
<path d="M816 1080C816 1066.75 805.255 1056 792 1056C778.745 1056 768 1066.75 768 1080C768 1093.25 778.745 1104 792 1104C805.255 1104 816 1093.25 816 1080Z" fill="black"/>
<path d="M864 1080C864 1066.75 853.255 1056 840 1056C826.745 1056 816 1066.75 816 1080C816 1093.25 826.745 1104 840 1104C853.255 1104 864 1093.25 864 1080Z" fill="black"/>
<path d="M960 1080C960 1066.75 949.255 1056 936 1056C922.745 1056 912 1066.75 912 1080C912 1093.25 922.745 1104 936 1104C949.255 1104 960 1093.25 960 1080Z" fill="black"/>
<path d="M1008 1080C1008 1066.75 997.255 1056 984 1056C970.745 1056 960 1066.75 960 1080C960 1093.25 970.745 1104 984 1104C997.255 1104 1008 1093.25 1008 1080Z" fill="black"/>
<path d="M1104 1080C1104 1066.75 1093.25 1056 1080 1056C1066.75 1056 1056 1066.75 1056 1080C1056 1093.25 1066.75 1104 1080 1104C1093.25 1104 1104 1093.25 1104 1080Z" fill="black"/>
<path d="M1200 1080C1200 1066.75 1189.25 1056 1176 1056C1162.75 1056 1152 1066.75 1152 1080C1152 1093.25 1162.75 1104 1176 1104C1189.25 1104 1200 1093.25 1200 1080Z" fill="black"/>
<path d="M1296 1080C1296 1066.75 1285.25 1056 1272 1056C1258.75 1056 1248 1066.75 1248 1080C1248 1093.25 1258.75 1104 1272 1104C1285.25 1104 1296 1093.25 1296 1080Z" fill="black"/>
<path d="M480 1128C480 1114.75 469.255 1104 456 1104C442.745 1104 432 1114.75 432 1128C432 1141.25 442.745 1152 456 1152C469.255 1152 480 1141.25 480 1128Z" fill="black"/>
<path d="M528 1128C528 1114.75 517.255 1104 504 1104C490.745 1104 480 1114.75 480 1128C480 1141.25 490.745 1152 504 1152C517.255 1152 528 1141.25 528 1128Z" fill="black"/>
<path d="M624 1128C624 1114.75 613.255 1104 600 1104C586.745 1104 576 1114.75 576 1128C576 1141.25 586.745 1152 600 1152C613.255 1152 624 1141.25 624 1128Z" fill="black"/>
<path d="M672 1128C672 1114.75 661.255 1104 648 1104C634.745 1104 624 1114.75 624 1128C624 1141.25 634.745 1152 648 1152C661.255 1152 672 1141.25 672 1128Z" fill="black"/>
<path d="M768 1128C768 1114.75 757.255 1104 744 1104C730.745 1104 720 1114.75 720 1128C720 1141.25 730.745 1152 744 1152C757.255 1152 768 1141.25 768 1128Z" fill="black"/>
<path d="M816 1128C816 1114.75 805.255 1104 792 1104C778.745 1104 768 1114.75 768 1128C768 1141.25 778.745 1152 792 1152C805.255 1152 816 1141.25 816 1128Z" fill="black"/>
<path d="M864 1128C864 1114.75 853.255 1104 840 1104C826.745 1104 816 1114.75 816 1128C816 1141.25 826.745 1152 840 1152C853.255 1152 864 1141.25 864 1128Z" fill="black"/>
<path d="M960 1128C960 1114.75 949.255 1104 936 1104C922.745 1104 912 1114.75 912 1128C912 1141.25 922.745 1152 936 1152C949.255 1152 960 1141.25 960 1128Z" fill="black"/>
<path d="M1008 1128C1008 1114.75 997.255 1104 984 1104C970.745 1104 960 1114.75 960 1128C960 1141.25 970.745 1152 984 1152C997.255 1152 1008 1141.25 1008 1128Z" fill="black"/>
<path d="M1200 1128C1200 1114.75 1189.25 1104 1176 1104C1162.75 1104 1152 1114.75 1152 1128C1152 1141.25 1162.75 1152 1176 1152C1189.25 1152 1200 1141.25 1200 1128Z" fill="black"/>
<path d="M1248 1128C1248 1114.75 1237.25 1104 1224 1104C1210.75 1104 1200 1114.75 1200 1128C1200 1141.25 1210.75 1152 1224 1152C1237.25 1152 1248 1141.25 1248 1128Z" fill="black"/>
<path d="M1344 1128C1344 1114.75 1333.25 1104 1320 1104C1306.75 1104 1296 1114.75 1296 1128C1296 1141.25 1306.75 1152 1320 1152C1333.25 1152 1344 1141.25 1344 1128Z" fill="black"/>
<path d="M432 1176C432 1162.75 421.255 1152 408 1152C394.745 1152 384 1162.75 384 1176C384 1189.25 394.745 1200 408 1200C421.255 1200 432 1189.25 432 1176Z" fill="black"/>
<path d="M480 1176C480 1162.75 469.255 1152 456 1152C442.745 1152 432 1162.75 432 1176C432 1189.25 442.745 1200 456 1200C469.255 1200 480 1189.25 480 1176Z" fill="black"/>
<path d="M576 1176C576 1162.75 565.255 1152 552 1152C538.745 1152 528 1162.75 528 1176C528 1189.25 538.745 1200 552 1200C565.255 1200 576 1189.25 576 1176Z" fill="black"/>
<path d="M720 1176C720 1162.75 709.255 1152 696 1152C682.745 1152 672 1162.75 672 1176C672 1189.25 682.745 1200 696 1200C709.255 1200 720 1189.25 720 1176Z" fill="black"/>
<path d="M768 1176C768 1162.75 757.255 1152 744 1152C730.745 1152 720 1162.75 720 1176C720 1189.25 730.745 1200 744 1200C757.255 1200 768 1189.25 768 1176Z" fill="black"/>
<path d="M816 1176C816 1162.75 805.255 1152 792 1152C778.745 1152 768 1162.75 768 1176C768 1189.25 778.745 1200 792 1200C805.255 1200 816 1189.25 816 1176Z" fill="black"/>
<path d="M864 1176C864 1162.75 853.255 1152 840 1152C826.745 1152 816 1162.75 816 1176C816 1189.25 826.745 1200 840 1200C853.255 1200 864 1189.25 864 1176Z" fill="black"/>
<path d="M960 1176C960 1162.75 949.255 1152 936 1152C922.745 1152 912 1162.75 912 1176C912 1189.25 922.745 1200 936 1200C949.255 1200 960 1189.25 960 1176Z" fill="black"/>
<path d="M1008 1176C1008 1162.75 997.255 1152 984 1152C970.745 1152 960 1162.75 960 1176C960 1189.25 970.745 1200 984 1200C997.255 1200 1008 1189.25 1008 1176Z" fill="black"/>
<path d="M1056 1176C1056 1162.75 1045.25 1152 1032 1152C1018.75 1152 1008 1162.75 1008 1176C1008 1189.25 1018.75 1200 1032 1200C1045.25 1200 1056 1189.25 1056 1176Z" fill="black"/>
<path d="M1104 1176C1104 1162.75 1093.25 1152 1080 1152C1066.75 1152 1056 1162.75 1056 1176C1056 1189.25 1066.75 1200 1080 1200C1093.25 1200 1104 1189.25 1104 1176Z" fill="black"/>
<path d="M1152 1176C1152 1162.75 1141.25 1152 1128 1152C1114.75 1152 1104 1162.75 1104 1176C1104 1189.25 1114.75 1200 1128 1200C1141.25 1200 1152 1189.25 1152 1176Z" fill="black"/>
<path d="M1200 1176C1200 1162.75 1189.25 1152 1176 1152C1162.75 1152 1152 1162.75 1152 1176C1152 1189.25 1162.75 1200 1176 1200C1189.25 1200 1200 1189.25 1200 1176Z" fill="black"/>
<path d="M432 1224C432 1210.75 421.255 1200 408 1200C394.745 1200 384 1210.75 384 1224C384 1237.25 394.745 1248 408 1248C421.255 1248 432 1237.25 432 1224Z" fill="black"/>
<path d="M480 1224C480 1210.75 469.255 1200 456 1200C442.745 1200 432 1210.75 432 1224C432 1237.25 442.745 1248 456 1248C469.255 1248 480 1237.25 480 1224Z" fill="black"/>
<path d="M528 1224C528 1210.75 517.255 1200 504 1200C490.745 1200 480 1210.75 480 1224C480 1237.25 490.745 1248 504 1248C517.255 1248 528 1237.25 528 1224Z" fill="black"/>
<path d="M768 1224C768 1210.75 757.255 1200 744 1200C730.745 1200 720 1210.75 720 1224C720 1237.25 730.745 1248 744 1248C757.255 1248 768 1237.25 768 1224Z" fill="black"/>
<path d="M816 1224C816 1210.75 805.255 1200 792 1200C778.745 1200 768 1210.75 768 1224C768 1237.25 778.745 1248 792 1248C805.255 1248 816 1237.25 816 1224Z" fill="black"/>
<path d="M912 1224C912 1210.75 901.255 1200 888 1200C874.745 1200 864 1210.75 864 1224C864 1237.25 874.745 1248 888 1248C901.255 1248 912 1237.25 912 1224Z" fill="black"/>
<path d="M1152 1224C1152 1210.75 1141.25 1200 1128 1200C1114.75 1200 1104 1210.75 1104 1224C1104 1237.25 1114.75 1248 1128 1248C1141.25 1248 1152 1237.25 1152 1224Z" fill="black"/>
<path d="M1296 1224C1296 1210.75 1285.25 1200 1272 1200C1258.75 1200 1248 1210.75 1248 1224C1248 1237.25 1258.75 1248 1272 1248C1285.25 1248 1296 1237.25 1296 1224Z" fill="black"/>
<path d="M1344 1224C1344 1210.75 1333.25 1200 1320 1200C1306.75 1200 1296 1210.75 1296 1224C1296 1237.25 1306.75 1248 1320 1248C1333.25 1248 1344 1237.25 1344 1224Z" fill="black"/>
<path d="M528 1272C528 1258.75 517.255 1248 504 1248C490.745 1248 480 1258.75 480 1272C480 1285.25 490.745 1296 504 1296C517.255 1296 528 1285.25 528 1272Z" fill="black"/>
<path d="M624 1272C624 1258.75 613.255 1248 600 1248C586.745 1248 576 1258.75 576 1272C576 1285.25 586.745 1296 600 1296C613.255 1296 624 1285.25 624 1272Z" fill="black"/>
<path d="M720 1272C720 1258.75 709.255 1248 696 1248C682.745 1248 672 1258.75 672 1272C672 1285.25 682.745 1296 696 1296C709.255 1296 720 1285.25 720 1272Z" fill="black"/>
<path d="M768 1272C768 1258.75 757.255 1248 744 1248C730.745 1248 720 1258.75 720 1272C720 1285.25 730.745 1296 744 1296C757.255 1296 768 1285.25 768 1272Z" fill="black"/>
<path d="M816 1272C816 1258.75 805.255 1248 792 1248C778.745 1248 768 1258.75 768 1272C768 1285.25 778.745 1296 792 1296C805.255 1296 816 1285.25 816 1272Z" fill="black"/>
<path d="M912 1272C912 1258.75 901.255 1248 888 1248C874.745 1248 864 1258.75 864 1272C864 1285.25 874.745 1296 888 1296C901.255 1296 912 1285.25 912 1272Z" fill="black"/>
<path d="M1008 1272C1008 1258.75 997.255 1248 984 1248C970.745 1248 960 1258.75 960 1272C960 1285.25 970.745 1296 984 1296C997.255 1296 1008 1285.25 1008 1272Z" fill="black"/>
<path d="M1056 1272C1056 1258.75 1045.25 1248 1032 1248C1018.75 1248 1008 1258.75 1008 1272C1008 1285.25 1018.75 1296 1032 1296C1045.25 1296 1056 1285.25 1056 1272Z" fill="black"/>
<path d="M1152 1272C1152 1258.75 1141.25 1248 1128 1248C1114.75 1248 1104 1258.75 1104 1272C1104 1285.25 1114.75 1296 1128 1296C1141.25 1296 1152 1285.25 1152 1272Z" fill="black"/>
<path d="M1200 1272C1200 1258.75 1189.25 1248 1176 1248C1162.75 1248 1152 1258.75 1152 1272C1152 1285.25 1162.75 1296 1176 1296C1189.25 1296 1200 1285.25 1200 1272Z" fill="black"/>
<path d="M1344 1272C1344 1258.75 1333.25 1248 1320 1248C1306.75 1248 1296 1258.75 1296 1272C1296 1285.25 1306.75 1296 1320 1296C1333.25 1296 1344 1285.25 1344 1272Z" fill="black"/>
<path d="M1392 1272C1392 1258.75 1381.25 1248 1368 1248C1354.75 1248 1344 1258.75 1344 1272C1344 1285.25 1354.75 1296 1368 1296C1381.25 1296 1392 1285.25 1392 1272Z" fill="black"/>
<path d="M576 1320C576 1306.75 565.255 1296 552 1296C538.745 1296 528 1306.75 528 1320C528 1333.25 538.745 1344 552 1344C565.255 1344 576 1333.25 576 1320Z" fill="black"/>
<path d="M672 1320C672 1306.75 661.255 1296 648 1296C634.745 1296 624 1306.75 624 1320C624 1333.25 634.745 1344 648 1344C661.255 1344 672 1333.25 672 1320Z" fill="black"/>
<path d="M768 1320C768 1306.75 757.255 1296 744 1296C730.745 1296 720 1306.75 720 1320C720 1333.25 730.745 1344 744 1344C757.255 1344 768 1333.25 768 1320Z" fill="black"/>
<path d="M816 1320C816 1306.75 805.255 1296 792 1296C778.745 1296 768 1306.75 768 1320C768 1333.25 778.745 1344 792 1344C805.255 1344 816 1333.25 816 1320Z" fill="black"/>
<path d="M1008 1320C1008 1306.75 997.255 1296 984 1296C970.745 1296 960 1306.75 960 1320C960 1333.25 970.745 1344 984 1344C997.255 1344 1008 1333.25 1008 1320Z" fill="black"/>
<path d="M1056 1320C1056 1306.75 1045.25 1296 1032 1296C1018.75 1296 1008 1306.75 1008 1320C1008 1333.25 1018.75 1344 1032 1344C1045.25 1344 1056 1333.25 1056 1320Z" fill="black"/>
<path d="M1200 1320C1200 1306.75 1189.25 1296 1176 1296C1162.75 1296 1152 1306.75 1152 1320C1152 1333.25 1162.75 1344 1176 1344C1189.25 1344 1200 1333.25 1200 1320Z" fill="black"/>
<path d="M1248 1320C1248 1306.75 1237.25 1296 1224 1296C1210.75 1296 1200 1306.75 1200 1320C1200 1333.25 1210.75 1344 1224 1344C1237.25 1344 1248 1333.25 1248 1320Z" fill="black"/>
<path d="M1296 1320C1296 1306.75 1285.25 1296 1272 1296C1258.75 1296 1248 1306.75 1248 1320C1248 1333.25 1258.75 1344 1272 1344C1285.25 1344 1296 1333.25 1296 1320Z" fill="black"/>
<path d="M1392 1320C1392 1306.75 1381.25 1296 1368 1296C1354.75 1296 1344 1306.75 1344 1320C1344 1333.25 1354.75 1344 1368 1344C1381.25 1344 1392 1333.25 1392 1320Z" fill="black"/>
<path d="M528 1368C528 1354.75 517.255 1344 504 1344C490.745 1344 480 1354.75 480 1368C480 1381.25 490.745 1392 504 1392C517.255 1392 528 1381.25 528 1368Z" fill="black"/>
<path d="M576 1368C576 1354.75 565.255 1344 552 1344C538.745 1344 528 1354.75 528 1368C528 1381.25 538.745 1392 552 1392C565.255 1392 576 1381.25 576 1368Z" fill="black"/>
<path d="M864 1368C864 1354.75 853.255 1344 840 1344C826.745 1344 816 1354.75 816 1368C816 1381.25 826.745 1392 840 1392C853.255 1392 864 1381.25 864 1368Z" fill="black"/>
<path d="M960 1368C960 1354.75 949.255 1344 936 1344C922.745 1344 912 1354.75 912 1368C912 1381.25 922.745 1392 936 1392C949.255 1392 960 1381.25 960 1368Z" fill="black"/>
<path d="M1056 1368C1056 1354.75 1045.25 1344 1032 1344C1018.75 1344 1008 1354.75 1008 1368C1008 1381.25 1018.75 1392 1032 1392C1045.25 1392 1056 1381.25 1056 1368Z" fill="black"/>
<path d="M1104 1368C1104 1354.75 1093.25 1344 1080 1344C1066.75 1344 1056 1354.75 1056 1368C1056 1381.25 1066.75 1392 1080 1392C1093.25 1392 1104 1381.25 1104 1368Z" fill="black"/>
<path d="M1152 1368C1152 1354.75 1141.25 1344 1128 1344C1114.75 1344 1104 1354.75 1104 1368C1104 1381.25 1114.75 1392 1128 1392C1141.25 1392 1152 1381.25 1152 1368Z" fill="black"/>
<path d="M1200 1368C1200 1354.75 1189.25 1344 1176 1344C1162.75 1344 1152 1354.75 1152 1368C1152 1381.25 1162.75 1392 1176 1392C1189.25 1392 1200 1381.25 1200 1368Z" fill="black"/>
<path d="M1248 1368C1248 1354.75 1237.25 1344 1224 1344C1210.75 1344 1200 1354.75 1200 1368C1200 1381.25 1210.75 1392 1224 1392C1237.25 1392 1248 1381.25 1248 1368Z" fill="black"/>
<circle cx="160" cy="160" r="160" fill="black"/>
<path d="M268.667 159.524C268.667 219.276 220.228 267.714 160.476 267.714C100.724 267.714 52.2857 219.276 52.2857 159.524C52.2857 99.7719 100.724 51.3334 160.476 51.3334C220.228 51.3334 268.667 99.7719 268.667 159.524Z" fill="black" stroke="white" stroke-width="36"/>
<circle cx="160" cy="1232" r="160" fill="black"/>
<path d="M268.667 1231.52C268.667 1291.28 220.228 1339.71 160.476 1339.71C100.724 1339.71 52.2857 1291.28 52.2857 1231.52C52.2857 1171.77 100.724 1123.33 160.476 1123.33C220.228 1123.33 268.667 1171.77 268.667 1231.52Z" fill="black" stroke="white" stroke-width="36"/>
<circle cx="1232" cy="160" r="160" fill="black"/>
<path d="M1340.67 159.524C1340.67 219.276 1292.23 267.714 1232.48 267.714C1172.72 267.714 1124.29 219.276 1124.29 159.524C1124.29 99.7719 1172.72 51.3334 1232.48 51.3334C1292.23 51.3334 1340.67 99.7719 1340.67 159.524Z" fill="black" stroke="white" stroke-width="36"/>
<mask id="path-308-outside-1_309_2" maskUnits="userSpaceOnUse" x="577" y="573" width="256" height="248" fill="black">
<rect fill="white" x="577" y="573" width="256" height="248"/>
<path d="M653.9 617.7L711.5 771.3C728.9 731.1 769.1 626.4 775.7 604.8C777.2 600.3 778.4 596.1 778.4 593.4C778.4 591 777.5 588 774.5 586.5C770.9 585.3 766.4 585.3 763.1 585.3C761.3 585.3 759.8 585 759.8 583.5C759.8 581.7 761.6 581.1 766.4 581.1C778.4 581.1 792.2 582 795.8 582C797.6 582 810.5 581.1 819.2 581.1C822.5 581.1 824.3 581.7 824.3 583.2C824.3 584.7 823.1 585.3 820.7 585.3C818.6 585.3 812 585.3 806.3 588.9C802.4 591.6 797.9 596.7 789.8 617.1C786.5 625.5 771.5 661.5 756.2 698.4C737.9 742.2 724.4 774.6 717.5 789.3C709.1 807.3 707.9 812.1 704.9 812.1C701.3 812.1 699.8 807.9 694.1 793.5L620.6 609.6C614 592.8 609.5 589.5 599 586.5C594.5 585.3 589.4 585.3 587.6 585.3C585.8 585.3 585.2 584.4 585.2 583.2C585.2 581.4 588.2 581.1 593 581.1C607.4 581.1 624.5 582 628.1 582C631.1 582 644.6 581.1 656 581.1C661.4 581.1 664.1 581.7 664.1 583.2C664.1 584.7 663.2 585.3 661.1 585.3C657.8 585.3 652.4 585.6 649.7 586.8C646.4 588.3 645.8 590.7 645.8 592.8C645.8 596.7 649.4 606 653.9 617.7Z"/>
</mask>
<path d="M653.9 617.7L711.5 771.3C728.9 731.1 769.1 626.4 775.7 604.8C777.2 600.3 778.4 596.1 778.4 593.4C778.4 591 777.5 588 774.5 586.5C770.9 585.3 766.4 585.3 763.1 585.3C761.3 585.3 759.8 585 759.8 583.5C759.8 581.7 761.6 581.1 766.4 581.1C778.4 581.1 792.2 582 795.8 582C797.6 582 810.5 581.1 819.2 581.1C822.5 581.1 824.3 581.7 824.3 583.2C824.3 584.7 823.1 585.3 820.7 585.3C818.6 585.3 812 585.3 806.3 588.9C802.4 591.6 797.9 596.7 789.8 617.1C786.5 625.5 771.5 661.5 756.2 698.4C737.9 742.2 724.4 774.6 717.5 789.3C709.1 807.3 707.9 812.1 704.9 812.1C701.3 812.1 699.8 807.9 694.1 793.5L620.6 609.6C614 592.8 609.5 589.5 599 586.5C594.5 585.3 589.4 585.3 587.6 585.3C585.8 585.3 585.2 584.4 585.2 583.2C585.2 581.4 588.2 581.1 593 581.1C607.4 581.1 624.5 582 628.1 582C631.1 582 644.6 581.1 656 581.1C661.4 581.1 664.1 581.7 664.1 583.2C664.1 584.7 663.2 585.3 661.1 585.3C657.8 585.3 652.4 585.6 649.7 586.8C646.4 588.3 645.8 590.7 645.8 592.8C645.8 596.7 649.4 606 653.9 617.7Z" fill="black"/>
<path d="M653.9 617.7L661.391 614.891L661.379 614.86L661.367 614.828L653.9 617.7ZM711.5 771.3L704.009 774.109L710.969 792.667L718.842 774.478L711.5 771.3ZM775.7 604.8L768.111 602.27L768.079 602.366L768.049 602.462L775.7 604.8ZM774.5 586.5L778.078 579.345L777.569 579.09L777.03 578.911L774.5 586.5ZM806.3 588.9L802.028 582.136L801.885 582.226L801.746 582.322L806.3 588.9ZM789.8 617.1L782.365 614.148L782.359 614.161L782.354 614.175L789.8 617.1ZM756.2 698.4L763.582 701.484L763.586 701.474L763.59 701.464L756.2 698.4ZM717.5 789.3L710.258 785.901L710.254 785.909L710.251 785.917L717.5 789.3ZM694.1 793.5L701.538 790.556L701.534 790.543L701.529 790.531L694.1 793.5ZM620.6 609.6L613.154 612.525L613.163 612.547L613.171 612.569L620.6 609.6ZM599 586.5L601.198 578.808L601.13 578.788L601.061 578.77L599 586.5ZM649.7 586.8L646.451 579.49L646.42 579.503L646.39 579.517L649.7 586.8ZM646.409 620.509L704.009 774.109L718.991 768.491L661.391 614.891L646.409 620.509ZM718.842 774.478C736.288 734.17 776.623 629.156 783.351 607.138L768.049 602.462C761.577 623.644 721.512 728.03 704.158 768.122L718.842 774.478ZM783.289 607.33C784.7 603.099 786.4 597.632 786.4 593.4H770.4C770.4 594.568 769.7 597.501 768.111 602.27L783.289 607.33ZM786.4 593.4C786.4 589.354 784.837 582.724 778.078 579.345L770.922 593.655C770.845 593.617 770.718 593.534 770.592 593.401C770.471 593.275 770.405 593.162 770.376 593.103C770.351 593.05 770.36 593.052 770.375 593.122C770.389 593.193 770.4 593.291 770.4 593.4H786.4ZM777.03 578.911C771.969 577.224 766.093 577.3 763.1 577.3V593.3C766.707 593.3 769.831 593.376 771.97 594.089L777.03 578.911ZM763.1 577.3C762.845 577.3 762.789 577.288 762.864 577.297C762.91 577.303 763.355 577.359 763.982 577.633C764.646 577.924 765.719 578.555 766.598 579.801C767.519 581.105 767.8 582.476 767.8 583.5H751.8C751.8 585.273 752.269 587.245 753.527 589.027C754.744 590.751 756.304 591.738 757.568 592.292C759.8 593.268 762.074 593.3 763.1 593.3V577.3ZM767.8 583.5C767.8 584.462 767.525 585.94 766.44 587.317C765.45 588.574 764.337 589.035 763.991 589.159C763.659 589.278 763.619 589.234 764.14 589.182C764.618 589.134 765.34 589.1 766.4 589.1V573.1C764.021 573.1 761.103 573.201 758.609 574.091C757.213 574.59 755.35 575.539 753.872 577.415C752.3 579.41 751.8 581.638 751.8 583.5H767.8ZM766.4 589.1C772.227 589.1 778.541 589.319 783.917 589.543C789.078 589.758 793.778 590 795.8 590V574C794.222 574 790.222 573.792 784.583 573.557C779.159 573.331 772.573 573.1 766.4 573.1V589.1ZM795.8 590C796.962 590 801.105 589.749 805.309 589.54C809.835 589.316 815.064 589.1 819.2 589.1V573.1C814.636 573.1 809.065 573.334 804.516 573.56C802.231 573.673 800.149 573.787 798.571 573.87C797.772 573.913 797.113 573.946 796.603 573.97C796.348 573.981 796.147 573.989 795.994 573.994C795.826 574 795.776 574 795.8 574V590ZM819.2 589.1C819.803 589.1 820.183 589.129 820.39 589.154C820.626 589.184 820.46 589.189 820.072 589.037C819.696 588.89 818.71 588.438 817.795 587.329C816.763 586.077 816.3 584.569 816.3 583.2H832.3C832.3 581.081 831.612 578.935 830.14 577.15C828.784 575.506 827.142 574.622 825.903 574.138C823.593 573.234 821.076 573.1 819.2 573.1V589.1ZM816.3 583.2C816.3 582.498 816.447 581.407 817.099 580.245C817.767 579.055 818.688 578.284 819.478 577.84C820.196 577.436 820.75 577.328 820.88 577.305C821.027 577.279 820.995 577.3 820.7 577.3V593.3C822.245 593.3 824.868 593.166 827.322 591.785C828.712 591.003 830.083 589.801 831.051 588.077C832.003 586.381 832.3 584.652 832.3 583.2H816.3ZM820.7 577.3C818.568 577.3 809.852 577.195 802.028 582.136L810.572 595.664C814.148 593.405 818.633 593.3 820.7 593.3V577.3ZM801.746 582.322C795.733 586.486 790.519 593.611 782.365 614.148L797.235 620.052C805.281 599.789 809.067 596.714 810.854 595.478L801.746 582.322ZM782.354 614.175C779.091 622.482 764.146 658.349 748.81 695.336L763.59 701.464C778.854 664.651 793.91 628.518 797.246 620.025L782.354 614.175ZM748.818 695.316C730.466 739.24 717.063 771.404 710.258 785.901L724.742 792.699C731.737 777.796 745.334 745.16 763.582 701.484L748.818 695.316ZM710.251 785.917C705.83 795.389 703.715 800.482 702.02 803.872C701.178 805.555 700.896 805.838 701.037 805.684C701.531 805.141 702.918 804.1 704.9 804.1V820.1C708.382 820.1 711.044 818.459 712.869 816.454C714.341 814.837 715.447 812.795 716.33 811.028C718.085 807.518 720.77 801.211 724.749 792.683L710.251 785.917ZM704.9 804.1C705.842 804.1 706.906 804.476 707.644 805.095C708.061 805.446 707.932 805.52 707.328 804.402C706.08 802.088 704.513 798.069 701.538 790.556L686.662 796.444C689.387 803.331 691.42 808.612 693.247 811.998C694.181 813.73 695.458 815.754 697.347 817.342C699.556 819.199 702.158 820.1 704.9 820.1V804.1ZM701.529 790.531L628.029 606.631L613.171 612.569L686.671 796.469L701.529 790.531ZM628.046 606.675C624.669 598.08 621.415 591.766 616.952 587.251C612.231 582.476 606.877 580.43 601.198 578.808L596.802 594.192C601.623 595.57 603.769 596.674 605.573 598.499C607.635 600.584 609.931 604.32 613.154 612.525L628.046 606.675ZM601.061 578.77C595.421 577.266 589.339 577.3 587.6 577.3V593.3C589.461 593.3 593.579 593.334 596.939 594.23L601.061 578.77ZM587.6 577.3C587.933 577.3 589.727 577.389 591.382 579.043C593.036 580.698 593.2 582.567 593.2 583.2H577.2C577.2 585.033 577.664 587.952 580.068 590.357C582.473 592.761 585.467 593.3 587.6 593.3V577.3ZM593.2 583.2C593.2 584.127 592.996 585.178 592.475 586.208C591.963 587.219 591.286 587.929 590.701 588.392C589.675 589.201 588.834 589.329 589.035 589.284C589.117 589.266 589.465 589.206 590.226 589.161C590.954 589.118 591.863 589.1 593 589.1V573.1C590.684 573.1 587.892 573.148 585.565 573.665C584.416 573.921 582.525 574.461 580.787 575.833C578.675 577.5 577.2 580.097 577.2 583.2H593.2ZM593 589.1C600.058 589.1 607.821 589.321 614.324 589.545C620.629 589.763 626.117 590 628.1 590V574C626.483 574 621.621 573.787 614.876 573.555C608.329 573.329 600.342 573.1 593 573.1V589.1ZM628.1 590C629.831 590 634.342 589.756 639.247 589.542C644.396 589.319 650.48 589.1 656 589.1V573.1C650.12 573.1 643.754 573.331 638.553 573.558C633.108 573.794 629.369 574 628.1 574V590ZM656 589.1C657.216 589.1 658.176 589.134 658.916 589.193C659.685 589.253 660.049 589.327 660.135 589.349C660.333 589.398 659.577 589.263 658.628 588.511C658.092 588.087 657.424 587.409 656.897 586.411C656.353 585.38 656.1 584.266 656.1 583.2H672.1C672.1 579.983 670.479 577.486 668.559 575.967C666.935 574.681 665.167 574.114 664.015 573.826C661.654 573.236 658.798 573.1 656 573.1V589.1ZM656.1 583.2C656.1 582.808 656.155 581.963 656.6 580.948C657.086 579.841 657.875 578.898 658.834 578.235C659.708 577.63 660.478 577.423 660.811 577.353C661.144 577.284 661.282 577.3 661.1 577.3V593.3C662.543 593.3 665.371 593.169 667.941 591.39C671.227 589.115 672.1 585.686 672.1 583.2H656.1ZM661.1 577.3C659.246 577.3 656.776 577.383 654.323 577.646C652.096 577.884 649.012 578.351 646.451 579.49L652.949 594.11C652.91 594.128 653.151 594.025 653.8 593.889C654.403 593.762 655.157 593.648 656.027 593.554C657.774 593.367 659.654 593.3 661.1 593.3V577.3ZM646.39 579.517C643.347 580.9 640.953 583.012 639.461 585.797C638.041 588.447 637.8 591.038 637.8 592.8H653.8C653.8 592.462 653.859 592.803 653.564 593.353C653.412 593.637 653.224 593.865 653.053 594.019C652.893 594.163 652.838 594.161 653.01 594.083L646.39 579.517ZM637.8 592.8C637.8 594.793 638.227 596.883 638.68 598.663C639.163 600.562 639.83 602.683 640.593 604.914C642.116 609.365 644.205 614.779 646.433 620.572L661.367 614.828C659.095 608.921 657.134 603.835 655.732 599.735C655.033 597.692 654.518 596.026 654.186 594.718C653.823 593.292 653.8 592.757 653.8 592.8H637.8Z" fill="white" mask="url(#path-308-outside-1_309_2)"/>
</g>
<defs>
<clipPath id="clip0_309_2">
<rect width="1392" height="1392" fill="white"/>
</clipPath>
</defs>
</svg>
