<svg width="162" height="162" viewBox="0 0 162 162" fill="none" xmlns="http://www.w3.org/2000/svg">
<path d="M161 82C161 126.183 125.183 162 81 162C36.8172 162 1 126.183 1 82C1 37.8172 36.8172 2 81 2C125.183 2 161 37.8172 161 82Z" fill="black"/>
<path fill-rule="evenodd" clip-rule="evenodd" d="M81.4784 0.911342C37.0157 0.911342 0.96106 36.958 0.96106 81.4287C0.96106 117.002 24.0317 147.183 56.0237 157.83C60.0477 158.575 61.5251 156.083 61.5251 153.957C61.5251 152.038 61.4504 145.694 61.4157 138.966C39.0157 143.837 34.2891 129.466 34.2891 129.466C30.6264 120.161 25.3491 117.685 25.3491 117.685C18.0437 112.687 25.8997 112.79 25.8997 112.79C33.9851 113.358 38.2424 121.089 38.2424 121.089C45.4237 133.397 57.0784 129.838 61.6731 127.781C62.3971 122.578 64.4824 119.025 66.7851 117.014C48.9011 114.979 30.1011 108.074 30.1011 77.222C30.1011 68.4327 33.2464 61.25 38.3971 55.6113C37.5611 53.582 34.8051 45.3927 39.1784 34.302C39.1784 34.302 45.9397 32.1393 61.3251 42.5567C67.7477 40.7727 74.6357 39.878 81.4784 39.846C88.3211 39.878 95.2144 40.7727 101.649 42.5567C117.017 32.1393 123.769 34.302 123.769 34.302C128.152 45.3927 125.396 53.582 124.56 55.6113C129.722 61.25 132.845 68.4327 132.845 77.222C132.845 108.149 114.009 114.957 96.0797 116.95C98.9677 119.449 101.541 124.349 101.541 131.861C101.541 142.634 101.449 151.305 101.449 153.957C101.449 156.101 102.897 158.611 106.978 157.821C138.954 147.162 161.996 116.991 161.996 81.4287C161.996 36.958 125.946 0.911342 81.4784 0.911342Z" fill="white"/>
<path d="M31.4576 116.516C31.2802 116.917 30.6509 117.037 30.0776 116.761C29.4922 116.498 29.1656 115.953 29.3549 115.552C29.5282 115.141 30.1576 115.026 30.7416 115.301C31.3256 115.564 31.6589 116.114 31.4576 116.516Z" fill="white"/>
<path d="M34.7193 120.154C34.3353 120.51 33.5833 120.344 33.0753 119.782C32.5473 119.22 32.45 118.468 32.8393 118.108C33.2353 117.752 33.9633 117.919 34.49 118.48C35.018 119.048 35.1206 119.794 34.7193 120.154Z" fill="white"/>
<path d="M37.8939 124.79C37.4006 125.134 36.5926 124.813 36.0939 124.097C35.6006 123.38 35.6006 122.521 36.1059 122.177C36.6046 121.833 37.4006 122.144 37.9059 122.853C38.3979 123.581 38.3979 124.44 37.8939 124.79Z" fill="white"/>
<path d="M42.2428 129.271C41.8014 129.757 40.8614 129.627 40.1734 128.963C39.4694 128.313 39.2734 127.392 39.7148 126.905C40.1628 126.417 41.1081 126.555 41.8014 127.213C42.5001 127.861 42.7121 128.789 42.2428 129.271Z" fill="white"/>
<path d="M48.2428 131.872C48.0468 132.503 47.1428 132.788 46.2308 132.52C45.3201 132.244 44.7241 131.507 44.9081 130.87C45.0974 130.234 46.0068 129.936 46.9254 130.223C47.8348 130.498 48.4321 131.231 48.2428 131.872Z" fill="white"/>
<path d="M54.8327 132.354C54.8553 133.018 54.082 133.569 53.1247 133.581C52.162 133.603 51.382 133.065 51.3713 132.411C51.3713 131.741 52.1287 131.197 53.09 131.179C54.0473 131.161 54.8327 131.695 54.8327 132.354Z" fill="white"/>
<path d="M60.9641 131.311C61.0788 131.958 60.4135 132.623 59.4628 132.8C58.5281 132.972 57.6628 132.571 57.5441 131.93C57.4281 131.266 58.1041 130.6 59.0388 130.428C59.9908 130.263 60.8428 130.652 60.9641 131.311Z" fill="white"/>
</svg>
