<svg width="179" height="211" viewBox="0 0 179 211" fill="none" xmlns="http://www.w3.org/2000/svg">
<path d="M50.6276 203.195L54.2717 180.041L46.1543 179.853H7.39276L34.3301 9.00484C34.4137 8.48908 34.6854 8.00817 35.0826 7.66666C35.4797 7.32514 35.9884 7.13696 36.5179 7.13696H101.875C123.573 7.13696 138.547 11.6533 146.364 20.5676C150.029 24.7494 152.364 29.1194 153.492 33.9285C154.677 38.9745 154.698 45.0033 153.541 52.3564L153.458 52.893V57.6045L157.123 59.6815C160.209 61.3194 162.662 63.1942 164.543 65.3409C167.679 68.9164 169.706 73.4606 170.563 78.8482C171.448 84.3891 171.156 90.9824 169.706 98.447C168.034 107.034 165.331 114.512 161.679 120.632C158.321 126.27 154.043 130.947 148.963 134.571C144.114 138.014 138.351 140.628 131.837 142.3C125.524 143.945 118.326 144.775 110.432 144.775H105.345C101.708 144.775 98.1755 146.085 95.4023 148.434C92.6222 150.831 90.7827 154.107 90.2183 157.689L89.8351 159.773L83.3969 200.581L83.1042 202.079C83.0276 202.553 82.8952 202.79 82.7001 202.951C82.5259 203.097 82.2751 203.195 82.0312 203.195H50.6276Z" fill="#253B80"/>
<path d="M160.593 53.4366C160.397 54.6842 160.174 55.9597 159.924 57.27C151.305 101.535 121.817 116.826 84.1564 116.826H64.9812C60.3755 116.826 56.4945 120.171 55.7768 124.716L45.9592 186.997L43.1791 204.651C42.7123 207.634 45.0116 210.325 48.0217 210.325H82.0312C86.0586 210.325 89.4797 207.397 90.1138 203.425L90.4483 201.696L96.8516 161.049L97.2627 158.818C97.8898 154.832 101.318 151.905 105.345 151.905H110.432C143.382 151.905 169.177 138.523 176.716 99.7991C179.865 83.6224 178.235 70.1151 169.901 60.6154C167.379 57.7509 164.251 55.3742 160.593 53.4366Z" fill="#179BD7"/>
<path d="M151.576 49.8403C150.259 49.4569 148.901 49.1085 147.507 48.7948C146.107 48.4882 144.671 48.2163 143.194 47.9794C138.024 47.143 132.359 46.7457 126.29 46.7457H75.0635C73.8023 46.7457 72.6039 47.0315 71.5308 47.5472C69.1688 48.6833 67.4129 50.9206 66.9879 53.6597L56.0903 122.701L55.7768 124.716C56.4945 120.171 60.3755 116.826 64.9812 116.826H84.1564C121.817 116.826 151.305 101.528 159.924 57.27C160.181 55.9597 160.397 54.6842 160.593 53.4366C158.412 52.2797 156.05 51.29 153.506 50.4466C152.879 50.2375 152.231 50.0354 151.576 49.8403Z" fill="#222D65"/>
<path d="M66.9878 53.6597C67.4128 50.9206 69.1687 48.6833 71.5308 47.5542C72.6108 47.0385 73.8022 46.7527 75.0634 46.7527H126.29C132.359 46.7527 138.024 47.15 143.194 47.9864C144.671 48.2233 146.107 48.4951 147.507 48.8018C148.901 49.1155 150.259 49.4639 151.576 49.8473C152.231 50.0424 152.879 50.2445 153.513 50.4467C156.056 51.29 158.419 52.2867 160.599 53.4367C163.164 37.0788 160.579 25.9412 151.736 15.8561C141.989 4.75333 124.395 0 101.882 0H36.5248C31.9261 0 28.0033 3.34545 27.2926 7.89667L0.0695995 180.501C-0.466917 183.916 2.16689 186.997 5.60895 186.997H45.9592L56.0902 122.702L66.9878 53.6597Z" fill="#253B80"/>
</svg>
