<?xml version="1.0" encoding="utf-8"?>
<!DOCTYPE svg PUBLIC "-//W3C//DTD SVG 1.1//EN" "http://www.w3.org/Graphics/SVG/1.1/DTD/svg11.dtd">
<svg version="1.1" id="Layer_1" xmlns="http://www.w3.org/2000/svg" xmlns:xlink="http://www.w3.org/1999/xlink" x="0px"
	y="0px" width="1155px" height="1155px" viewBox="0 0 1155 1155" enable-background="new 0 0 1155 1155"
	xml:space="preserve">
	<rect x="0" y="0" width="1155" height="1155" fill="rgb(255,255,255)" />
	<g transform="translate(70,70)">
		<g transform="translate(315,0) scale(0.35,0.35)">
			<g transform="" style="fill: rgb(0, 0, 0);">
				<rect width="100" height="100" />
			</g>
		</g>
		<g transform="translate(385,0) scale(0.35,0.35)">
			<g transform="" style="fill: rgb(0, 0, 0);">
				<rect width="100" height="100" />
			</g>
		</g>
		<g transform="translate(420,0) scale(0.35,0.35)">
			<g transform="" style="fill: rgb(0, 0, 0);">
				<rect width="100" height="100" />
			</g>
		</g>
		<g transform="translate(665,0) scale(0.35,0.35)">
			<g transform="" style="fill: rgb(0, 0, 0);">
				<rect width="100" height="100" />
			</g>
		</g>
		<g transform="translate(700,0) scale(0.35,0.35)">
			<g transform="" style="fill: rgb(0, 0, 0);">
				<rect width="100" height="100" />
			</g>
		</g>
		<g transform="translate(280,35) scale(0.35,0.35)">
			<g transform="" style="fill: rgb(0, 0, 0);">
				<rect width="100" height="100" />
			</g>
		</g>
		<g transform="translate(350,35) scale(0.35,0.35)">
			<g transform="" style="fill: rgb(0, 0, 0);">
				<rect width="100" height="100" />
			</g>
		</g>
		<g transform="translate(525,35) scale(0.35,0.35)">
			<g transform="" style="fill: rgb(0, 0, 0);">
				<rect width="100" height="100" />
			</g>
		</g>
		<g transform="translate(595,35) scale(0.35,0.35)">
			<g transform="" style="fill: rgb(0, 0, 0);">
				<rect width="100" height="100" />
			</g>
		</g>
		<g transform="translate(665,35) scale(0.35,0.35)">
			<g transform="" style="fill: rgb(0, 0, 0);">
				<rect width="100" height="100" />
			</g>
		</g>
		<g transform="translate(455,70) scale(0.35,0.35)">
			<g transform="" style="fill: rgb(0, 0, 0);">
				<rect width="100" height="100" />
			</g>
		</g>
		<g transform="translate(490,70) scale(0.35,0.35)">
			<g transform="" style="fill: rgb(0, 0, 0);">
				<rect width="100" height="100" />
			</g>
		</g>
		<g transform="translate(560,70) scale(0.35,0.35)">
			<g transform="" style="fill: rgb(0, 0, 0);">
				<rect width="100" height="100" />
			</g>
		</g>
		<g transform="translate(595,70) scale(0.35,0.35)">
			<g transform="" style="fill: rgb(0, 0, 0);">
				<rect width="100" height="100" />
			</g>
		</g>
		<g transform="translate(630,70) scale(0.35,0.35)">
			<g transform="" style="fill: rgb(0, 0, 0);">
				<rect width="100" height="100" />
			</g>
		</g>
		<g transform="translate(315,105) scale(0.35,0.35)">
			<g transform="" style="fill: rgb(0, 0, 0);">
				<rect width="100" height="100" />
			</g>
		</g>
		<g transform="translate(385,105) scale(0.35,0.35)">
			<g transform="" style="fill: rgb(0, 0, 0);">
				<rect width="100" height="100" />
			</g>
		</g>
		<g transform="translate(420,105) scale(0.35,0.35)">
			<g transform="" style="fill: rgb(0, 0, 0);">
				<rect width="100" height="100" />
			</g>
		</g>
		<g transform="translate(525,105) scale(0.35,0.35)">
			<g transform="" style="fill: rgb(0, 0, 0);">
				<rect width="100" height="100" />
			</g>
		</g>
		<g transform="translate(630,105) scale(0.35,0.35)">
			<g transform="" style="fill: rgb(0, 0, 0);">
				<rect width="100" height="100" />
			</g>
		</g>
		<g transform="translate(315,140) scale(0.35,0.35)">
			<g transform="" style="fill: rgb(0, 0, 0);">
				<rect width="100" height="100" />
			</g>
		</g>
		<g transform="translate(420,140) scale(0.35,0.35)">
			<g transform="" style="fill: rgb(0, 0, 0);">
				<rect width="100" height="100" />
			</g>
		</g>
		<g transform="translate(595,140) scale(0.35,0.35)">
			<g transform="" style="fill: rgb(0, 0, 0);">
				<rect width="100" height="100" />
			</g>
		</g>
		<g transform="translate(630,140) scale(0.35,0.35)">
			<g transform="" style="fill: rgb(0, 0, 0);">
				<rect width="100" height="100" />
			</g>
		</g>
		<g transform="translate(280,175) scale(0.35,0.35)">
			<g transform="" style="fill: rgb(0, 0, 0);">
				<rect width="100" height="100" />
			</g>
		</g>
		<g transform="translate(350,175) scale(0.35,0.35)">
			<g transform="" style="fill: rgb(0, 0, 0);">
				<rect width="100" height="100" />
			</g>
		</g>
		<g transform="translate(455,175) scale(0.35,0.35)">
			<g transform="" style="fill: rgb(0, 0, 0);">
				<rect width="100" height="100" />
			</g>
		</g>
		<g transform="translate(490,175) scale(0.35,0.35)">
			<g transform="" style="fill: rgb(0, 0, 0);">
				<rect width="100" height="100" />
			</g>
		</g>
		<g transform="translate(595,175) scale(0.35,0.35)">
			<g transform="" style="fill: rgb(0, 0, 0);">
				<rect width="100" height="100" />
			</g>
		</g>
		<g transform="translate(665,175) scale(0.35,0.35)">
			<g transform="" style="fill: rgb(0, 0, 0);">
				<rect width="100" height="100" />
			</g>
		</g>
		<g transform="translate(280,210) scale(0.35,0.35)">
			<g transform="" style="fill: rgb(0, 0, 0);">
				<rect width="100" height="100" />
			</g>
		</g>
		<g transform="translate(350,210) scale(0.35,0.35)">
			<g transform="" style="fill: rgb(0, 0, 0);">
				<rect width="100" height="100" />
			</g>
		</g>
		<g transform="translate(420,210) scale(0.35,0.35)">
			<g transform="" style="fill: rgb(0, 0, 0);">
				<rect width="100" height="100" />
			</g>
		</g>
		<g transform="translate(490,210) scale(0.35,0.35)">
			<g transform="" style="fill: rgb(0, 0, 0);">
				<rect width="100" height="100" />
			</g>
		</g>
		<g transform="translate(560,210) scale(0.35,0.35)">
			<g transform="" style="fill: rgb(0, 0, 0);">
				<rect width="100" height="100" />
			</g>
		</g>
		<g transform="translate(630,210) scale(0.35,0.35)">
			<g transform="" style="fill: rgb(0, 0, 0);">
				<rect width="100" height="100" />
			</g>
		</g>
		<g transform="translate(700,210) scale(0.35,0.35)">
			<g transform="" style="fill: rgb(0, 0, 0);">
				<rect width="100" height="100" />
			</g>
		</g>
		<g transform="translate(280,245) scale(0.35,0.35)">
			<g transform="" style="fill: rgb(0, 0, 0);">
				<rect width="100" height="100" />
			</g>
		</g>
		<g transform="translate(350,245) scale(0.35,0.35)">
			<g transform="" style="fill: rgb(0, 0, 0);">
				<rect width="100" height="100" />
			</g>
		</g>
		<g transform="translate(455,245) scale(0.35,0.35)">
			<g transform="" style="fill: rgb(0, 0, 0);">
				<rect width="100" height="100" />
			</g>
		</g>
		<g transform="translate(490,245) scale(0.35,0.35)">
			<g transform="" style="fill: rgb(0, 0, 0);">
				<rect width="100" height="100" />
			</g>
		</g>
		<g transform="translate(560,245) scale(0.35,0.35)">
			<g transform="" style="fill: rgb(0, 0, 0);">
				<rect width="100" height="100" />
			</g>
		</g>
		<g transform="translate(665,245) scale(0.35,0.35)">
			<g transform="" style="fill: rgb(0, 0, 0);">
				<rect width="100" height="100" />
			</g>
		</g>
		<g transform="translate(700,245) scale(0.35,0.35)">
			<g transform="" style="fill: rgb(0, 0, 0);">
				<rect width="100" height="100" />
			</g>
		</g>
		<g transform="translate(140,280) scale(0.35,0.35)">
			<g transform="" style="fill: rgb(0, 0, 0);">
				<rect width="100" height="100" />
			</g>
		</g>
		<g transform="translate(175,280) scale(0.35,0.35)">
			<g transform="" style="fill: rgb(0, 0, 0);">
				<rect width="100" height="100" />
			</g>
		</g>
		<g transform="translate(210,280) scale(0.35,0.35)">
			<g transform="" style="fill: rgb(0, 0, 0);">
				<rect width="100" height="100" />
			</g>
		</g>
		<g transform="translate(245,280) scale(0.35,0.35)">
			<g transform="" style="fill: rgb(0, 0, 0);">
				<rect width="100" height="100" />
			</g>
		</g>
		<g transform="translate(315,280) scale(0.35,0.35)">
			<g transform="" style="fill: rgb(0, 0, 0);">
				<rect width="100" height="100" />
			</g>
		</g>
		<g transform="translate(385,280) scale(0.35,0.35)">
			<g transform="" style="fill: rgb(0, 0, 0);">
				<rect width="100" height="100" />
			</g>
		</g>
		<g transform="translate(490,280) scale(0.35,0.35)">
			<g transform="" style="fill: rgb(0, 0, 0);">
				<rect width="100" height="100" />
			</g>
		</g>
		<g transform="translate(700,280) scale(0.35,0.35)">
			<g transform="" style="fill: rgb(0, 0, 0);">
				<rect width="100" height="100" />
			</g>
		</g>
		<g transform="translate(770,280) scale(0.35,0.35)">
			<g transform="" style="fill: rgb(0, 0, 0);">
				<rect width="100" height="100" />
			</g>
		</g>
		<g transform="translate(805,280) scale(0.35,0.35)">
			<g transform="" style="fill: rgb(0, 0, 0);">
				<rect width="100" height="100" />
			</g>
		</g>
		<g transform="translate(945,280) scale(0.35,0.35)">
			<g transform="" style="fill: rgb(0, 0, 0);">
				<rect width="100" height="100" />
			</g>
		</g>
		<g transform="translate(0,315) scale(0.35,0.35)">
			<g transform="" style="fill: rgb(0, 0, 0);">
				<rect width="100" height="100" />
			</g>
		</g>
		<g transform="translate(35,315) scale(0.35,0.35)">
			<g transform="" style="fill: rgb(0, 0, 0);">
				<rect width="100" height="100" />
			</g>
		</g>
		<g transform="translate(105,315) scale(0.35,0.35)">
			<g transform="" style="fill: rgb(0, 0, 0);">
				<rect width="100" height="100" />
			</g>
		</g>
		<g transform="translate(280,315) scale(0.35,0.35)">
			<g transform="" style="fill: rgb(0, 0, 0);">
				<rect width="100" height="100" />
			</g>
		</g>
		<g transform="translate(420,315) scale(0.35,0.35)">
			<g transform="" style="fill: rgb(0, 0, 0);">
				<rect width="100" height="100" />
			</g>
		</g>
		<g transform="translate(455,315) scale(0.35,0.35)">
			<g transform="" style="fill: rgb(0, 0, 0);">
				<rect width="100" height="100" />
			</g>
		</g>
		<g transform="translate(490,315) scale(0.35,0.35)">
			<g transform="" style="fill: rgb(0, 0, 0);">
				<rect width="100" height="100" />
			</g>
		</g>
		<g transform="translate(560,315) scale(0.35,0.35)">
			<g transform="" style="fill: rgb(0, 0, 0);">
				<rect width="100" height="100" />
			</g>
		</g>
		<g transform="translate(595,315) scale(0.35,0.35)">
			<g transform="" style="fill: rgb(0, 0, 0);">
				<rect width="100" height="100" />
			</g>
		</g>
		<g transform="translate(630,315) scale(0.35,0.35)">
			<g transform="" style="fill: rgb(0, 0, 0);">
				<rect width="100" height="100" />
			</g>
		</g>
		<g transform="translate(665,315) scale(0.35,0.35)">
			<g transform="" style="fill: rgb(0, 0, 0);">
				<rect width="100" height="100" />
			</g>
		</g>
		<g transform="translate(805,315) scale(0.35,0.35)">
			<g transform="" style="fill: rgb(0, 0, 0);">
				<rect width="100" height="100" />
			</g>
		</g>
		<g transform="translate(945,315) scale(0.35,0.35)">
			<g transform="" style="fill: rgb(0, 0, 0);">
				<rect width="100" height="100" />
			</g>
		</g>
		<g transform="translate(980,315) scale(0.35,0.35)">
			<g transform="" style="fill: rgb(0, 0, 0);">
				<rect width="100" height="100" />
			</g>
		</g>
		<g transform="translate(70,350) scale(0.35,0.35)">
			<g transform="" style="fill: rgb(0, 0, 0);">
				<rect width="100" height="100" />
			</g>
		</g>
		<g transform="translate(105,350) scale(0.35,0.35)">
			<g transform="" style="fill: rgb(0, 0, 0);">
				<rect width="100" height="100" />
			</g>
		</g>
		<g transform="translate(175,350) scale(0.35,0.35)">
			<g transform="" style="fill: rgb(0, 0, 0);">
				<rect width="100" height="100" />
			</g>
		</g>
		<g transform="translate(210,350) scale(0.35,0.35)">
			<g transform="" style="fill: rgb(0, 0, 0);">
				<rect width="100" height="100" />
			</g>
		</g>
		<g transform="translate(280,350) scale(0.35,0.35)">
			<g transform="" style="fill: rgb(0, 0, 0);">
				<rect width="100" height="100" />
			</g>
		</g>
		<g transform="translate(665,350) scale(0.35,0.35)">
			<g transform="" style="fill: rgb(0, 0, 0);">
				<rect width="100" height="100" />
			</g>
		</g>
		<g transform="translate(735,350) scale(0.35,0.35)">
			<g transform="" style="fill: rgb(0, 0, 0);">
				<rect width="100" height="100" />
			</g>
		</g>
		<g transform="translate(805,350) scale(0.35,0.35)">
			<g transform="" style="fill: rgb(0, 0, 0);">
				<rect width="100" height="100" />
			</g>
		</g>
		<g transform="translate(840,350) scale(0.35,0.35)">
			<g transform="" style="fill: rgb(0, 0, 0);">
				<rect width="100" height="100" />
			</g>
		</g>
		<g transform="translate(910,350) scale(0.35,0.35)">
			<g transform="" style="fill: rgb(0, 0, 0);">
				<rect width="100" height="100" />
			</g>
		</g>
		<g transform="translate(980,350) scale(0.35,0.35)">
			<g transform="" style="fill: rgb(0, 0, 0);">
				<rect width="100" height="100" />
			</g>
		</g>
		<g transform="translate(70,385) scale(0.35,0.35)">
			<g transform="" style="fill: rgb(0, 0, 0);">
				<rect width="100" height="100" />
			</g>
		</g>
		<g transform="translate(105,385) scale(0.35,0.35)">
			<g transform="" style="fill: rgb(0, 0, 0);">
				<rect width="100" height="100" />
			</g>
		</g>
		<g transform="translate(175,385) scale(0.35,0.35)">
			<g transform="" style="fill: rgb(0, 0, 0);">
				<rect width="100" height="100" />
			</g>
		</g>
		<g transform="translate(245,385) scale(0.35,0.35)">
			<g transform="" style="fill: rgb(0, 0, 0);">
				<rect width="100" height="100" />
			</g>
		</g>
		<g transform="translate(315,385) scale(0.35,0.35)">
			<g transform="" style="fill: rgb(0, 0, 0);">
				<rect width="100" height="100" />
			</g>
		</g>
		<g transform="translate(665,385) scale(0.35,0.35)">
			<g transform="" style="fill: rgb(0, 0, 0);">
				<rect width="100" height="100" />
			</g>
		</g>
		<g transform="translate(700,385) scale(0.35,0.35)">
			<g transform="" style="fill: rgb(0, 0, 0);">
				<rect width="100" height="100" />
			</g>
		</g>
		<g transform="translate(735,385) scale(0.35,0.35)">
			<g transform="" style="fill: rgb(0, 0, 0);">
				<rect width="100" height="100" />
			</g>
		</g>
		<g transform="translate(840,385) scale(0.35,0.35)">
			<g transform="" style="fill: rgb(0, 0, 0);">
				<rect width="100" height="100" />
			</g>
		</g>
		<g transform="translate(875,385) scale(0.35,0.35)">
			<g transform="" style="fill: rgb(0, 0, 0);">
				<rect width="100" height="100" />
			</g>
		</g>
		<g transform="translate(945,385) scale(0.35,0.35)">
			<g transform="" style="fill: rgb(0, 0, 0);">
				<rect width="100" height="100" />
			</g>
		</g>
		<g transform="translate(980,385) scale(0.35,0.35)">
			<g transform="" style="fill: rgb(0, 0, 0);">
				<rect width="100" height="100" />
			</g>
		</g>
		<g transform="translate(0,420) scale(0.35,0.35)">
			<g transform="" style="fill: rgb(0, 0, 0);">
				<rect width="100" height="100" />
			</g>
		</g>
		<g transform="translate(70,420) scale(0.35,0.35)">
			<g transform="" style="fill: rgb(0, 0, 0);">
				<rect width="100" height="100" />
			</g>
		</g>
		<g transform="translate(105,420) scale(0.35,0.35)">
			<g transform="" style="fill: rgb(0, 0, 0);">
				<rect width="100" height="100" />
			</g>
		</g>
		<g transform="translate(210,420) scale(0.35,0.35)">
			<g transform="" style="fill: rgb(0, 0, 0);">
				<rect width="100" height="100" />
			</g>
		</g>
		<g transform="translate(315,420) scale(0.35,0.35)">
			<g transform="" style="fill: rgb(0, 0, 0);">
				<rect width="100" height="100" />
			</g>
		</g>
		<g transform="translate(700,420) scale(0.35,0.35)">
			<g transform="" style="fill: rgb(0, 0, 0);">
				<rect width="100" height="100" />
			</g>
		</g>
		<g transform="translate(805,420) scale(0.35,0.35)">
			<g transform="" style="fill: rgb(0, 0, 0);">
				<rect width="100" height="100" />
			</g>
		</g>
		<g transform="translate(875,420) scale(0.35,0.35)">
			<g transform="" style="fill: rgb(0, 0, 0);">
				<rect width="100" height="100" />
			</g>
		</g>
		<g transform="translate(980,420) scale(0.35,0.35)">
			<g transform="" style="fill: rgb(0, 0, 0);">
				<rect width="100" height="100" />
			</g>
		</g>
		<g transform="translate(0,455) scale(0.35,0.35)">
			<g transform="" style="fill: rgb(0, 0, 0);">
				<rect width="100" height="100" />
			</g>
		</g>
		<g transform="translate(175,455) scale(0.35,0.35)">
			<g transform="" style="fill: rgb(0, 0, 0);">
				<rect width="100" height="100" />
			</g>
		</g>
		<g transform="translate(245,455) scale(0.35,0.35)">
			<g transform="" style="fill: rgb(0, 0, 0);">
				<rect width="100" height="100" />
			</g>
		</g>
		<g transform="translate(280,455) scale(0.35,0.35)">
			<g transform="" style="fill: rgb(0, 0, 0);">
				<rect width="100" height="100" />
			</g>
		</g>
		<g transform="translate(315,455) scale(0.35,0.35)">
			<g transform="" style="fill: rgb(0, 0, 0);">
				<rect width="100" height="100" />
			</g>
		</g>
		<g transform="translate(770,455) scale(0.35,0.35)">
			<g transform="" style="fill: rgb(0, 0, 0);">
				<rect width="100" height="100" />
			</g>
		</g>
		<g transform="translate(840,455) scale(0.35,0.35)">
			<g transform="" style="fill: rgb(0, 0, 0);">
				<rect width="100" height="100" />
			</g>
		</g>
		<g transform="translate(910,455) scale(0.35,0.35)">
			<g transform="" style="fill: rgb(0, 0, 0);">
				<rect width="100" height="100" />
			</g>
		</g>
		<g transform="translate(980,455) scale(0.35,0.35)">
			<g transform="" style="fill: rgb(0, 0, 0);">
				<rect width="100" height="100" />
			</g>
		</g>
		<g transform="translate(70,490) scale(0.35,0.35)">
			<g transform="" style="fill: rgb(0, 0, 0);">
				<rect width="100" height="100" />
			</g>
		</g>
		<g transform="translate(105,490) scale(0.35,0.35)">
			<g transform="" style="fill: rgb(0, 0, 0);">
				<rect width="100" height="100" />
			</g>
		</g>
		<g transform="translate(175,490) scale(0.35,0.35)">
			<g transform="" style="fill: rgb(0, 0, 0);">
				<rect width="100" height="100" />
			</g>
		</g>
		<g transform="translate(210,490) scale(0.35,0.35)">
			<g transform="" style="fill: rgb(0, 0, 0);">
				<rect width="100" height="100" />
			</g>
		</g>
		<g transform="translate(280,490) scale(0.35,0.35)">
			<g transform="" style="fill: rgb(0, 0, 0);">
				<rect width="100" height="100" />
			</g>
		</g>
		<g transform="translate(315,490) scale(0.35,0.35)">
			<g transform="" style="fill: rgb(0, 0, 0);">
				<rect width="100" height="100" />
			</g>
		</g>
		<g transform="translate(735,490) scale(0.35,0.35)">
			<g transform="" style="fill: rgb(0, 0, 0);">
				<rect width="100" height="100" />
			</g>
		</g>
		<g transform="translate(770,490) scale(0.35,0.35)">
			<g transform="" style="fill: rgb(0, 0, 0);">
				<rect width="100" height="100" />
			</g>
		</g>
		<g transform="translate(840,490) scale(0.35,0.35)">
			<g transform="" style="fill: rgb(0, 0, 0);">
				<rect width="100" height="100" />
			</g>
		</g>
		<g transform="translate(945,490) scale(0.35,0.35)">
			<g transform="" style="fill: rgb(0, 0, 0);">
				<rect width="100" height="100" />
			</g>
		</g>
		<g transform="translate(980,490) scale(0.35,0.35)">
			<g transform="" style="fill: rgb(0, 0, 0);">
				<rect width="100" height="100" />
			</g>
		</g>
		<g transform="translate(0,525) scale(0.35,0.35)">
			<g transform="" style="fill: rgb(0, 0, 0);">
				<rect width="100" height="100" />
			</g>
		</g>
		<g transform="translate(70,525) scale(0.35,0.35)">
			<g transform="" style="fill: rgb(0, 0, 0);">
				<rect width="100" height="100" />
			</g>
		</g>
		<g transform="translate(105,525) scale(0.35,0.35)">
			<g transform="" style="fill: rgb(0, 0, 0);">
				<rect width="100" height="100" />
			</g>
		</g>
		<g transform="translate(280,525) scale(0.35,0.35)">
			<g transform="" style="fill: rgb(0, 0, 0);">
				<rect width="100" height="100" />
			</g>
		</g>
		<g transform="translate(315,525) scale(0.35,0.35)">
			<g transform="" style="fill: rgb(0, 0, 0);">
				<rect width="100" height="100" />
			</g>
		</g>
		<g transform="translate(700,525) scale(0.35,0.35)">
			<g transform="" style="fill: rgb(0, 0, 0);">
				<rect width="100" height="100" />
			</g>
		</g>
		<g transform="translate(770,525) scale(0.35,0.35)">
			<g transform="" style="fill: rgb(0, 0, 0);">
				<rect width="100" height="100" />
			</g>
		</g>
		<g transform="translate(805,525) scale(0.35,0.35)">
			<g transform="" style="fill: rgb(0, 0, 0);">
				<rect width="100" height="100" />
			</g>
		</g>
		<g transform="translate(875,525) scale(0.35,0.35)">
			<g transform="" style="fill: rgb(0, 0, 0);">
				<rect width="100" height="100" />
			</g>
		</g>
		<g transform="translate(980,525) scale(0.35,0.35)">
			<g transform="" style="fill: rgb(0, 0, 0);">
				<rect width="100" height="100" />
			</g>
		</g>
		<g transform="translate(35,560) scale(0.35,0.35)">
			<g transform="" style="fill: rgb(0, 0, 0);">
				<rect width="100" height="100" />
			</g>
		</g>
		<g transform="translate(70,560) scale(0.35,0.35)">
			<g transform="" style="fill: rgb(0, 0, 0);">
				<rect width="100" height="100" />
			</g>
		</g>
		<g transform="translate(210,560) scale(0.35,0.35)">
			<g transform="" style="fill: rgb(0, 0, 0);">
				<rect width="100" height="100" />
			</g>
		</g>
		<g transform="translate(840,560) scale(0.35,0.35)">
			<g transform="" style="fill: rgb(0, 0, 0);">
				<rect width="100" height="100" />
			</g>
		</g>
		<g transform="translate(980,560) scale(0.35,0.35)">
			<g transform="" style="fill: rgb(0, 0, 0);">
				<rect width="100" height="100" />
			</g>
		</g>
		<g transform="translate(0,595) scale(0.35,0.35)">
			<g transform="" style="fill: rgb(0, 0, 0);">
				<rect width="100" height="100" />
			</g>
		</g>
		<g transform="translate(35,595) scale(0.35,0.35)">
			<g transform="" style="fill: rgb(0, 0, 0);">
				<rect width="100" height="100" />
			</g>
		</g>
		<g transform="translate(105,595) scale(0.35,0.35)">
			<g transform="" style="fill: rgb(0, 0, 0);">
				<rect width="100" height="100" />
			</g>
		</g>
		<g transform="translate(140,595) scale(0.35,0.35)">
			<g transform="" style="fill: rgb(0, 0, 0);">
				<rect width="100" height="100" />
			</g>
		</g>
		<g transform="translate(175,595) scale(0.35,0.35)">
			<g transform="" style="fill: rgb(0, 0, 0);">
				<rect width="100" height="100" />
			</g>
		</g>
		<g transform="translate(280,595) scale(0.35,0.35)">
			<g transform="" style="fill: rgb(0, 0, 0);">
				<rect width="100" height="100" />
			</g>
		</g>
		<g transform="translate(315,595) scale(0.35,0.35)">
			<g transform="" style="fill: rgb(0, 0, 0);">
				<rect width="100" height="100" />
			</g>
		</g>
		<g transform="translate(665,595) scale(0.35,0.35)">
			<g transform="" style="fill: rgb(0, 0, 0);">
				<rect width="100" height="100" />
			</g>
		</g>
		<g transform="translate(700,595) scale(0.35,0.35)">
			<g transform="" style="fill: rgb(0, 0, 0);">
				<rect width="100" height="100" />
			</g>
		</g>
		<g transform="translate(735,595) scale(0.35,0.35)">
			<g transform="" style="fill: rgb(0, 0, 0);">
				<rect width="100" height="100" />
			</g>
		</g>
		<g transform="translate(840,595) scale(0.35,0.35)">
			<g transform="" style="fill: rgb(0, 0, 0);">
				<rect width="100" height="100" />
			</g>
		</g>
		<g transform="translate(910,595) scale(0.35,0.35)">
			<g transform="" style="fill: rgb(0, 0, 0);">
				<rect width="100" height="100" />
			</g>
		</g>
		<g transform="translate(980,595) scale(0.35,0.35)">
			<g transform="" style="fill: rgb(0, 0, 0);">
				<rect width="100" height="100" />
			</g>
		</g>
		<g transform="translate(140,630) scale(0.35,0.35)">
			<g transform="" style="fill: rgb(0, 0, 0);">
				<rect width="100" height="100" />
			</g>
		</g>
		<g transform="translate(210,630) scale(0.35,0.35)">
			<g transform="" style="fill: rgb(0, 0, 0);">
				<rect width="100" height="100" />
			</g>
		</g>
		<g transform="translate(245,630) scale(0.35,0.35)">
			<g transform="" style="fill: rgb(0, 0, 0);">
				<rect width="100" height="100" />
			</g>
		</g>
		<g transform="translate(280,630) scale(0.35,0.35)">
			<g transform="" style="fill: rgb(0, 0, 0);">
				<rect width="100" height="100" />
			</g>
		</g>
		<g transform="translate(700,630) scale(0.35,0.35)">
			<g transform="" style="fill: rgb(0, 0, 0);">
				<rect width="100" height="100" />
			</g>
		</g>
		<g transform="translate(805,630) scale(0.35,0.35)">
			<g transform="" style="fill: rgb(0, 0, 0);">
				<rect width="100" height="100" />
			</g>
		</g>
		<g transform="translate(840,630) scale(0.35,0.35)">
			<g transform="" style="fill: rgb(0, 0, 0);">
				<rect width="100" height="100" />
			</g>
		</g>
		<g transform="translate(980,630) scale(0.35,0.35)">
			<g transform="" style="fill: rgb(0, 0, 0);">
				<rect width="100" height="100" />
			</g>
		</g>
		<g transform="translate(105,665) scale(0.35,0.35)">
			<g transform="" style="fill: rgb(0, 0, 0);">
				<rect width="100" height="100" />
			</g>
		</g>
		<g transform="translate(175,665) scale(0.35,0.35)">
			<g transform="" style="fill: rgb(0, 0, 0);">
				<rect width="100" height="100" />
			</g>
		</g>
		<g transform="translate(315,665) scale(0.35,0.35)">
			<g transform="" style="fill: rgb(0, 0, 0);">
				<rect width="100" height="100" />
			</g>
		</g>
		<g transform="translate(385,665) scale(0.35,0.35)">
			<g transform="" style="fill: rgb(0, 0, 0);">
				<rect width="100" height="100" />
			</g>
		</g>
		<g transform="translate(455,665) scale(0.35,0.35)">
			<g transform="" style="fill: rgb(0, 0, 0);">
				<rect width="100" height="100" />
			</g>
		</g>
		<g transform="translate(490,665) scale(0.35,0.35)">
			<g transform="" style="fill: rgb(0, 0, 0);">
				<rect width="100" height="100" />
			</g>
		</g>
		<g transform="translate(525,665) scale(0.35,0.35)">
			<g transform="" style="fill: rgb(0, 0, 0);">
				<rect width="100" height="100" />
			</g>
		</g>
		<g transform="translate(560,665) scale(0.35,0.35)">
			<g transform="" style="fill: rgb(0, 0, 0);">
				<rect width="100" height="100" />
			</g>
		</g>
		<g transform="translate(595,665) scale(0.35,0.35)">
			<g transform="" style="fill: rgb(0, 0, 0);">
				<rect width="100" height="100" />
			</g>
		</g>
		<g transform="translate(875,665) scale(0.35,0.35)">
			<g transform="" style="fill: rgb(0, 0, 0);">
				<rect width="100" height="100" />
			</g>
		</g>
		<g transform="translate(980,665) scale(0.35,0.35)">
			<g transform="" style="fill: rgb(0, 0, 0);">
				<rect width="100" height="100" />
			</g>
		</g>
		<g transform="translate(0,700) scale(0.35,0.35)">
			<g transform="" style="fill: rgb(0, 0, 0);">
				<rect width="100" height="100" />
			</g>
		</g>
		<g transform="translate(35,700) scale(0.35,0.35)">
			<g transform="" style="fill: rgb(0, 0, 0);">
				<rect width="100" height="100" />
			</g>
		</g>
		<g transform="translate(70,700) scale(0.35,0.35)">
			<g transform="" style="fill: rgb(0, 0, 0);">
				<rect width="100" height="100" />
			</g>
		</g>
		<g transform="translate(105,700) scale(0.35,0.35)">
			<g transform="" style="fill: rgb(0, 0, 0);">
				<rect width="100" height="100" />
			</g>
		</g>
		<g transform="translate(140,700) scale(0.35,0.35)">
			<g transform="" style="fill: rgb(0, 0, 0);">
				<rect width="100" height="100" />
			</g>
		</g>
		<g transform="translate(210,700) scale(0.35,0.35)">
			<g transform="" style="fill: rgb(0, 0, 0);">
				<rect width="100" height="100" />
			</g>
		</g>
		<g transform="translate(245,700) scale(0.35,0.35)">
			<g transform="" style="fill: rgb(0, 0, 0);">
				<rect width="100" height="100" />
			</g>
		</g>
		<g transform="translate(280,700) scale(0.35,0.35)">
			<g transform="" style="fill: rgb(0, 0, 0);">
				<rect width="100" height="100" />
			</g>
		</g>
		<g transform="translate(315,700) scale(0.35,0.35)">
			<g transform="" style="fill: rgb(0, 0, 0);">
				<rect width="100" height="100" />
			</g>
		</g>
		<g transform="translate(350,700) scale(0.35,0.35)">
			<g transform="" style="fill: rgb(0, 0, 0);">
				<rect width="100" height="100" />
			</g>
		</g>
		<g transform="translate(525,700) scale(0.35,0.35)">
			<g transform="" style="fill: rgb(0, 0, 0);">
				<rect width="100" height="100" />
			</g>
		</g>
		<g transform="translate(595,700) scale(0.35,0.35)">
			<g transform="" style="fill: rgb(0, 0, 0);">
				<rect width="100" height="100" />
			</g>
		</g>
		<g transform="translate(665,700) scale(0.35,0.35)">
			<g transform="" style="fill: rgb(0, 0, 0);">
				<rect width="100" height="100" />
			</g>
		</g>
		<g transform="translate(700,700) scale(0.35,0.35)">
			<g transform="" style="fill: rgb(0, 0, 0);">
				<rect width="100" height="100" />
			</g>
		</g>
		<g transform="translate(735,700) scale(0.35,0.35)">
			<g transform="" style="fill: rgb(0, 0, 0);">
				<rect width="100" height="100" />
			</g>
		</g>
		<g transform="translate(770,700) scale(0.35,0.35)">
			<g transform="" style="fill: rgb(0, 0, 0);">
				<rect width="100" height="100" />
			</g>
		</g>
		<g transform="translate(805,700) scale(0.35,0.35)">
			<g transform="" style="fill: rgb(0, 0, 0);">
				<rect width="100" height="100" />
			</g>
		</g>
		<g transform="translate(840,700) scale(0.35,0.35)">
			<g transform="" style="fill: rgb(0, 0, 0);">
				<rect width="100" height="100" />
			</g>
		</g>
		<g transform="translate(875,700) scale(0.35,0.35)">
			<g transform="" style="fill: rgb(0, 0, 0);">
				<rect width="100" height="100" />
			</g>
		</g>
		<g transform="translate(280,735) scale(0.35,0.35)">
			<g transform="" style="fill: rgb(0, 0, 0);">
				<rect width="100" height="100" />
			</g>
		</g>
		<g transform="translate(315,735) scale(0.35,0.35)">
			<g transform="" style="fill: rgb(0, 0, 0);">
				<rect width="100" height="100" />
			</g>
		</g>
		<g transform="translate(350,735) scale(0.35,0.35)">
			<g transform="" style="fill: rgb(0, 0, 0);">
				<rect width="100" height="100" />
			</g>
		</g>
		<g transform="translate(385,735) scale(0.35,0.35)">
			<g transform="" style="fill: rgb(0, 0, 0);">
				<rect width="100" height="100" />
			</g>
		</g>
		<g transform="translate(490,735) scale(0.35,0.35)">
			<g transform="" style="fill: rgb(0, 0, 0);">
				<rect width="100" height="100" />
			</g>
		</g>
		<g transform="translate(560,735) scale(0.35,0.35)">
			<g transform="" style="fill: rgb(0, 0, 0);">
				<rect width="100" height="100" />
			</g>
		</g>
		<g transform="translate(595,735) scale(0.35,0.35)">
			<g transform="" style="fill: rgb(0, 0, 0);">
				<rect width="100" height="100" />
			</g>
		</g>
		<g transform="translate(665,735) scale(0.35,0.35)">
			<g transform="" style="fill: rgb(0, 0, 0);">
				<rect width="100" height="100" />
			</g>
		</g>
		<g transform="translate(700,735) scale(0.35,0.35)">
			<g transform="" style="fill: rgb(0, 0, 0);">
				<rect width="100" height="100" />
			</g>
		</g>
		<g transform="translate(840,735) scale(0.35,0.35)">
			<g transform="" style="fill: rgb(0, 0, 0);">
				<rect width="100" height="100" />
			</g>
		</g>
		<g transform="translate(910,735) scale(0.35,0.35)">
			<g transform="" style="fill: rgb(0, 0, 0);">
				<rect width="100" height="100" />
			</g>
		</g>
		<g transform="translate(980,735) scale(0.35,0.35)">
			<g transform="" style="fill: rgb(0, 0, 0);">
				<rect width="100" height="100" />
			</g>
		</g>
		<g transform="translate(280,770) scale(0.35,0.35)">
			<g transform="" style="fill: rgb(0, 0, 0);">
				<rect width="100" height="100" />
			</g>
		</g>
		<g transform="translate(315,770) scale(0.35,0.35)">
			<g transform="" style="fill: rgb(0, 0, 0);">
				<rect width="100" height="100" />
			</g>
		</g>
		<g transform="translate(420,770) scale(0.35,0.35)">
			<g transform="" style="fill: rgb(0, 0, 0);">
				<rect width="100" height="100" />
			</g>
		</g>
		<g transform="translate(525,770) scale(0.35,0.35)">
			<g transform="" style="fill: rgb(0, 0, 0);">
				<rect width="100" height="100" />
			</g>
		</g>
		<g transform="translate(560,770) scale(0.35,0.35)">
			<g transform="" style="fill: rgb(0, 0, 0);">
				<rect width="100" height="100" />
			</g>
		</g>
		<g transform="translate(595,770) scale(0.35,0.35)">
			<g transform="" style="fill: rgb(0, 0, 0);">
				<rect width="100" height="100" />
			</g>
		</g>
		<g transform="translate(665,770) scale(0.35,0.35)">
			<g transform="" style="fill: rgb(0, 0, 0);">
				<rect width="100" height="100" />
			</g>
		</g>
		<g transform="translate(700,770) scale(0.35,0.35)">
			<g transform="" style="fill: rgb(0, 0, 0);">
				<rect width="100" height="100" />
			</g>
		</g>
		<g transform="translate(770,770) scale(0.35,0.35)">
			<g transform="" style="fill: rgb(0, 0, 0);">
				<rect width="100" height="100" />
			</g>
		</g>
		<g transform="translate(840,770) scale(0.35,0.35)">
			<g transform="" style="fill: rgb(0, 0, 0);">
				<rect width="100" height="100" />
			</g>
		</g>
		<g transform="translate(980,770) scale(0.35,0.35)">
			<g transform="" style="fill: rgb(0, 0, 0);">
				<rect width="100" height="100" />
			</g>
		</g>
		<g transform="translate(280,805) scale(0.35,0.35)">
			<g transform="" style="fill: rgb(0, 0, 0);">
				<rect width="100" height="100" />
			</g>
		</g>
		<g transform="translate(315,805) scale(0.35,0.35)">
			<g transform="" style="fill: rgb(0, 0, 0);">
				<rect width="100" height="100" />
			</g>
		</g>
		<g transform="translate(385,805) scale(0.35,0.35)">
			<g transform="" style="fill: rgb(0, 0, 0);">
				<rect width="100" height="100" />
			</g>
		</g>
		<g transform="translate(420,805) scale(0.35,0.35)">
			<g transform="" style="fill: rgb(0, 0, 0);">
				<rect width="100" height="100" />
			</g>
		</g>
		<g transform="translate(455,805) scale(0.35,0.35)">
			<g transform="" style="fill: rgb(0, 0, 0);">
				<rect width="100" height="100" />
			</g>
		</g>
		<g transform="translate(490,805) scale(0.35,0.35)">
			<g transform="" style="fill: rgb(0, 0, 0);">
				<rect width="100" height="100" />
			</g>
		</g>
		<g transform="translate(630,805) scale(0.35,0.35)">
			<g transform="" style="fill: rgb(0, 0, 0);">
				<rect width="100" height="100" />
			</g>
		</g>
		<g transform="translate(665,805) scale(0.35,0.35)">
			<g transform="" style="fill: rgb(0, 0, 0);">
				<rect width="100" height="100" />
			</g>
		</g>
		<g transform="translate(700,805) scale(0.35,0.35)">
			<g transform="" style="fill: rgb(0, 0, 0);">
				<rect width="100" height="100" />
			</g>
		</g>
		<g transform="translate(840,805) scale(0.35,0.35)">
			<g transform="" style="fill: rgb(0, 0, 0);">
				<rect width="100" height="100" />
			</g>
		</g>
		<g transform="translate(875,805) scale(0.35,0.35)">
			<g transform="" style="fill: rgb(0, 0, 0);">
				<rect width="100" height="100" />
			</g>
		</g>
		<g transform="translate(280,840) scale(0.35,0.35)">
			<g transform="" style="fill: rgb(0, 0, 0);">
				<rect width="100" height="100" />
			</g>
		</g>
		<g transform="translate(455,840) scale(0.35,0.35)">
			<g transform="" style="fill: rgb(0, 0, 0);">
				<rect width="100" height="100" />
			</g>
		</g>
		<g transform="translate(525,840) scale(0.35,0.35)">
			<g transform="" style="fill: rgb(0, 0, 0);">
				<rect width="100" height="100" />
			</g>
		</g>
		<g transform="translate(560,840) scale(0.35,0.35)">
			<g transform="" style="fill: rgb(0, 0, 0);">
				<rect width="100" height="100" />
			</g>
		</g>
		<g transform="translate(595,840) scale(0.35,0.35)">
			<g transform="" style="fill: rgb(0, 0, 0);">
				<rect width="100" height="100" />
			</g>
		</g>
		<g transform="translate(665,840) scale(0.35,0.35)">
			<g transform="" style="fill: rgb(0, 0, 0);">
				<rect width="100" height="100" />
			</g>
		</g>
		<g transform="translate(700,840) scale(0.35,0.35)">
			<g transform="" style="fill: rgb(0, 0, 0);">
				<rect width="100" height="100" />
			</g>
		</g>
		<g transform="translate(735,840) scale(0.35,0.35)">
			<g transform="" style="fill: rgb(0, 0, 0);">
				<rect width="100" height="100" />
			</g>
		</g>
		<g transform="translate(770,840) scale(0.35,0.35)">
			<g transform="" style="fill: rgb(0, 0, 0);">
				<rect width="100" height="100" />
			</g>
		</g>
		<g transform="translate(805,840) scale(0.35,0.35)">
			<g transform="" style="fill: rgb(0, 0, 0);">
				<rect width="100" height="100" />
			</g>
		</g>
		<g transform="translate(840,840) scale(0.35,0.35)">
			<g transform="" style="fill: rgb(0, 0, 0);">
				<rect width="100" height="100" />
			</g>
		</g>
		<g transform="translate(945,840) scale(0.35,0.35)">
			<g transform="" style="fill: rgb(0, 0, 0);">
				<rect width="100" height="100" />
			</g>
		</g>
		<g transform="translate(980,840) scale(0.35,0.35)">
			<g transform="" style="fill: rgb(0, 0, 0);">
				<rect width="100" height="100" />
			</g>
		</g>
		<g transform="translate(455,875) scale(0.35,0.35)">
			<g transform="" style="fill: rgb(0, 0, 0);">
				<rect width="100" height="100" />
			</g>
		</g>
		<g transform="translate(525,875) scale(0.35,0.35)">
			<g transform="" style="fill: rgb(0, 0, 0);">
				<rect width="100" height="100" />
			</g>
		</g>
		<g transform="translate(805,875) scale(0.35,0.35)">
			<g transform="" style="fill: rgb(0, 0, 0);">
				<rect width="100" height="100" />
			</g>
		</g>
		<g transform="translate(910,875) scale(0.35,0.35)">
			<g transform="" style="fill: rgb(0, 0, 0);">
				<rect width="100" height="100" />
			</g>
		</g>
		<g transform="translate(945,875) scale(0.35,0.35)">
			<g transform="" style="fill: rgb(0, 0, 0);">
				<rect width="100" height="100" />
			</g>
		</g>
		<g transform="translate(350,910) scale(0.35,0.35)">
			<g transform="" style="fill: rgb(0, 0, 0);">
				<rect width="100" height="100" />
			</g>
		</g>
		<g transform="translate(385,910) scale(0.35,0.35)">
			<g transform="" style="fill: rgb(0, 0, 0);">
				<rect width="100" height="100" />
			</g>
		</g>
		<g transform="translate(420,910) scale(0.35,0.35)">
			<g transform="" style="fill: rgb(0, 0, 0);">
				<rect width="100" height="100" />
			</g>
		</g>
		<g transform="translate(455,910) scale(0.35,0.35)">
			<g transform="" style="fill: rgb(0, 0, 0);">
				<rect width="100" height="100" />
			</g>
		</g>
		<g transform="translate(525,910) scale(0.35,0.35)">
			<g transform="" style="fill: rgb(0, 0, 0);">
				<rect width="100" height="100" />
			</g>
		</g>
		<g transform="translate(665,910) scale(0.35,0.35)">
			<g transform="" style="fill: rgb(0, 0, 0);">
				<rect width="100" height="100" />
			</g>
		</g>
		<g transform="translate(700,910) scale(0.35,0.35)">
			<g transform="" style="fill: rgb(0, 0, 0);">
				<rect width="100" height="100" />
			</g>
		</g>
		<g transform="translate(735,910) scale(0.35,0.35)">
			<g transform="" style="fill: rgb(0, 0, 0);">
				<rect width="100" height="100" />
			</g>
		</g>
		<g transform="translate(875,910) scale(0.35,0.35)">
			<g transform="" style="fill: rgb(0, 0, 0);">
				<rect width="100" height="100" />
			</g>
		</g>
		<g transform="translate(945,910) scale(0.35,0.35)">
			<g transform="" style="fill: rgb(0, 0, 0);">
				<rect width="100" height="100" />
			</g>
		</g>
		<g transform="translate(980,910) scale(0.35,0.35)">
			<g transform="" style="fill: rgb(0, 0, 0);">
				<rect width="100" height="100" />
			</g>
		</g>
		<g transform="translate(350,945) scale(0.35,0.35)">
			<g transform="" style="fill: rgb(0, 0, 0);">
				<rect width="100" height="100" />
			</g>
		</g>
		<g transform="translate(560,945) scale(0.35,0.35)">
			<g transform="" style="fill: rgb(0, 0, 0);">
				<rect width="100" height="100" />
			</g>
		</g>
		<g transform="translate(805,945) scale(0.35,0.35)">
			<g transform="" style="fill: rgb(0, 0, 0);">
				<rect width="100" height="100" />
			</g>
		</g>
		<g transform="translate(875,945) scale(0.35,0.35)">
			<g transform="" style="fill: rgb(0, 0, 0);">
				<rect width="100" height="100" />
			</g>
		</g>
		<g transform="translate(945,945) scale(0.35,0.35)">
			<g transform="" style="fill: rgb(0, 0, 0);">
				<rect width="100" height="100" />
			</g>
		</g>
		<g transform="translate(980,945) scale(0.35,0.35)">
			<g transform="" style="fill: rgb(0, 0, 0);">
				<rect width="100" height="100" />
			</g>
		</g>
		<g transform="translate(350,980) scale(0.35,0.35)">
			<g transform="" style="fill: rgb(0, 0, 0);">
				<rect width="100" height="100" />
			</g>
		</g>
		<g transform="translate(385,980) scale(0.35,0.35)">
			<g transform="" style="fill: rgb(0, 0, 0);">
				<rect width="100" height="100" />
			</g>
		</g>
		<g transform="translate(455,980) scale(0.35,0.35)">
			<g transform="" style="fill: rgb(0, 0, 0);">
				<rect width="100" height="100" />
			</g>
		</g>
		<g transform="translate(490,980) scale(0.35,0.35)">
			<g transform="" style="fill: rgb(0, 0, 0);">
				<rect width="100" height="100" />
			</g>
		</g>
		<g transform="translate(595,980) scale(0.35,0.35)">
			<g transform="" style="fill: rgb(0, 0, 0);">
				<rect width="100" height="100" />
			</g>
		</g>
		<g transform="translate(630,980) scale(0.35,0.35)">
			<g transform="" style="fill: rgb(0, 0, 0);">
				<rect width="100" height="100" />
			</g>
		</g>
		<g transform="translate(770,980) scale(0.35,0.35)">
			<g transform="" style="fill: rgb(0, 0, 0);">
				<rect width="100" height="100" />
			</g>
		</g>
		<g transform="translate(840,980) scale(0.35,0.35)">
			<g transform="" style="fill: rgb(0, 0, 0);">
				<rect width="100" height="100" />
			</g>
		</g>
		<g transform="translate(945,980) scale(0.35,0.35)">
			<g transform="" style="fill: rgb(0, 0, 0);">
				<rect width="100" height="100" />
			</g>
		</g>
		<g transform="translate(0,0) scale(2.45, 2.45)">
			<g transform="" style="fill: rgb(0, 0, 0);">
				<g>
					<rect x="15" y="15" style="fill:none;" width="70" height="70" />
					<path d="M85,0H15H0v15v70v15h15h70h15V85V15V0H85z M85,85H15V15h70V85z" />
				</g>
			</g>
		</g>
		<g transform="translate(770,0) scale(2.45, 2.45)">
			<g transform="" style="fill: rgb(0, 0, 0);">
				<g>
					<rect x="15" y="15" style="fill:none;" width="70" height="70" />
					<path d="M85,0H15H0v15v70v15h15h70h15V85V15V0H85z M85,85H15V15h70V85z" />
				</g>
			</g>
		</g>
		<g transform="translate(0,770) scale(2.45, 2.45)">
			<g transform="" style="fill: rgb(0, 0, 0);">
				<g>
					<rect x="15" y="15" style="fill:none;" width="70" height="70" />
					<path d="M85,0H15H0v15v70v15h15h70h15V85V15V0H85z M85,85H15V15h70V85z" />
				</g>
			</g>
		</g>
		<g transform="translate(70,70) scale(1.05, 1.05)">
			<g transform="" style="fill: rgb(0, 0, 0);">
				<rect width="100" height="100" />
			</g>
		</g>
		<g transform="translate(840,70) scale(1.05, 1.05)">
			<g transform="" style="fill: rgb(0, 0, 0);">
				<rect width="100" height="100" />
			</g>
		</g>
		<g transform="translate(70,840) scale(1.05, 1.05)">
			<g transform="" style="fill: rgb(0, 0, 0);">
				<rect width="100" height="100" />
			</g>
		</g>
		<svg width="230" height="286" x="401" y="359" viewBox="0 0 198 253" fill="none"
			xmlns="http://www.w3.org/2000/svg">
			<path
				d="M113.8 156.6C113.8 159.8 112.4 160.6 110.2 161.8C105.6 164.4 97.4 165 91.2 165C75 165 60.2 160.2 46.2 147.2C40 141.4 27.6 124.2 27.6 100.2C27.6 80.4 34.8 65.2 45 57.4C58.4 47.2 71.2 46.4 81.8 46.4C104.6 46.4 118 53.2 122.4 59.6C125.2 63.6 126.2 68.6 126.4 70.8C126.4 72.4 126.6 73.4 127.6 73.4C128.8 73.4 129.6 72.6 129.6 69.8C129.6 52.8 130.6 48.2 130.6 45.8C130.6 45 130.2 44.2 128.4 44.2C124 44.2 117.8 43.2 114.2 42.4C110.8 41.6 98.4 39.6 87.2 39.6C73.8 39.6 56.2 40.8 40.4 50.4C24.8 59.8 11 79 11 106.2C11 127.4 21.2 145.6 32 154.6C51.6 171.2 76.6 172.8 90 172.8C100.2 172.8 116.2 171 127.4 165.2C129.6 164 129.8 163.8 129.8 156V137C129.8 129.8 129.8 124.8 130 119.4C130.4 113.4 131.8 110.8 136.6 110C138.6 109.6 139.8 109.6 141 109.6C141.6 109.6 142.4 108.8 142.4 108.2C142.4 107 141.6 106.8 139.6 106.8C134.2 106.8 123.2 107.2 122.4 107.2C121.4 107.2 109.6 106.8 101.6 106.8C99.6 106.8 98.8 107 98.8 108.2C98.8 108.8 99.6 109.6 100.2 109.6C101.8 109.6 104.8 109.8 106.2 110C113.4 111.4 113.8 113.4 113.8 127.2V156.6Z"
				fill="black" />
			<path
				d="M84.2 96.4C84.2 93.2 85.6 92.4 87.8 91.2C92.4 88.6 100.6 88 106.8 88C123 88 137.8 92.8 151.8 105.8C158 111.6 170.4 128.8 170.4 152.8C170.4 172.6 163.2 187.8 153 195.6C139.6 205.8 126.8 206.6 116.2 206.6C93.4 206.6 80 199.8 75.6 193.4C72.8 189.4 71.8 184.4 71.6 182.2C71.6 180.6 71.4 179.6 70.4 179.6C69.2 179.6 68.4 180.4 68.4 183.2C68.4 200.2 67.4 204.8 67.4 207.2C67.4 208 67.8 208.8 69.6 208.8C74 208.8 80.2 209.8 83.8 210.6C87.2 211.4 99.6 213.4 110.8 213.4C124.2 213.4 141.8 212.2 157.6 202.6C173.2 193.2 187 174 187 146.8C187 125.6 176.8 107.4 166 98.4C146.4 81.8 121.4 80.2 108 80.2C97.8 80.2 81.8 82 70.6 87.8C68.4 89 68.2 89.2 68.2 97V116C68.2 123.2 68.2 128.2 68 133.6C67.6 139.6 66.2 142.2 61.4 143C59.4 143.4 58.2 143.4 57 143.4C56.4 143.4 55.6 144.2 55.6 144.8C55.6 146 56.4 146.2 58.4 146.2C63.8 146.2 74.8 145.8 75.6 145.8C76.6 145.8 88.4 146.2 96.4 146.2C98.4 146.2 99.2 146 99.2 144.8C99.2 144.2 98.4 143.4 97.8 143.4C96.2 143.4 93.2 143.2 91.8 143C84.6 141.6 84.2 139.6 84.2 125.8V96.4Z"
				fill="black" />
		</svg>
	</g>
</svg>