<svg width="440" height="481" viewBox="0 0 440 481" fill="none" xmlns="http://www.w3.org/2000/svg">
<path d="M237.455 374.364C237.455 377.273 236.182 378 234.182 379.091C230 381.455 222.545 382 216.909 382C202.182 382 188.727 377.636 176 365.818C170.364 360.545 159.091 344.909 159.091 323.091C159.091 305.091 165.636 291.273 174.909 284.182C187.091 274.909 198.727 274.182 208.364 274.182C229.091 274.182 241.273 280.364 245.273 286.182C247.818 289.818 248.727 294.364 248.909 296.364C248.909 297.818 249.091 298.727 250 298.727C251.091 298.727 251.818 298 251.818 295.455C251.818 280 252.727 275.818 252.727 273.636C252.727 272.909 252.364 272.182 250.727 272.182C246.727 272.182 241.091 271.273 237.818 270.545C234.727 269.818 223.455 268 213.273 268C201.091 268 185.091 269.091 170.727 277.818C156.545 286.364 144 303.818 144 328.545C144 347.818 153.273 364.364 163.091 372.545C180.909 387.636 203.636 389.091 215.818 389.091C225.091 389.091 239.636 387.455 249.818 382.182C251.818 381.091 252 380.909 252 373.818V356.545C252 350 252 345.455 252.182 340.545C252.545 335.091 253.818 332.727 258.182 332C260 331.636 261.091 331.636 262.182 331.636C262.727 331.636 263.455 330.909 263.455 330.364C263.455 329.273 262.727 329.091 260.909 329.091C256 329.091 246 329.455 245.273 329.455C244.364 329.455 233.636 329.091 226.364 329.091C224.545 329.091 223.818 329.273 223.818 330.364C223.818 330.909 224.545 331.636 225.091 331.636C226.545 331.636 229.273 331.818 230.545 332C237.091 333.273 237.455 335.091 237.455 347.636V374.364Z" fill="black"/>
<path d="M210.545 319.636C210.545 316.727 211.818 316 213.818 314.909C218 312.545 225.455 312 231.091 312C245.818 312 259.273 316.364 272 328.182C277.636 333.455 288.909 349.091 288.909 370.909C288.909 388.909 282.364 402.727 273.091 409.818C260.909 419.091 249.273 419.818 239.636 419.818C218.909 419.818 206.727 413.636 202.727 407.818C200.182 404.182 199.273 399.636 199.091 397.636C199.091 396.182 198.909 395.273 198 395.273C196.909 395.273 196.182 396 196.182 398.545C196.182 414 195.273 418.182 195.273 420.364C195.273 421.091 195.636 421.818 197.273 421.818C201.273 421.818 206.909 422.727 210.182 423.455C213.273 424.182 224.545 426 234.727 426C246.909 426 262.909 424.909 277.273 416.182C291.455 407.636 304 390.182 304 365.455C304 346.182 294.727 329.636 284.909 321.455C267.091 306.364 244.364 304.909 232.182 304.909C222.909 304.909 208.364 306.545 198.182 311.818C196.182 312.909 196 313.091 196 320.182V337.455C196 344 196 348.545 195.818 353.455C195.455 358.909 194.182 361.273 189.818 362C188 362.364 186.909 362.364 185.818 362.364C185.273 362.364 184.545 363.091 184.545 363.636C184.545 364.727 185.273 364.909 187.091 364.909C192 364.909 202 364.545 202.727 364.545C203.636 364.545 214.364 364.909 221.636 364.909C223.455 364.909 224.182 364.727 224.182 363.636C224.182 363.091 223.455 362.364 222.909 362.364C221.455 362.364 218.727 362.182 217.455 362C210.909 360.727 210.545 358.909 210.545 346.364V319.636Z" fill="black"/>
<path d="M1 218.549V224.097H2.70177C4.3599 224.118 4.38172 224.118 3.72719 224.453C0.170933 226.254 0.10548 230.378 3.61811 232.074C4.27263 232.409 4.99261 232.723 5.21079 232.765C5.53805 232.87 5.58169 233.163 5.58169 235.152V237.434L6.25803 237.581C7.218 237.769 8.3307 238.984 8.74523 240.282C9.5743 242.92 9.35612 246.5 8.26524 248.447C7.69799 249.431 6.62893 250.269 5.93077 250.269C5.62532 250.269 5.58169 250.604 5.58169 252.781V255.294H6.45439H7.32709V347V438.706H6.45439H5.58169V441.198V443.669L6.25803 443.815C7.218 444.004 8.3307 445.218 8.74523 446.516C9.5743 449.154 9.35612 452.734 8.26524 454.682C7.69799 455.666 6.62893 456.503 5.93077 456.503C5.62532 456.503 5.58169 456.817 5.58169 458.806C5.58169 460.837 5.53805 461.13 5.18897 461.235C4.99261 461.277 4.27263 461.591 3.61811 461.926C0.10548 463.622 0.170933 467.747 3.72719 469.547C4.38172 469.882 4.3599 469.882 2.70177 469.903H1V475.452V481H47.4714H93.9428V475.452V469.903H92.2628C90.5829 469.882 90.561 469.882 91.2156 469.547C94.7718 467.747 94.8373 463.622 91.3247 461.926C90.6701 461.591 89.9501 461.277 89.7538 461.235C89.4047 461.13 89.3611 460.837 89.3611 458.848V456.545L88.6847 456.419C87.7248 456.231 86.6121 455.017 86.1975 453.719C85.3685 451.08 85.5866 447.5 86.6775 445.553C87.2448 444.569 88.3138 443.731 89.012 443.731C89.3174 443.731 89.3611 443.396 89.3611 441.219V438.706H88.4884H87.6157V347V255.294H88.4884H89.3611V252.802V250.311L88.6847 250.185C87.7248 249.997 86.6121 248.782 86.1975 247.484C85.3685 244.846 85.5866 241.266 86.6775 239.319C87.2448 238.334 88.3138 237.497 89.012 237.497C89.3174 237.497 89.3611 237.183 89.3611 235.194C89.3611 233.163 89.4047 232.87 89.7538 232.765C89.9501 232.723 90.6701 232.409 91.3247 232.074C94.8373 230.378 94.7718 226.254 91.2156 224.453C90.561 224.118 90.5829 224.118 92.2628 224.097H93.9428V218.549V213H47.4714H1V218.549ZM87.0702 347V438.706H47.4714H7.87253V347V255.294H47.4714H87.0702V347Z" fill="black"/>
<path d="M8.67979 258.267C8.30889 258.623 8.30889 435.377 8.67979 435.733C9.00705 436.047 10.0107 436.047 10.3379 435.733C10.7088 435.377 10.7088 258.623 10.3379 258.267C10.1852 258.12 9.8143 258.016 9.50885 258.016C9.20341 258.016 8.83251 258.12 8.67979 258.267Z" fill="black"/>
<path d="M13.5669 258.665L12.9996 259.314V347V434.686L13.5669 435.335C14.0251 435.88 14.2869 435.984 15.0723 435.984C15.8577 435.984 16.1195 435.88 16.5777 435.335L17.145 434.686V347V259.314L16.5777 258.665C16.1195 258.12 15.8577 258.016 15.0723 258.016C14.2869 258.016 14.0251 258.12 13.5669 258.665Z" fill="black"/>
<path d="M21.1594 258.686C20.6794 259.125 20.3303 259.691 20.1994 260.214C19.9158 261.345 19.9158 432.655 20.1994 433.786C20.3303 434.309 20.6794 434.875 21.1594 435.294C21.8139 435.88 22.0975 435.984 22.9702 435.984C24.2793 435.984 25.3484 435.377 25.7847 434.414C26.2429 433.325 26.2429 260.675 25.7847 259.586C25.3484 258.623 24.2793 258.016 22.9702 258.016C22.0975 258.016 21.8139 258.12 21.1594 258.686Z" fill="black"/>
<path d="M31.4355 258.414C30.5628 258.916 29.8865 259.67 29.6029 260.382C29.2756 261.219 29.2756 432.781 29.6029 433.619C29.8865 434.33 30.8028 435.294 31.5883 435.691C32.3519 436.068 34.2282 436.068 34.9918 435.691C35.7991 435.294 36.4754 434.54 36.8899 433.639C37.1736 432.928 37.2172 424.029 37.2172 347C37.2172 269.971 37.1736 261.073 36.8899 260.361C36.4754 259.46 35.7991 258.707 34.9918 258.309C34.1409 257.89 32.221 257.932 31.4355 258.414Z" fill="black"/>
<path d="M45.3986 258.414C44.3295 258.895 43.4568 259.754 43.0205 260.78C42.715 261.491 42.6714 270.222 42.6714 347C42.6714 423.778 42.715 432.509 43.0205 433.221C44.6131 436.906 50.3293 436.906 51.922 433.221C52.2275 432.509 52.2711 423.778 52.2711 346.958C52.2711 264.192 52.2493 261.45 51.8566 260.633C50.7657 258.372 47.7767 257.346 45.3986 258.414Z" fill="black"/>
<path d="M59.7984 258.414C58.9257 258.916 58.4675 259.439 58.053 260.382C57.7693 261.052 57.7257 270.201 57.7257 347C57.7257 424.029 57.7693 432.928 58.053 433.639C58.4675 434.54 59.1438 435.294 59.9511 435.691C60.7147 436.068 62.591 436.068 63.3546 435.691C64.1401 435.294 65.0564 434.33 65.34 433.619C65.5146 433.2 65.58 407.279 65.58 347C65.58 286.721 65.5146 260.8 65.34 260.382C65.0564 259.67 64.1401 258.707 63.3546 258.309C62.5038 257.89 60.5838 257.932 59.7984 258.414Z" fill="black"/>
<path d="M70.2052 258.434C69.8125 258.665 69.3325 259.188 69.158 259.586C68.6998 260.675 68.6998 433.325 69.158 434.414C69.5943 435.377 70.6634 435.984 71.9724 435.984C72.8451 435.984 73.1288 435.88 73.7833 435.294C74.2633 434.875 74.6123 434.309 74.7433 433.786C75.0269 432.655 75.0269 261.345 74.7433 260.214C74.6123 259.691 74.2633 259.125 73.7833 258.686C73.1288 258.12 72.8451 258.016 71.9724 258.016C71.3179 258.016 70.6634 258.162 70.2052 258.434Z" fill="black"/>
<path d="M78.3651 258.665L77.7979 259.314V347V434.686L78.3651 435.335C78.8233 435.88 79.0851 435.984 79.8705 435.984C80.656 435.984 80.9178 435.88 81.3759 435.335L81.9432 434.686V347V259.314L81.3759 258.665C80.9178 258.12 80.656 258.016 79.8705 258.016C79.0851 258.016 78.8233 258.12 78.3651 258.665Z" fill="black"/>
<path d="M84.6048 258.267C84.2339 258.623 84.2339 435.377 84.6048 435.733C84.9321 436.047 85.9357 436.047 86.263 435.733C86.6339 435.377 86.6339 258.623 86.263 258.267C86.1102 258.12 85.7393 258.016 85.4339 258.016C85.1285 258.016 84.7576 258.12 84.6048 258.267Z" fill="black"/>
<path d="M347 218.549V224.097H348.702C350.36 224.118 350.382 224.118 349.727 224.453C346.171 226.254 346.105 230.378 349.618 232.074C350.273 232.409 350.993 232.723 351.211 232.765C351.538 232.87 351.582 233.163 351.582 235.152V237.434L352.258 237.581C353.218 237.769 354.331 238.984 354.745 240.282C355.574 242.92 355.356 246.5 354.265 248.447C353.698 249.431 352.629 250.269 351.931 250.269C351.625 250.269 351.582 250.604 351.582 252.781V255.294H352.454H353.327V347V438.706H352.454H351.582V441.198V443.669L352.258 443.815C353.218 444.004 354.331 445.218 354.745 446.516C355.574 449.154 355.356 452.734 354.265 454.682C353.698 455.666 352.629 456.503 351.931 456.503C351.625 456.503 351.582 456.817 351.582 458.806C351.582 460.837 351.538 461.13 351.189 461.235C350.993 461.277 350.273 461.591 349.618 461.926C346.105 463.622 346.171 467.747 349.727 469.547C350.382 469.882 350.36 469.882 348.702 469.903H347V475.452V481H393.471H439.943V475.452V469.903H438.263C436.583 469.882 436.561 469.882 437.216 469.547C440.772 467.747 440.837 463.622 437.325 461.926C436.67 461.591 435.95 461.277 435.754 461.235C435.405 461.13 435.361 460.837 435.361 458.848V456.545L434.685 456.419C433.725 456.231 432.612 455.017 432.198 453.719C431.368 451.08 431.587 447.5 432.678 445.553C433.245 444.569 434.314 443.731 435.012 443.731C435.317 443.731 435.361 443.396 435.361 441.219V438.706H434.488H433.616V347V255.294H434.488H435.361V252.802V250.311L434.685 250.185C433.725 249.997 432.612 248.782 432.198 247.484C431.368 244.846 431.587 241.266 432.678 239.319C433.245 238.334 434.314 237.497 435.012 237.497C435.317 237.497 435.361 237.183 435.361 235.194C435.361 233.163 435.405 232.87 435.754 232.765C435.95 232.723 436.67 232.409 437.325 232.074C440.837 230.378 440.772 226.254 437.216 224.453C436.561 224.118 436.583 224.118 438.263 224.097H439.943V218.549V213H393.471H347V218.549ZM433.07 347V438.706H393.471H353.873V347V255.294H393.471H433.07V347Z" fill="black"/>
<path d="M354.68 258.267C354.309 258.623 354.309 435.377 354.68 435.733C355.007 436.047 356.011 436.047 356.338 435.733C356.709 435.377 356.709 258.623 356.338 258.267C356.185 258.12 355.814 258.016 355.509 258.016C355.203 258.016 354.833 258.12 354.68 258.267Z" fill="black"/>
<path d="M359.567 258.665L359 259.314V347V434.686L359.567 435.335C360.025 435.88 360.287 435.984 361.072 435.984C361.858 435.984 362.12 435.88 362.578 435.335L363.145 434.686V347V259.314L362.578 258.665C362.12 258.12 361.858 258.016 361.072 258.016C360.287 258.016 360.025 258.12 359.567 258.665Z" fill="black"/>
<path d="M367.159 258.686C366.679 259.125 366.33 259.691 366.199 260.214C365.916 261.345 365.916 432.655 366.199 433.786C366.33 434.309 366.679 434.875 367.159 435.294C367.814 435.88 368.098 435.984 368.97 435.984C370.279 435.984 371.348 435.377 371.785 434.414C372.243 433.325 372.243 260.675 371.785 259.586C371.348 258.623 370.279 258.016 368.97 258.016C368.098 258.016 367.814 258.12 367.159 258.686Z" fill="black"/>
<path d="M377.436 258.414C376.563 258.916 375.886 259.67 375.603 260.382C375.276 261.219 375.276 432.781 375.603 433.619C375.886 434.33 376.803 435.294 377.588 435.691C378.352 436.068 380.228 436.068 380.992 435.691C381.799 435.294 382.475 434.54 382.89 433.639C383.174 432.928 383.217 424.029 383.217 347C383.217 269.971 383.174 261.073 382.89 260.361C382.475 259.46 381.799 258.707 380.992 258.309C380.141 257.89 378.221 257.932 377.436 258.414Z" fill="black"/>
<path d="M391.399 258.414C390.33 258.895 389.457 259.754 389.02 260.78C388.715 261.491 388.671 270.222 388.671 347C388.671 423.778 388.715 432.509 389.02 433.221C390.613 436.906 396.329 436.906 397.922 433.221C398.227 432.509 398.271 423.778 398.271 346.958C398.271 264.192 398.249 261.45 397.857 260.633C396.766 258.372 393.777 257.346 391.399 258.414Z" fill="black"/>
<path d="M405.798 258.414C404.926 258.916 404.468 259.439 404.053 260.382C403.769 261.052 403.726 270.201 403.726 347C403.726 424.029 403.769 432.928 404.053 433.639C404.468 434.54 405.144 435.294 405.951 435.691C406.715 436.068 408.591 436.068 409.355 435.691C410.14 435.294 411.056 434.33 411.34 433.619C411.515 433.2 411.58 407.279 411.58 347C411.58 286.721 411.515 260.8 411.34 260.382C411.056 259.67 410.14 258.707 409.355 258.309C408.504 257.89 406.584 257.932 405.798 258.414Z" fill="black"/>
<path d="M416.205 258.434C415.812 258.665 415.332 259.188 415.158 259.586C414.7 260.675 414.7 433.325 415.158 434.414C415.594 435.377 416.663 435.984 417.972 435.984C418.845 435.984 419.129 435.88 419.783 435.294C420.263 434.875 420.612 434.309 420.743 433.786C421.027 432.655 421.027 261.345 420.743 260.214C420.612 259.691 420.263 259.125 419.783 258.686C419.129 258.12 418.845 258.016 417.972 258.016C417.318 258.016 416.663 258.162 416.205 258.434Z" fill="black"/>
<path d="M424.365 258.665L423.798 259.314V347V434.686L424.365 435.335C424.823 435.88 425.085 435.984 425.871 435.984C426.656 435.984 426.918 435.88 427.376 435.335L427.943 434.686V347V259.314L427.376 258.665C426.918 258.12 426.656 258.016 425.871 258.016C425.085 258.016 424.823 258.12 424.365 258.665Z" fill="black"/>
<path d="M430.605 258.267C430.234 258.623 430.234 435.377 430.605 435.733C430.932 436.047 431.936 436.047 432.263 435.733C432.634 435.377 432.634 258.623 432.263 258.267C432.11 258.12 431.739 258.016 431.434 258.016C431.128 258.016 430.758 258.12 430.605 258.267Z" fill="black"/>
<path d="M12.3156 188.095L12.1225 161.678C12.1176 161.382 12.0464 161.09 11.9133 160.818C11.7801 160.547 11.5876 160.301 11.3468 160.097C11.1061 159.892 10.822 159.732 10.5112 159.626C10.2003 159.52 9.86888 159.47 9.53615 159.48L2.58761 159.617C2.24506 159.626 1.90396 159.573 1.58532 159.461C1.26667 159.349 0.977265 159.18 0.734927 158.964C0.492589 158.748 0.302474 158.491 0.176287 158.207C0.0501001 157.924 -0.00948664 157.62 0.00122598 157.315L0.232834 151.098C0.252905 150.517 0.526108 149.967 0.994514 149.563C1.46292 149.159 2.08974 148.933 2.74206 148.933L437.488 149.105C437.828 149.105 438.164 149.166 438.476 149.284C438.788 149.403 439.07 149.577 439.305 149.795C439.539 150.013 439.722 150.272 439.841 150.555C439.96 150.838 440.013 151.139 439.997 151.441L439.727 157.453C439.697 158.039 439.409 158.591 438.925 158.99C438.441 159.388 437.8 159.601 437.141 159.583L430.733 159.376C430.397 159.367 430.062 159.418 429.749 159.526C429.435 159.634 429.149 159.797 428.908 160.006C428.667 160.214 428.475 160.463 428.344 160.739C428.213 161.014 428.146 161.31 428.146 161.609L427.915 188.061C427.915 188.653 428.179 189.221 428.649 189.64C429.12 190.058 429.758 190.294 430.424 190.294L437.398 190.431C437.731 190.436 438.059 190.499 438.364 190.617C438.67 190.736 438.945 190.907 439.175 191.121C439.405 191.336 439.585 191.588 439.704 191.865C439.823 192.142 439.879 192.437 439.869 192.733L439.483 201.87C439.453 202.445 439.175 202.986 438.708 203.383C438.24 203.78 437.619 204.001 436.973 204L2.94801 203.966C2.28253 203.966 1.64429 203.731 1.17373 203.312C0.703161 202.893 0.438788 202.325 0.438788 201.733L0.361624 192.595C0.361624 192.302 0.426491 192.012 0.552589 191.741C0.678688 191.47 0.863504 191.224 1.0965 191.016C1.3295 190.809 1.60612 190.645 1.91055 190.532C2.21498 190.42 2.54128 190.362 2.87079 190.362H9.8064C10.1392 190.362 10.4686 190.304 10.7756 190.189C11.0826 190.075 11.3609 189.907 11.5944 189.696C11.8279 189.485 12.0119 189.235 12.1357 188.96C12.2595 188.685 12.3207 188.391 12.3156 188.095ZM261.111 169.545C261.497 166.728 260.996 164.106 259.606 161.678C258.782 160.281 257.483 159.583 255.707 159.583L185.025 159.617C184.167 159.617 183.318 159.77 182.527 160.067C181.737 160.364 181.022 160.8 180.424 161.347C179.827 161.895 179.359 162.544 179.048 163.256C178.738 163.968 178.591 164.728 178.617 165.491L178.81 170.163C178.861 171.629 178.141 187.958 176.494 187.958L168.5 185.294C166.982 185.294 167.087 171.698 167.036 170.369L166.727 163.739C166.677 162.621 166.143 161.564 165.236 160.789C164.329 160.014 163.12 159.582 161.863 159.583L112.838 159.617C111.654 159.617 110.612 159.96 109.711 160.648C107.189 162.571 106.43 165.205 107.433 168.549C107.948 170.335 106.007 192.104 104 192.516C101.221 193.089 100.176 187.106 97.4736 186.648C95.5949 186.305 94.4111 170.69 94.9258 169.064C95.9295 165.789 95.1188 163.006 92.4938 160.716C91.593 159.938 90.5251 159.548 89.2898 159.548L61.3413 159.72C56.9148 159.743 54.7016 161.712 54.7016 165.629V170.678C54.7016 171.824 54.2868 181.208 53 181.231H43.5C42.0331 181.254 42.8505 171.915 42.7733 170.61L42.3486 164.151C42.2732 162.986 41.714 161.888 40.7796 161.069C39.8451 160.25 38.602 159.769 37.2917 159.72L30.652 159.548C28.0527 159.457 26.753 160.567 26.753 162.88L26.6759 189.435C26.6759 190.053 27.0105 190.362 27.6796 190.362L41.2291 190.328C41.4149 190.328 41.5989 190.295 41.7701 190.231C41.9413 190.166 42.0962 190.072 42.2258 189.954C42.3553 189.835 42.4569 189.695 42.5244 189.541C42.5919 189.387 42.624 189.222 42.6189 189.057L42.6213 177.412C42.5699 175.625 45.9926 165.629 48 165.629L51.8064 174.835C53.7108 174.835 54.7016 165.068 54.7016 166.786L54.5472 188.095C54.5472 189.584 55.3835 190.328 57.0563 190.328L92.378 190.362C94.2567 190.362 95.1831 189.515 95.1574 187.82L94.9644 177.24C94.9537 176.632 95.2098 176.044 95.6783 175.601C96.1469 175.159 96.7909 174.896 97.4736 174.869L104.924 174.663C106.417 174.617 107.15 175.259 107.124 176.587L106.893 188.61C106.867 189.778 107.497 190.362 108.784 190.362H164.836C166.148 190.362 166.792 189.778 166.766 188.61L166.689 177.515C166.689 175.774 167.654 174.892 169.584 174.869L176.494 174.801C177.986 174.778 178.733 175.419 178.733 176.724L178.694 187.958C178.694 189.561 179.595 190.362 181.396 190.362H258.371C260.275 190.362 261.227 189.515 261.227 187.82L261.073 176.724C261.063 176.247 261.267 175.786 261.643 175.439C262.018 175.092 262.534 174.888 263.08 174.869L272.036 174.56C272.235 174.551 272.434 174.578 272.621 174.639C272.808 174.701 272.979 174.795 273.124 174.917C273.268 175.04 273.383 175.187 273.462 175.35C273.54 175.513 273.58 175.688 273.58 175.866L273.464 188.061C273.464 189.572 274.314 190.328 276.012 190.328L330.867 190.362C331.134 190.362 331.398 190.316 331.644 190.226C331.89 190.135 332.113 190.003 332.3 189.837C332.487 189.671 332.634 189.473 332.733 189.257C332.831 189.04 332.879 188.809 332.874 188.576L332.797 176.965C332.771 175.499 333.582 174.755 335.229 174.732L342.486 174.629C344.082 174.606 344.867 175.305 344.841 176.724L344.609 187.889C344.604 188.212 344.671 188.533 344.804 188.833C344.938 189.133 345.136 189.406 345.387 189.636C345.639 189.866 345.938 190.049 346.269 190.174C346.599 190.298 346.954 190.362 347.312 190.362H383.869C385.155 190.362 385.799 189.79 385.799 188.645L385.76 176.587C385.76 175.419 386.429 174.812 387.768 174.766L395.372 174.56C396.891 174.514 397.65 175.179 397.65 176.553L397.495 188.233C397.495 189.607 398.268 190.294 399.812 190.294L410.35 190.362C412.589 190.362 413.709 189.366 413.709 187.374V162.296C413.709 160.212 412.538 159.262 410.196 159.445L400.893 160.167C399.22 160.304 398.203 161.106 397.843 162.571C397.277 164.907 397.2 167.323 397.611 169.82C397.649 170.076 397.621 170.336 397.527 170.581C397.434 170.826 397.279 189.104 397.074 189.287C396.868 189.47 396.619 189.608 396.344 189.691C396.069 189.774 395.776 189.799 395.488 189.765C392.94 189.468 390.418 189.594 387.922 190.143C387.682 190.199 387.431 190.208 387.187 190.168C386.943 190.128 386.712 190.042 386.509 189.914C386.307 189.786 386.138 189.621 386.016 189.429C385.893 189.237 385.819 170.967 385.799 170.747L385.258 164.117C385.141 162.83 384.481 161.631 383.413 160.763C382.344 159.895 380.948 159.424 379.507 159.445L349.01 159.789C348.431 159.798 347.859 159.909 347.328 160.117C346.798 160.324 346.319 160.624 345.92 160.998C345.521 161.372 345.21 161.814 345.005 162.296C344.8 162.779 344.705 163.292 344.725 163.808L344.88 169.03C344.957 171.136 345.342 182.906 343 182.585C340.813 182.265 337.159 178.817 335.074 179.55C334.834 179.626 334.253 183.515 334 183.488C333.747 183.462 333.827 179.52 333.617 179.396C333.406 179.273 332.935 179.591 332.813 179.396C332.691 179.202 332.92 171.279 332.913 171.056L332.643 164.289C332.593 163.04 332.003 161.857 330.996 160.986C329.988 160.116 328.642 159.625 327.238 159.617C311.462 159.548 295.61 159.537 279.679 159.583C277.209 159.583 275.407 160.373 274.275 161.953C272.679 164.151 272.371 166.648 273.348 169.442C273.451 169.724 273.536 185.904 273.482 186.197C273.428 186.49 273.741 179.636 273.542 179.877C272.54 190.182 266.5 175.866 272.276 171.702C271.975 171.839 272.036 187.82 272.036 187.82L263.08 188.905C261.253 188.928 260.88 171.148 261.111 169.545Z" fill="black"/>
<path d="M195.555 6.49797C197.69 6.67299 199.695 6.41045 201.573 5.71034C202.73 5.27278 203.9 5.22902 205.083 5.57907C213.184 7.86315 217.929 3.50501 226.146 6.05164C227.303 6.41919 228.486 6.44544 229.695 6.1304L232.974 5.29027C234.311 4.95772 235.597 5.0365 236.831 5.52657C240.2 6.90927 243.338 6.87427 246.244 5.42155C247.195 4.94898 248.211 4.87023 249.291 5.18528C253.612 6.39295 262.091 9.29058 266 7.89038C267.132 7.48782 264.547 7.19423 269.5 8.34178C268.15 6.74282 260.162 6.84012 266 6C265.5 6.36672 264.948 6.293 265.5 6.5C266.052 6.707 264.491 6.49996 267.5 6.5C268.163 6.22034 266.5 6.5 268 6.5C269.088 6.5 280.5 8.79343 286 11.5019C364.155 40.9588 404.019 90.7961 425.197 149.474C425.455 150.139 425.917 150.725 426.586 151.233C427.435 151.863 428.489 152.186 429.749 152.204C430.208 152.208 430.658 152.29 431.06 152.442C431.461 152.594 431.803 152.811 432.054 153.075C432.305 153.339 432.458 153.642 432.5 153.957C432.542 154.271 432.472 154.589 432.295 154.882C431.678 155.897 430.547 156.405 428.901 156.405C289.462 156.37 148.647 156.37 6.45588 156.405C5.75148 156.406 5.07271 156.225 4.55704 155.898C4.04137 155.572 3.72732 155.124 3.67841 154.646C3.49839 153.175 4.51419 152.335 6.72588 152.125C8.80898 151.915 10.1077 151.11 10.622 149.71C32.8803 89.2997 73.308 39.2863 154.703 9.35688C154.992 9.25006 157.295 8.67463 157.5 8.49996C157.722 8.26194 160.41 8.21519 160.5 8C160.871 7.32273 161.5 7.5 161.5 7.5C162 7.5 163.163 7.69421 163 7.5C164.157 7.65712 162.226 7 165 7C165.778 7.28564 164.778 7.73705 165 7C170.902 7.15748 163.627 6.92677 167.124 6.99678C169.105 7.03178 170.789 6.62923 172.178 5.7891C173.155 5.19402 174.287 5.01024 175.573 5.23777C180.536 6.0954 185.345 6.03414 190 5.054C191.106 4.82646 192.07 5.01024 192.893 5.60533C193.639 6.1304 194.526 6.42796 195.555 6.49797ZM132.831 149.001C132.831 149.544 132.882 150.077 132.985 150.602C133.216 151.705 134.155 152.256 135.801 152.256L168.475 152.23C169.13 152.224 169.756 152.048 170.223 151.74C170.69 151.432 170.962 151.015 170.982 150.576C172.808 102.917 184.188 56.1851 205.122 10.3808C205.191 10.2341 205.214 10.079 205.188 9.92597C205.162 9.7729 205.088 9.62542 204.971 9.4935C204.854 9.36158 204.696 9.2483 204.509 9.16132C204.323 9.07434 204.111 9.01569 203.887 8.98932C197.201 8.1842 191.826 9.6369 187.763 13.3474C147.219 50.6279 134.489 99.8012 133.062 145.956C133.036 146.971 132.303 147.364 130.863 147.137C124.948 146.192 118.455 146.131 111.382 146.953C111.048 146.988 116.252 148.773 116.226 149.001L110.804 148.24C110.778 149.167 110.363 143.161 111.726 143.196C117.307 143.371 114.748 142.087 120.226 141.842C121.075 141.807 132.315 143.27 132.726 142.744C133.703 141.502 132.779 147.583 132.831 149.001ZM195.864 149.894C195.864 151.469 197.008 152.248 199.297 152.23L237.294 151.784C237.746 151.781 238.193 151.716 238.609 151.593C239.024 151.471 239.398 151.293 239.711 151.07C240.024 150.848 240.268 150.585 240.429 150.297C240.591 150.009 240.666 149.703 240.65 149.395C239.724 127.762 238.58 105.849 237.217 83.6552C235.635 58.1102 232.819 33.3792 224.294 10.7483C224.118 10.2829 223.768 9.8552 223.275 9.50592C222.782 9.15663 222.163 8.89742 221.478 8.75303C219.061 8.26296 216.694 8.29796 214.38 8.85805C212.991 9.1906 212.117 9.8382 211.757 10.8008C208.002 20.8998 205.456 30.3949 204.119 39.2862C198.898 74.3089 196.146 111.178 195.864 149.894ZM304.726 152.675C303.672 153.568 303.195 148.555 303.143 147.4C301.214 98.2785 289.642 50.0504 245.781 11.2209C245.233 10.7231 244.54 10.3059 243.744 9.99453C242.949 9.68317 242.067 9.48411 241.152 9.40937L232.434 8.67427C230.813 8.55175 230.235 9.02432 230.698 10.092C251.297 55.2662 262.844 101.823 265.339 149.762C265.416 151.215 266.509 151.941 268.618 151.941L299.748 151.889C301.394 151.889 302.732 151.46 303.76 150.602C304.841 149.727 306.229 149.377 307.927 149.552C314.562 150.2 320.631 149.937 326.134 148.765C326.932 148.59 327.42 148.773 327.6 149.316C327.703 149.666 327.716 149.999 327.639 150.314C327.382 151.346 328.025 151.871 329.568 151.889L356.725 151.915C358.423 151.915 359.207 151.346 359.078 150.209C357.175 133.651 352.61 115.912 345.384 96.9922C331.085 59.4842 303.825 31.0426 263.603 11.6672C261.083 10.442 258.279 9.96072 255.193 10.2233C253.547 10.3633 253.239 10.8709 254.268 11.746C298.9 50.5492 324.553 96.8608 327.755 146.087C327.832 147.049 327.589 154.257 326.226 154.03C319.9 152.98 321.655 152.392 315.226 153.127C314.778 153.178 312.026 152.438 311.726 152.675H304.726ZM171.136 12.1923C105.866 45.0359 83.3376 98.0422 76.7411 151.364C76.7249 151.47 76.7418 151.578 76.7907 151.679C76.8396 151.781 76.9194 151.875 77.025 151.954C77.1305 152.033 77.2593 152.096 77.4032 152.139C77.5471 152.183 77.7027 152.205 77.8599 152.204L106.908 152.151C107.255 152.151 107.589 152.06 107.835 151.898C108.081 151.735 108.219 151.515 108.219 151.285C109.029 100.825 134.991 52.4132 181.899 11.7722C183.031 10.7921 182.684 10.267 180.858 10.197C177.334 10.0395 174.094 10.7046 171.136 12.1923ZM55.4473 150.891C61.5808 94.8655 95.8362 48.2651 160.875 13.0324C161.621 12.6299 161.737 12.166 161.222 11.641C160.914 11.3434 160.528 11.2822 160.065 11.4572C82.8361 39.9952 51.1653 95.0755 29.3699 151.285C29.3223 151.402 29.3152 151.525 29.3491 151.645C29.383 151.764 29.457 151.876 29.5653 151.973C29.6737 152.07 29.8134 152.148 29.9736 152.202C30.1338 152.255 30.3101 152.283 30.4887 152.283L53.3641 152.204C53.8909 152.205 54.3987 152.07 54.7852 151.827C55.1717 151.583 55.4083 151.249 55.4473 150.891ZM356.995 84.2066C369.597 104.072 377.582 126.44 380.951 151.311C381.002 151.696 381.311 151.889 381.877 151.889L405.948 151.863C406.642 151.863 406.912 151.635 406.758 151.18C393.912 117.496 375.28 81.45 345.77 53.1745C328.282 36.4421 305.638 22.7288 277.837 12.0348C277.066 11.7372 276.423 11.8422 275.909 12.3498L275.33 12.9274C275.227 13.0324 275.253 13.1287 275.407 13.2162C312.131 32.7316 339.327 56.3949 356.995 84.2066Z" fill="black"/>
<path d="M188.5 1.50007C207.794 -1.06656 231.5 1.00001 241 1.5C250.5 1.99999 279 8.99997 279 8.99997L216.5 6.50007L153 10C153 10 169.206 4.06669 188.5 1.50007Z" fill="black"/>
</svg>
