<svg width="256" height="256" viewBox="0 0 256 256" fill="none" xmlns="http://www.w3.org/2000/svg">
<rect width="256" height="256" fill="white"/>
<path d="M142.8 157.6C142.8 160.8 141.4 161.6 139.2 162.8C134.6 165.4 126.4 166 120.2 166C104 166 89.2 161.2 75.2 148.2C69 142.4 56.6 125.2 56.6 101.2C56.6 81.4 63.8 66.2 74 58.4C87.4 48.2 100.2 47.4 110.8 47.4C133.6 47.4 147 54.2 151.4 60.6C154.2 64.6 155.2 69.6 155.4 71.8C155.4 73.4 155.6 74.4 156.6 74.4C157.8 74.4 158.6 73.6 158.6 70.8C158.6 53.8 159.6 49.2 159.6 46.8C159.6 46 159.2 45.2 157.4 45.2C153 45.2 146.8 44.2 143.2 43.4C139.8 42.6 127.4 40.6 116.2 40.6C102.8 40.6 85.2 41.8 69.4 51.4C53.8 60.8 40 80 40 107.2C40 128.4 50.2 146.6 61 155.6C80.6 172.2 105.6 173.8 119 173.8C129.2 173.8 145.2 172 156.4 166.2C158.6 165 158.8 164.8 158.8 157V138C158.8 130.8 158.8 125.8 159 120.4C159.4 114.4 160.8 111.8 165.6 111C167.6 110.6 168.8 110.6 170 110.6C170.6 110.6 171.4 109.8 171.4 109.2C171.4 108 170.6 107.8 168.6 107.8C163.2 107.8 152.2 108.2 151.4 108.2C150.4 108.2 138.6 107.8 130.6 107.8C128.6 107.8 127.8 108 127.8 109.2C127.8 109.8 128.6 110.6 129.2 110.6C130.8 110.6 133.8 110.8 135.2 111C142.4 112.4 142.8 114.4 142.8 128.2V157.6Z" fill="black"/>
<path d="M113.2 97.4C113.2 94.2 114.6 93.4 116.8 92.2C121.4 89.6 129.6 89 135.8 89C152 89 166.8 93.8 180.8 106.8C187 112.6 199.4 129.8 199.4 153.8C199.4 173.6 192.2 188.8 182 196.6C168.6 206.8 155.8 207.6 145.2 207.6C122.4 207.6 109 200.8 104.6 194.4C101.8 190.4 100.8 185.4 100.6 183.2C100.6 181.6 100.4 180.6 99.4 180.6C98.2 180.6 97.4 181.4 97.4 184.2C97.4 201.2 96.4 205.8 96.4 208.2C96.4 209 96.8 209.8 98.6 209.8C103 209.8 109.2 210.8 112.8 211.6C116.2 212.4 128.6 214.4 139.8 214.4C153.2 214.4 170.8 213.2 186.6 203.6C202.2 194.2 216 175 216 147.8C216 126.6 205.8 108.4 195 99.4C175.4 82.8 150.4 81.2 137 81.2C126.8 81.2 110.8 83 99.6 88.8C97.4 90 97.2 90.2 97.2 98V117C97.2 124.2 97.2 129.2 97 134.6C96.6 140.6 95.2 143.2 90.4 144C88.4 144.4 87.2 144.4 86 144.4C85.4 144.4 84.6 145.2 84.6 145.8C84.6 147 85.4 147.2 87.4 147.2C92.8 147.2 103.8 146.8 104.6 146.8C105.6 146.8 117.4 147.2 125.4 147.2C127.4 147.2 128.2 147 128.2 145.8C128.2 145.2 127.4 144.4 126.8 144.4C125.2 144.4 122.2 144.2 120.8 144C113.6 142.6 113.2 140.6 113.2 126.8V97.4Z" fill="black"/>
</svg>
