<?xml version="1.0" standalone="no"?>
<!DOCTYPE svg PUBLIC "-//W3C//DTD SVG 1.1//EN" "http://www.w3.org/Graphics/SVG/1.1/DTD/svg11.dtd">
<svg x="0.0000mm" y="0.0000mm" width="16.6690mm" height="16.6690mm" viewBox="0.0000 0.0000 16.6690 16.6690"
    version="1.1" xmlns="http://www.w3.org/2000/svg" shape-rendering="crispEdges">
    <title>TBarCode - 11.14.0.16673</title>
    <desc>BarCode licensed to MEM:TEC-IT Datenverarbeitung GmbH Internal License</desc>
    <g fill="rgb(0%,0%,0%,0)">
    </g>
    <g fill="rgba(100%,100%,100%, 0)">
        <rect x="0.0000" y="0.0000" width="16.6690" height="16.6690" />
    </g>
    <g fill="rgb(0%,0%,0%)">
    </g>
    <g fill="rgb(0%,0%,0%)">
        <rect x="0.0000" y="0.0000" width="1.1113" height="1.1113" />
        <rect x="1.1113" y="0.0000" width="1.1113" height="1.1113" />
        <rect x="2.2225" y="0.0000" width="1.1113" height="1.1113" />
        <rect x="3.3338" y="0.0000" width="1.1113" height="1.1113" />
        <rect x="4.4451" y="0.0000" width="1.1113" height="1.1113" />
        <rect x="5.5563" y="0.0000" width="1.1113" height="1.1113" />
        <rect x="6.6676" y="0.0000" width="1.1113" height="1.1113" />
        <rect x="8.8901" y="0.0000" width="1.1113" height="1.1113" />
        <rect x="11.1127" y="0.0000" width="1.1113" height="1.1113" />
        <rect x="13.3352" y="0.0000" width="1.1113" height="1.1113" />
        <rect x="15.5577" y="0.0000" width="1.1113" height="1.1113" />
    </g>
    <g fill="rgb(0%,0%,0%)">
        <rect x="0.0000" y="1.1113" width="1.1113" height="1.1113" />
        <rect x="6.6676" y="1.1113" width="1.1113" height="1.1113" />
        <rect x="12.2239" y="1.1113" width="1.1113" height="1.1113" />
        <rect x="15.5577" y="1.1113" width="1.1113" height="1.1113" />
    </g>
    <g fill="rgb(0%,0%,0%)">
        <rect x="0.0000" y="2.2225" width="1.1113" height="1.1113" />
        <rect x="2.2225" y="2.2225" width="1.1113" height="1.1113" />
        <rect x="3.3338" y="2.2225" width="1.1113" height="1.1113" />
        <rect x="4.4451" y="2.2225" width="1.1113" height="1.1113" />
        <rect x="6.6676" y="2.2225" width="1.1113" height="1.1113" />
        <rect x="8.8901" y="2.2225" width="1.1113" height="1.1113" />
        <rect x="12.2239" y="2.2225" width="1.1113" height="1.1113" />
        <rect x="13.3352" y="2.2225" width="1.1113" height="1.1113" />
        <rect x="14.4465" y="2.2225" width="1.1113" height="1.1113" />
        <rect x="15.5577" y="2.2225" width="1.1113" height="1.1113" />
    </g>
    <g fill="rgb(0%,0%,0%)">
        <rect x="0.0000" y="3.3338" width="1.1113" height="1.1113" />
        <rect x="2.2225" y="3.3338" width="1.1113" height="1.1113" />
        <rect x="3.3338" y="3.3338" width="1.1113" height="1.1113" />
        <rect x="4.4451" y="3.3338" width="1.1113" height="1.1113" />
        <rect x="6.6676" y="3.3338" width="1.1113" height="1.1113" />
        <rect x="8.8901" y="3.3338" width="1.1113" height="1.1113" />
        <rect x="11.1127" y="3.3338" width="1.1113" height="1.1113" />
        <rect x="14.4465" y="3.3338" width="1.1113" height="1.1113" />
        <rect x="15.5577" y="3.3338" width="1.1113" height="1.1113" />
    </g>
    <g fill="rgb(0%,0%,0%)">
        <rect x="0.0000" y="4.4451" width="1.1113" height="1.1113" />
        <rect x="2.2225" y="4.4451" width="1.1113" height="1.1113" />
        <rect x="3.3338" y="4.4451" width="1.1113" height="1.1113" />
        <rect x="4.4451" y="4.4451" width="1.1113" height="1.1113" />
        <rect x="6.6676" y="4.4451" width="1.1113" height="1.1113" />
        <rect x="10.0014" y="4.4451" width="1.1113" height="1.1113" />
        <rect x="11.1127" y="4.4451" width="1.1113" height="1.1113" />
        <rect x="14.4465" y="4.4451" width="1.1113" height="1.1113" />
    </g>
    <g fill="rgb(0%,0%,0%)">
        <rect x="0.0000" y="5.5563" width="1.1113" height="1.1113" />
        <rect x="6.6676" y="5.5563" width="1.1113" height="1.1113" />
        <rect x="8.8901" y="5.5563" width="1.1113" height="1.1113" />
        <rect x="10.0014" y="5.5563" width="1.1113" height="1.1113" />
        <rect x="11.1127" y="5.5563" width="1.1113" height="1.1113" />
        <rect x="14.4465" y="5.5563" width="1.1113" height="1.1113" />
        <rect x="15.5577" y="5.5563" width="1.1113" height="1.1113" />
    </g>
    <g fill="rgb(0%,0%,0%)">
        <rect x="0.0000" y="6.6676" width="1.1113" height="1.1113" />
        <rect x="1.1113" y="6.6676" width="1.1113" height="1.1113" />
        <rect x="2.2225" y="6.6676" width="1.1113" height="1.1113" />
        <rect x="3.3338" y="6.6676" width="1.1113" height="1.1113" />
        <rect x="4.4451" y="6.6676" width="1.1113" height="1.1113" />
        <rect x="5.5563" y="6.6676" width="1.1113" height="1.1113" />
        <rect x="6.6676" y="6.6676" width="1.1113" height="1.1113" />
        <rect x="13.3352" y="6.6676" width="1.1113" height="1.1113" />
        <rect x="14.4465" y="6.6676" width="1.1113" height="1.1113" />
    </g>
    <g fill="rgb(0%,0%,0%)">
        <rect x="10.0014" y="7.7789" width="1.1113" height="1.1113" />
        <rect x="15.5577" y="7.7789" width="1.1113" height="1.1113" />
    </g>
    <g fill="rgb(0%,0%,0%)">
        <rect x="0.0000" y="8.8901" width="1.1113" height="1.1113" />
        <rect x="1.1113" y="8.8901" width="1.1113" height="1.1113" />
        <rect x="2.2225" y="8.8901" width="1.1113" height="1.1113" />
        <rect x="3.3338" y="8.8901" width="1.1113" height="1.1113" />
        <rect x="4.4451" y="8.8901" width="1.1113" height="1.1113" />
        <rect x="5.5563" y="8.8901" width="1.1113" height="1.1113" />
        <rect x="11.1127" y="8.8901" width="1.1113" height="1.1113" />
        <rect x="14.4465" y="8.8901" width="1.1113" height="1.1113" />
    </g>
    <g fill="rgb(0%,0%,0%)">
        <rect x="2.2225" y="10.0014" width="1.1113" height="1.1113" />
        <rect x="4.4451" y="10.0014" width="1.1113" height="1.1113" />
        <rect x="5.5563" y="10.0014" width="1.1113" height="1.1113" />
        <rect x="7.7789" y="10.0014" width="1.1113" height="1.1113" />
        <rect x="10.0014" y="10.0014" width="1.1113" height="1.1113" />
        <rect x="11.1127" y="10.0014" width="1.1113" height="1.1113" />
        <rect x="12.2239" y="10.0014" width="1.1113" height="1.1113" />
        <rect x="13.3352" y="10.0014" width="1.1113" height="1.1113" />
        <rect x="14.4465" y="10.0014" width="1.1113" height="1.1113" />
    </g>
    <g fill="rgb(0%,0%,0%)">
        <rect x="0.0000" y="11.1127" width="1.1113" height="1.1113" />
        <rect x="1.1113" y="11.1127" width="1.1113" height="1.1113" />
        <rect x="2.2225" y="11.1127" width="1.1113" height="1.1113" />
        <rect x="4.4451" y="11.1127" width="1.1113" height="1.1113" />
        <rect x="7.7789" y="11.1127" width="1.1113" height="1.1113" />
        <rect x="8.8901" y="11.1127" width="1.1113" height="1.1113" />
        <rect x="10.0014" y="11.1127" width="1.1113" height="1.1113" />
        <rect x="11.1127" y="11.1127" width="1.1113" height="1.1113" />
        <rect x="12.2239" y="11.1127" width="1.1113" height="1.1113" />
        <rect x="13.3352" y="11.1127" width="1.1113" height="1.1113" />
    </g>
    <g fill="rgb(0%,0%,0%)">
        <rect x="3.3338" y="12.2239" width="1.1113" height="1.1113" />
        <rect x="5.5563" y="12.2239" width="1.1113" height="1.1113" />
        <rect x="8.8901" y="12.2239" width="1.1113" height="1.1113" />
        <rect x="10.0014" y="12.2239" width="1.1113" height="1.1113" />
        <rect x="11.1127" y="12.2239" width="1.1113" height="1.1113" />
        <rect x="12.2239" y="12.2239" width="1.1113" height="1.1113" />
        <rect x="14.4465" y="12.2239" width="1.1113" height="1.1113" />
    </g>
    <g fill="rgb(0%,0%,0%)">
        <rect x="0.0000" y="13.3352" width="1.1113" height="1.1113" />
        <rect x="1.1113" y="13.3352" width="1.1113" height="1.1113" />
        <rect x="2.2225" y="13.3352" width="1.1113" height="1.1113" />
        <rect x="3.3338" y="13.3352" width="1.1113" height="1.1113" />
        <rect x="4.4451" y="13.3352" width="1.1113" height="1.1113" />
        <rect x="8.8901" y="13.3352" width="1.1113" height="1.1113" />
        <rect x="10.0014" y="13.3352" width="1.1113" height="1.1113" />
        <rect x="11.1127" y="13.3352" width="1.1113" height="1.1113" />
        <rect x="15.5577" y="13.3352" width="1.1113" height="1.1113" />
    </g>
    <g fill="rgb(0%,0%,0%)">
        <rect x="5.5563" y="14.4465" width="1.1113" height="1.1113" />
        <rect x="6.6676" y="14.4465" width="1.1113" height="1.1113" />
        <rect x="7.7789" y="14.4465" width="1.1113" height="1.1113" />
        <rect x="10.0014" y="14.4465" width="1.1113" height="1.1113" />
        <rect x="14.4465" y="14.4465" width="1.1113" height="1.1113" />
    </g>
    <g fill="rgb(0%,0%,0%)">
        <rect x="0.0000" y="15.5577" width="1.1113" height="1.1113" />
        <rect x="1.1113" y="15.5577" width="1.1113" height="1.1113" />
        <rect x="5.5563" y="15.5577" width="1.1113" height="1.1113" />
        <rect x="6.6676" y="15.5577" width="1.1113" height="1.1113" />
        <rect x="8.8901" y="15.5577" width="1.1113" height="1.1113" />
        <rect x="10.0014" y="15.5577" width="1.1113" height="1.1113" />
        <rect x="12.2239" y="15.5577" width="1.1113" height="1.1113" />
        <rect x="13.3352" y="15.5577" width="1.1113" height="1.1113" />
        <rect x="14.4465" y="15.5577" width="1.1113" height="1.1113" />
        <rect x="15.5577" y="15.5577" width="1.1113" height="1.1113" />
    </g>
</svg>
