<?xml version="1.0" encoding="UTF-8" standalone="no"?>
<svg
   width="400"
   height="200"
   viewBox="0 0 400 200"
   fill="none"
   version="1.1"
   id="svg4"
   xmlns="http://www.w3.org/2000/svg"
   xmlns:svg="http://www.w3.org/2000/svg">
  <defs
     id="defs8" />
  <rect
     style="fill:#0057b8;fill-opacity:1;stroke-width:2.63684;paint-order:markers fill stroke"
     id="rect2350"
     width="400"
     height="200"
     x="0"
     y="0" />
  <path
     d="M 120.13133,87.55455 H 139.68031 V 117.69537 H 120.13133 Z M 39.443654,100.29943 C 39.443654,104.60487 37.069367,106.63102 31.996133,106.63102 26.922991,106.63102 24.546024,104.60755 24.546024,100.29943 V 87.55455 H 5 V 101.03285 C 5,113.64843 12.059684,118.12539 31.996133,118.12539 51.932618,118.12539 58.992358,113.64057 58.992358,101.03285 V 87.55455 H 39.443654 Z M 141.74583,98.75089 H 158.1018 V 117.69537 H 177.65078 V 98.75089 H 194.00768 V 87.55455 H 141.74583 Z M 98.34585,103.18562 83.060164,87.55455 H 61.498524 V 117.69537 H 80.786057 V 102.06432 L 96.05835,117.69537 H 117.63052 V 87.55455 H 98.34585 Z M 345.44505,93.93097 C 345.44505,85.70784 338.16905,81.87461 322.84168,81.87461 306.30827,81.87461 299.33263,86.26714 299.33263,96.77224 H 314.70251 C 314.70251,93.15532 317.24306,91.86268 322.28256,91.86268 327.18898,91.86268 328.74066,92.7253 328.74066,94.06017 328.74066,95.82515 328.18062,95.82515 315.81336,98.70866 302.12363,101.93771 297.87429,108.31153 297.87429,114.46891 V 117.69805 H 344.33142 V 107.91312 H 317.15896 C 318.79751,106.3619 323.44517,105.93188 333.73673,103.95591 340.58021,102.66845 345.44505,100.29943 345.44505,93.93097 Z M 196.08336,117.69537 H 240.56 V 108.70458 H 214.77472 V 106.16403 H 233.11765 V 99.09385 H 214.77472 V 96.55331 H 240.56555 V 87.55455 H 196.08336 Z M 395,101.67922 V 111.75425 H 388.02436 V 117.69537 H 372.14064 V 111.75425 H 345.92007 V 101.58153 L 364.73526,83.06706 H 388.02713 V 101.66868 Z M 372.13787,91.77562 362.11246,101.67922 H 372.13787 Z M 298.51474,102.63684 C 298.51474,112.75411 292.14166,117.70591 279.00827,117.70591 H 243.05896 V 87.55455 H 279.00827 C 292.14166,87.55455 298.51474,92.50636 298.51474,102.63684 Z M 279.44078,102.63684 C 279.44078,99.23359 277.54438,97.64022 273.58431,97.64022 H 262.13199 V 107.63088 H 273.58431 C 277.54438,107.62034 279.44078,106.02689 279.44078,102.63684 Z"
     fill="white"
     id="path2"
     style="fill:#ffd801;fill-opacity:1;stroke-width:0.924171" />
</svg>
