<svg width="579" height="253" viewBox="0 0 579 253" fill="none" xmlns="http://www.w3.org/2000/svg">
<path d="M494.8 156.6C494.8 159.8 493.4 160.6 491.2 161.8C486.6 164.4 478.4 165 472.2 165C456 165 441.2 160.2 427.2 147.2C421 141.4 408.6 124.2 408.6 100.2C408.6 80.4 415.8 65.2 426 57.4C439.4 47.2 452.2 46.4 462.8 46.4C485.6 46.4 499 53.2 503.4 59.6C506.2 63.6 507.2 68.6 507.4 70.8C507.4 72.4 507.6 73.4 508.6 73.4C509.8 73.4 510.6 72.6 510.6 69.8C510.6 52.8 511.6 48.2 511.6 45.8C511.6 45 511.2 44.2 509.4 44.2C505 44.2 498.8 43.2 495.2 42.4C491.8 41.6 479.4 39.6 468.2 39.6C454.8 39.6 437.2 40.8 421.4 50.4C405.8 59.8 392 79 392 106.2C392 127.4 402.2 145.6 413 154.6C432.6 171.2 457.6 172.8 471 172.8C481.2 172.8 497.2 171 508.4 165.2C510.6 164 510.8 163.8 510.8 156V137C510.8 129.8 510.8 124.8 511 119.4C511.4 113.4 512.8 110.8 517.6 110C519.6 109.6 520.8 109.6 522 109.6C522.6 109.6 523.4 108.8 523.4 108.2C523.4 107 522.6 106.8 520.6 106.8C515.2 106.8 504.2 107.2 503.4 107.2C502.4 107.2 490.6 106.8 482.6 106.8C480.6 106.8 479.8 107 479.8 108.2C479.8 108.8 480.6 109.6 481.2 109.6C482.8 109.6 485.8 109.8 487.2 110C494.4 111.4 494.8 113.4 494.8 127.2V156.6Z" fill="black"/>
<path d="M465.2 96.4C465.2 93.2 466.6 92.4 468.8 91.2C473.4 88.6 481.6 88 487.8 88C504 88 518.8 92.8 532.8 105.8C539 111.6 551.4 128.8 551.4 152.8C551.4 172.6 544.2 187.8 534 195.6C520.6 205.8 507.8 206.6 497.2 206.6C474.4 206.6 461 199.8 456.6 193.4C453.8 189.4 452.8 184.4 452.6 182.2C452.6 180.6 452.4 179.6 451.4 179.6C450.2 179.6 449.4 180.4 449.4 183.2C449.4 200.2 448.4 204.8 448.4 207.2C448.4 208 448.8 208.8 450.6 208.8C455 208.8 461.2 209.8 464.8 210.6C468.2 211.4 480.6 213.4 491.8 213.4C505.2 213.4 522.8 212.2 538.6 202.6C554.2 193.2 568 174 568 146.8C568 125.6 557.8 107.4 547 98.4C527.4 81.8 502.4 80.2 489 80.2C478.8 80.2 462.8 82 451.6 87.8C449.4 89 449.2 89.2 449.2 97V116C449.2 123.2 449.2 128.2 449 133.6C448.6 139.6 447.2 142.2 442.4 143C440.4 143.4 439.2 143.4 438 143.4C437.4 143.4 436.6 144.2 436.6 144.8C436.6 146 437.4 146.2 439.4 146.2C444.8 146.2 455.8 145.8 456.6 145.8C457.6 145.8 469.4 146.2 477.4 146.2C479.4 146.2 480.2 146 480.2 144.8C480.2 144.2 479.4 143.4 478.8 143.4C477.2 143.4 474.2 143.2 472.8 143C465.6 141.6 465.2 139.6 465.2 125.8V96.4Z" fill="black"/>
<path d="M31 134.2V104.2C31 77.8 31 73 30.6 67.6C30.2 61.8 29.2 58.6 23.4 57.8C22 57.6 19 57.4 17.4 57.4C16.8 57.4 16 57 16 56.4C16 55.4 16.8 55 18.8 55C26.8 55 38.2 55.4 39.2 55.4C43.4 55.4 51.6 55 59.8 55C89.2 55 96.8 72 96.8 81C96.8 94.4 88 102.8 79 110.8C92.4 114.8 110 127 110 146.2C110 165.2 95.8 184 65.8 184C62.6 184 56.2 183.8 50.6 183.4C45 183.2 40 183 39.2 183C38.8 183 35.6 183.2 32 183.2C28.4 183.4 24.2 183.6 21.4 183.6C19.6 183.6 18.6 183.2 18.6 182.2C18.6 181.6 19 181.2 20 181.2C21.6 181.2 23.8 180.6 25.4 180.4C28.8 179.8 29.2 176 30 171C31 164 31 150.6 31 134.2ZM46.2 63V107.8C46.2 109 46.6 109.4 47.4 109.6C48.4 109.8 51.6 110.4 58.2 110.4C68 110.4 71.8 110 75.4 106C79.2 101.8 82.2 96 82.2 87.8C82.2 74.8 75 60.4 57.4 60.4C55.4 60.4 51.2 60.6 48.4 61.2C46.8 61.6 46.2 62 46.2 63ZM46.2 117.2V126.6C46.2 139.8 46.2 160.2 46.4 162.8C47 171 47 173 52.4 175.6C57.2 177.8 64.6 178 67.8 178C79.4 178 93.6 173.6 93.6 151.8C93.6 144.2 90.6 129.6 76.8 120.8C70.8 117 65.2 117.2 61 116.4C58.8 116 50 116 47.2 116C46.6 116 46.2 116.4 46.2 117.2ZM163.797 104.2V134.6C163.797 159.6 164.197 169.8 167.397 172.8C170.197 175.6 176.997 176.8 190.797 176.8C199.997 176.8 207.797 176.6 211.997 171.6C214.197 169 215.597 165.4 216.197 162C216.397 160.8 216.997 159.8 217.997 159.8C218.797 159.8 219.197 160.6 219.197 162.4C219.197 164.2 217.997 174.4 216.597 179.4C215.397 183.4 214.797 184 205.397 184C192.797 184 182.997 183.8 174.797 183.4C166.797 183.2 160.797 183 155.597 183C154.797 183 151.797 183 148.397 183.2C144.797 183.4 140.997 183.6 138.197 183.6C136.397 183.6 135.397 183.2 135.397 182.2C135.397 181.6 135.797 180.8 136.797 180.8C138.397 180.8 140.597 180.4 142.197 180C145.597 179.2 145.997 176 146.797 171C147.797 164 147.797 150.6 147.797 134.2V104.2C147.797 77.8 147.797 73 147.397 67.6C146.997 61.8 145.997 59 140.197 58.2C138.797 58 135.797 57.8 134.197 57.8C133.597 57.8 132.797 57 132.797 56.4C132.797 55.4 133.597 55 135.597 55C143.597 55 154.597 55.4 155.597 55.4C156.397 55.4 169.597 55 174.997 55C176.797 55 177.797 55.4 177.797 56.4C177.797 57 176.997 57.6 176.397 57.6C175.197 57.6 172.597 57.8 170.597 58C165.397 59 164.397 61.6 163.997 67.6C163.797 73 163.797 77.8 163.797 104.2ZM230.336 119C230.336 91.6 251.536 52.6 300.136 52.6C339.736 52.6 369.736 76.8 369.736 116.4C369.736 154.4 341.536 185.8 299.136 185.8C250.936 185.8 230.336 149.6 230.336 119ZM248.536 114.4C248.536 154 272.336 178.8 304.136 178.8C319.936 178.8 351.736 170.4 351.736 121.2C351.736 80.4 326.936 59 299.136 59C269.736 59 248.536 77.4 248.536 114.4Z" fill="black"/>
</svg>
