<svg width="720" height="261" viewBox="0 0 720 261" fill="none" xmlns="http://www.w3.org/2000/svg">
<path d="M672 49.968C672 53.64 674.472 57.984 680.256 57.984C685.344 57.984 688.728 54.216 688.728 49.656C688.728 44.904 685.128 42 680.376 42C674.544 42 672 46.68 672 49.968Z" fill="black"/>
<path d="M31 208.968C31 212.64 33.472 216.984 39.256 216.984C44.344 216.984 47.728 213.216 47.728 208.656C47.728 203.904 44.128 201 39.376 201C33.544 201 31 205.68 31 208.968Z" fill="black"/>
<path d="M673 148.8C673 175.2 673 180 672.8 185.4C672.4 191.4 671.4 194 666.2 195C664.2 195.2 661.6 195.4 660.4 195.4C659.8 195.4 659 196 659 196.6C659 197.6 660 198 661.8 198C667.2 198 680.4 197.6 681.2 197.6C682.2 197.6 693.2 198 701.2 198C703.2 198 704 197.6 704 196.6C704 196 703.2 195.2 702.6 195.2C701 195.2 698 195 696.6 194.8C690.8 194 689.8 191.2 689.4 185.4C689 180 689 175.2 689 148.8V118.8C689 102.4 689 89 690 82C690.8 77 691.2 73.8 694.6 73C696.2 72.6 698.4 72.2 700 72.2C701 72.2 701.4 71.4 701.4 70.8C701.4 69.8 700.4 69.4 698.6 69.4C695.8 69.4 692 69.6 688.4 69.8C685 70 682 70 681.2 70C676 70 670 69.8 662 69.6C653.8 69.2 644 69 631.4 69C622 69 621.4 69.6 620.2 73.6C618.8 78.6 617.6 88.8 617.6 90.6C617.6 92.4 618 93.2 618.8 93.2C619.8 93.2 620.4 92.2 620.6 91C621.2 87.6 622.6 84 624.8 81.4C629 76.4 636.8 76.2 646 76.2C659.8 76.2 666.6 77.4 669.4 80.2C672.6 83.2 673 93.4 673 118.4V148.8ZM606.461 134C606.461 103.4 585.861 67.2 537.661 67.2C495.261 67.2 467.061 98.6 467.061 136.6C467.061 176.2 497.061 200.4 536.661 200.4C585.261 200.4 606.461 161.4 606.461 134ZM588.261 138.6C588.261 175.6 567.061 194 537.661 194C509.861 194 485.061 172.6 485.061 131.8C485.061 82.6 516.861 74.2 532.661 74.2C564.461 74.2 588.261 99 588.261 138.6Z" fill="black"/>
<path d="M47 112.2C47 85.8 47 81 47.2 75.6C47.6 69.6 48.6 67 53.8 66C55.8 65.8 58.4 65.6 59.6 65.6C60.2 65.6 61 65 61 64.4C61 63.4 60 63 58.2 63C52.8 63 39.6 63.4 38.8 63.4C37.8 63.4 26.8 63 18.8 63C16.8 63 16 63.4 16 64.4C16 65 16.8 65.8 17.4 65.8C19 65.8 22 66 23.4 66.2C29.2 67 30.2 69.8 30.6 75.6C31 81 31 85.8 31 112.2L31 142.2C31 158.6 31 172 30 179C29.2 184 28.8 187.2 25.4 188C23.8 188.4 21.6 188.8 20 188.8C19 188.8 18.6 189.6 18.6 190.2C18.6 191.2 19.6 191.6 21.4 191.6C24.2 191.6 28 191.4 31.6 191.2C35 191 38 191 38.8 191C44 191 50 191.2 58 191.4C66.2 191.8 76 192 88.6 192C98 192 98.6 191.4 99.8 187.4C101.2 182.4 102.4 172.2 102.4 170.4C102.4 168.6 102 167.8 101.2 167.8C100.2 167.8 99.6 168.8 99.4 170C98.8 173.4 97.4 177 95.2 179.6C91 184.6 83.2 184.8 74 184.8C60.2 184.8 53.4 183.6 50.6 180.8C47.4 177.8 47 167.6 47 142.6V112.2ZM113.539 127C113.539 157.6 134.139 193.8 182.339 193.8C224.739 193.8 252.939 162.4 252.939 124.4C252.939 84.8 222.939 60.6 183.339 60.6C134.739 60.6 113.539 99.6 113.539 127ZM131.739 122.4C131.739 85.4 152.939 67 182.339 67C210.139 67 234.939 88.4 234.939 129.2C234.939 178.4 203.139 186.8 187.339 186.8C155.539 186.8 131.739 162 131.739 122.4Z" fill="black"/>
<path d="M374.8 160.6C374.8 163.8 373.4 164.6 371.2 165.8C366.6 168.4 358.4 169 352.2 169C336 169 321.2 164.2 307.2 151.2C301 145.4 288.6 128.2 288.6 104.2C288.6 84.4 295.8 69.2 306 61.4C319.4 51.2 332.2 50.4 342.8 50.4C365.6 50.4 379 57.2 383.4 63.6C386.2 67.6 387.2 72.6 387.4 74.8C387.4 76.4 387.6 77.4 388.6 77.4C389.8 77.4 390.6 76.6 390.6 73.8C390.6 56.8 391.6 52.2 391.6 49.8C391.6 49 391.2 48.2 389.4 48.2C385 48.2 378.8 47.2 375.2 46.4C371.8 45.6 359.4 43.6 348.2 43.6C334.8 43.6 317.2 44.8 301.4 54.4C285.8 63.8 272 83 272 110.2C272 131.4 282.2 149.6 293 158.6C312.6 175.2 337.6 176.8 351 176.8C361.2 176.8 377.2 175 388.4 169.2C390.6 168 390.8 167.8 390.8 160V141C390.8 133.8 390.8 128.8 391 123.4C391.4 117.4 392.8 114.8 397.6 114C399.6 113.6 400.8 113.6 402 113.6C402.6 113.6 403.4 112.8 403.4 112.2C403.4 111 402.6 110.8 400.6 110.8C395.2 110.8 384.2 111.2 383.4 111.2C382.4 111.2 370.6 110.8 362.6 110.8C360.6 110.8 359.8 111 359.8 112.2C359.8 112.8 360.6 113.6 361.2 113.6C362.8 113.6 365.8 113.8 367.2 114C374.4 115.4 374.8 117.4 374.8 131.2V160.6Z" fill="black"/>
<path d="M345.2 100.4C345.2 97.2 346.6 96.4 348.8 95.2C353.4 92.6 361.6 92 367.8 92C384 92 398.8 96.8 412.8 109.8C419 115.6 431.4 132.8 431.4 156.8C431.4 176.6 424.2 191.8 414 199.6C400.6 209.8 387.8 210.6 377.2 210.6C354.4 210.6 341 203.8 336.6 197.4C333.8 193.4 332.8 188.4 332.6 186.2C332.6 184.6 332.4 183.6 331.4 183.6C330.2 183.6 329.4 184.4 329.4 187.2C329.4 204.2 328.4 208.8 328.4 211.2C328.4 212 328.8 212.8 330.6 212.8C335 212.8 341.2 213.8 344.8 214.6C348.2 215.4 360.6 217.4 371.8 217.4C385.2 217.4 402.8 216.2 418.6 206.6C434.2 197.2 448 178 448 150.8C448 129.6 437.8 111.4 427 102.4C407.4 85.8 382.4 84.2 369 84.2C358.8 84.2 342.8 86 331.6 91.8C329.4 93 329.2 93.2 329.2 101V120C329.2 127.2 329.2 132.2 329 137.6C328.6 143.6 327.2 146.2 322.4 147C320.4 147.4 319.2 147.4 318 147.4C317.4 147.4 316.6 148.2 316.6 148.8C316.6 150 317.4 150.2 319.4 150.2C324.8 150.2 335.8 149.8 336.6 149.8C337.6 149.8 349.4 150.2 357.4 150.2C359.4 150.2 360.2 150 360.2 148.8C360.2 148.2 359.4 147.4 358.8 147.4C357.2 147.4 354.2 147.2 352.8 147C345.6 145.6 345.2 143.6 345.2 129.8V100.4Z" fill="black"/>
</svg>
