<svg width="176" height="175" viewBox="0 0 176 175" fill="none" xmlns="http://www.w3.org/2000/svg">
<path d="M102.8 117.6C102.8 120.8 101.4 121.6 99.2 122.8C94.6 125.4 86.4 126 80.2 126C64 126 49.2 121.2 35.2 108.2C29 102.4 16.6 85.2 16.6 61.2C16.6 41.4 23.8 26.2 34 18.4C47.4 8.19997 60.2 7.39997 70.8 7.39997C93.6 7.39997 107 14.2 111.4 20.6C114.2 24.6 115.2 29.6 115.4 31.8C115.4 33.4 115.6 34.4 116.6 34.4C117.8 34.4 118.6 33.6 118.6 30.8C118.6 13.8 119.6 9.19997 119.6 6.79997C119.6 5.99998 119.2 5.19998 117.4 5.19998C113 5.19998 106.8 4.19998 103.2 3.39998C99.8 2.59997 87.4 0.599976 76.2 0.599976C62.8 0.599976 45.2 1.79997 29.4 11.4C13.8 20.8 0 40 0 67.2C0 88.4 10.2 106.6 21 115.6C40.6 132.2 65.6 133.8 79 133.8C89.2 133.8 105.2 132 116.4 126.2C118.6 125 118.8 124.8 118.8 117V98C118.8 90.8 118.8 85.8 119 80.4C119.4 74.4 120.8 71.8 125.6 71C127.6 70.6 128.8 70.6 130 70.6C130.6 70.6 131.4 69.8 131.4 69.2C131.4 68 130.6 67.8 128.6 67.8C123.2 67.8 112.2 68.2 111.4 68.2C110.4 68.2 98.6 67.8 90.6 67.8C88.6 67.8 87.8 68 87.8 69.2C87.8 69.8 88.6 70.6 89.2 70.6C90.8 70.6 93.8 70.8 95.2 71C102.4 72.4 102.8 74.4 102.8 88.2V117.6Z" fill="black"/>
<path d="M73.2 57.4C73.2 54.2 74.6 53.4 76.8 52.2C81.4 49.6 89.6 49 95.8 49C112 49 126.8 53.8 140.8 66.8C147 72.6 159.4 89.8 159.4 113.8C159.4 133.6 152.2 148.8 142 156.6C128.6 166.8 115.8 167.6 105.2 167.6C82.4 167.6 69 160.8 64.6 154.4C61.8 150.4 60.8 145.4 60.6 143.2C60.6 141.6 60.4 140.6 59.4 140.6C58.2 140.6 57.4 141.4 57.4 144.2C57.4 161.2 56.4 165.8 56.4 168.2C56.4 169 56.8 169.8 58.6 169.8C63 169.8 69.2 170.8 72.8 171.6C76.2 172.4 88.6 174.4 99.8 174.4C113.2 174.4 130.8 173.2 146.6 163.6C162.2 154.2 176 135 176 107.8C176 86.6 165.8 68.4 155 59.4C135.4 42.8 110.4 41.2 97 41.2C86.8 41.2 70.8 43 59.6 48.8C57.4 50 57.2 50.2 57.2 58V77C57.2 84.2 57.2 89.2 57 94.6C56.6 100.6 55.2 103.2 50.4 104C48.4 104.4 47.2 104.4 46 104.4C45.4 104.4 44.6 105.2 44.6 105.8C44.6 107 45.4 107.2 47.4 107.2C52.8 107.2 63.8 106.8 64.6 106.8C65.6 106.8 77.4 107.2 85.4 107.2C87.4 107.2 88.2 107 88.2 105.8C88.2 105.2 87.4 104.4 86.8 104.4C85.2 104.4 82.2 104.2 80.8 104C73.6 102.6 73.2 100.6 73.2 86.8V57.4Z" fill="black"/>
</svg>
