<svg width="162" height="158" viewBox="0 0 162 158" fill="none" xmlns="http://www.w3.org/2000/svg">
    <path fill-rule="evenodd" clip-rule="evenodd"
        d="M81.4784 0.911377C37.0157 0.911377 0.96106 36.958 0.96106 81.4287C0.96106 117.002 24.0317 147.183 56.0237 157.83C60.0477 158.575 61.5251 156.083 61.5251 153.957C61.5251 152.038 61.4504 145.694 61.4157 138.966C39.0157 143.837 34.2891 129.466 34.2891 129.466C30.6264 120.161 25.3491 117.685 25.3491 117.685C18.0437 112.687 25.8997 112.79 25.8997 112.79C33.9851 113.358 38.2424 121.089 38.2424 121.089C45.4237 133.397 57.0784 129.838 61.6731 127.781C62.3971 122.578 64.4824 119.025 66.7851 117.014C48.9011 114.979 30.1011 108.074 30.1011 77.222C30.1011 68.4327 33.2464 61.2487 38.3971 55.61C37.5611 53.582 34.8051 45.3927 39.1784 34.302C39.1784 34.302 45.9397 32.1394 61.3251 42.5567C67.7477 40.7727 74.6357 39.878 81.4784 39.846C88.3211 39.878 95.2144 40.7727 101.649 42.5567C117.017 32.1394 123.769 34.302 123.769 34.302C128.152 45.3927 125.396 53.582 124.56 55.61C129.722 61.2487 132.845 68.4327 132.845 77.222C132.845 108.149 114.009 114.957 96.0797 116.95C98.9677 119.449 101.541 124.349 101.541 131.861C101.541 142.634 101.449 151.305 101.449 153.957C101.449 156.101 102.897 158.61 106.978 157.821C138.954 147.162 161.996 116.991 161.996 81.4287C161.996 36.958 125.946 0.911377 81.4784 0.911377Z"
        fill="#1B1817" />
</svg>
